<svg width="18" height="18" viewBox="0 0 18 18" fill="none" xmlns="http://www.w3.org/2000/svg">
<path d="M9 4.74C8.636 4.48533 8.27667 4.29833 7.922 4.179C7.56733 4.05967 7.22167 4 6.885 4C6.51167 4 6.15633 4.07167 5.819 4.215C5.48167 4.35767 5.16567 4.57633 4.871 4.871C4.57633 5.16567 4.35733 5.48567 4.214 5.831C4.07067 6.17633 3.99933 6.52767 4 6.885C4 7.22233 4.05967 7.568 4.179 7.922C4.29833 8.27667 4.48533 8.636 4.74 9C4.48533 9.364 4.29833 9.72333 4.179 10.078C4.05967 10.4327 4 10.7787 4 11.116C4 11.4887 4.07167 11.8437 4.215 12.181C4.35767 12.5183 4.57633 12.8343 4.871 13.129C5.16567 13.4237 5.48567 13.6423 5.831 13.785C6.17633 13.9277 6.52767 13.9993 6.885 14C7.22233 14 7.568 13.9403 7.922 13.821C8.27667 13.7017 8.636 13.5143 9 13.259C9.364 13.5143 9.72333 13.7017 10.078 13.821C10.4327 13.9403 10.7787 14 11.116 14C11.4887 14 11.8437 13.9283 12.181 13.785C12.5183 13.6423 12.8343 13.4237 13.129 13.129C13.4237 12.8343 13.6423 12.5143 13.785 12.169C13.9277 11.8237 13.9993 11.4723 14 11.115C14 10.7777 13.9403 10.432 13.821 10.078C13.7017 9.72333 13.5143 9.364 13.259 9C13.5143 8.636 13.7017 8.27667 13.821 7.922C13.9403 7.56733 14 7.22167 14 6.885C14 6.51167 13.9283 6.15633 13.785 5.819C13.6423 5.48167 13.4237 5.16567 13.129 4.871C12.8343 4.57633 12.5143 4.35733 12.169 4.214C11.8237 4.07067 11.4723 3.99933 11.115 4C10.7777 4 10.432 4.05967 10.078 4.179C9.72333 4.29833 9.364 4.48533 9 4.74ZM9.56 9.56C9.712 9.40667 9.788 9.21967 9.788 8.999C9.788 8.77833 9.71167 8.59167 9.559 8.439C9.407 8.28767 9.22033 8.212 8.999 8.212C8.77767 8.212 8.591 8.28833 8.439 8.441C8.287 8.59367 8.21133 8.78033 8.212 9.001C8.21267 9.22167 8.289 9.40833 8.441 9.561C8.593 9.71233 8.77967 9.788 9.001 9.788C9.22233 9.788 9.409 9.71167 9.561 9.559M9.003 18C7.759 18 6.589 17.764 5.493 17.292C4.39767 16.8193 3.44467 16.178 2.634 15.368C1.82333 14.558 1.18167 13.606 0.709 12.512C0.236333 11.418 0 10.2483 0 9.003C0 7.75767 0.236333 6.58767 0.709 5.493C1.181 4.39767 1.82133 3.44467 2.63 2.634C3.43867 1.82333 4.391 1.18167 5.487 0.709C6.583 0.236333 7.753 0 8.997 0C10.241 0 11.411 0.236333 12.507 0.709C13.6023 1.181 14.5553 1.82167 15.366 2.631C16.1767 3.44033 16.8183 4.39267 17.291 5.488C17.7637 6.58333 18 7.753 18 8.997C18 10.241 17.764 11.411 17.292 12.507C16.82 13.603 16.1787 14.556 15.368 15.366C14.5573 16.176 13.6053 16.8177 12.512 17.291C11.4187 17.7643 10.249 18.0007 9.003 18Z" fill="#C98218"/>
</svg>
