<svg width="35" height="38" viewBox="0 0 35 38" fill="none" xmlns="http://www.w3.org/2000/svg">
<path d="M33.5825 0.508425C33.1934 0.241179 32.7449 0.0731778 32.276 0.0190722C31.8071 -0.0350334 31.332 0.0263996 30.8923 0.198014C28.3455 1.18915 23.2028 2.85194 17.4266 2.85194C11.6504 2.85194 6.50594 1.18915 3.95548 0.198014C3.51543 0.0271932 3.04037 -0.0337974 2.57144 0.0203221C2.10251 0.0744416 1.65384 0.24204 1.26427 0.508608C0.874697 0.775176 0.555968 1.13268 0.335675 1.55017C0.115383 1.96765 0.000165972 2.43254 0 2.90458V13.0284C0 19.5343 1.75174 25.6717 4.93391 30.3061C8.23044 35.1093 12.667 37.7487 17.4266 37.7487C22.1863 37.7487 26.6228 35.1039 29.9193 30.3061C33.1015 25.6754 34.8532 19.5379 34.8532 13.032V2.90458C34.8524 2.43194 34.7362 1.96664 34.5148 1.54907C34.2933 1.13151 33.9733 0.774289 33.5825 0.508425ZM8.35025 18.3943C8.22307 18.5373 8.06897 18.6539 7.89674 18.7374C7.7245 18.8209 7.53751 18.8696 7.34645 18.8808C6.96057 18.9034 6.5815 18.7719 6.29264 18.515C6.00378 18.2582 5.82878 17.8971 5.80614 17.5112C5.7835 17.1253 5.91508 16.7463 6.17193 16.4574C7.21571 15.2993 9.10904 14.5223 10.8916 14.5223C12.6742 14.5223 14.5676 15.2993 15.6113 16.4574C15.7385 16.6004 15.8363 16.7671 15.899 16.9479C15.9618 17.1287 15.9883 17.3201 15.9771 17.5112C15.9659 17.7023 15.9172 17.8893 15.8337 18.0615C15.7502 18.2337 15.6337 18.3878 15.4906 18.515C15.3476 18.6422 15.1809 18.74 15.0001 18.8027C14.8193 18.8655 14.6279 18.892 14.4368 18.8808C14.2458 18.8696 14.0588 18.8209 13.8865 18.7374C13.7143 18.6539 13.5602 18.5373 13.433 18.3943C12.9465 17.8497 11.8265 17.4268 10.8916 17.4268C9.95677 17.4268 8.82948 17.8515 8.35025 18.3943ZM24.7766 27.0822C23.8752 28.1517 22.7511 29.0114 21.4828 29.6012C20.2144 30.1909 18.8326 30.4965 17.4339 30.4965C16.0351 30.4965 14.6533 30.1909 13.385 29.6012C12.1167 29.0114 10.9925 28.1517 10.0911 27.0822C9.95355 26.9398 9.84658 26.7707 9.77676 26.5854C9.70694 26.4001 9.67575 26.2025 9.68511 26.0048C9.69446 25.807 9.74417 25.6132 9.83116 25.4353C9.91816 25.2574 10.0406 25.0992 10.191 24.9704C10.3414 24.8416 10.5165 24.7449 10.7056 24.6863C10.8947 24.6277 11.0939 24.6083 11.2907 24.6294C11.4876 24.6506 11.6781 24.7118 11.8504 24.8092C12.0228 24.9067 12.1734 25.0383 12.293 25.1961C12.9216 25.9465 13.7069 26.55 14.5939 26.964C15.4808 27.3781 16.4478 27.5927 17.4266 27.5927C18.4054 27.5927 19.3724 27.3781 20.2593 26.964C21.1463 26.55 21.9317 25.9465 22.5602 25.1961C22.8103 24.9032 23.1665 24.7216 23.5506 24.6913C23.9346 24.661 24.3149 24.7845 24.6078 25.0346C24.9008 25.2847 25.0824 25.6409 25.1127 26.0249C25.143 26.4089 25.0195 26.7892 24.7694 27.0822H24.7766ZM28.5615 18.5159C28.4193 18.6432 28.2535 18.7411 28.0734 18.8043C27.8934 18.8674 27.7027 18.8944 27.5122 18.8838C27.3217 18.8732 27.1351 18.8251 26.9632 18.7424C26.7913 18.6596 26.6374 18.5438 26.5102 18.4016C26.0237 17.857 24.9037 17.434 23.9689 17.434C23.034 17.434 21.9067 17.8588 21.4275 18.4016C21.2998 18.5451 21.1451 18.662 20.9723 18.7458C20.7994 18.8295 20.6118 18.8784 20.42 18.8896C20.2283 18.9008 20.0362 18.8741 19.8548 18.8111C19.6734 18.7481 19.5061 18.6499 19.3626 18.5223C19.2191 18.3946 19.1021 18.24 19.0184 18.0671C18.9347 17.8942 18.8858 17.7066 18.8746 17.5148C18.8634 17.3231 18.8901 17.131 18.9531 16.9496C19.0161 16.7682 19.1142 16.6009 19.2419 16.4574C20.2784 15.2993 22.1717 14.5223 23.9616 14.5223C25.7514 14.5223 27.6375 15.2993 28.6813 16.4574C28.8093 16.6001 28.9078 16.7667 28.9711 16.9476C29.0344 17.1286 29.0613 17.3203 29.0502 17.5116C29.039 17.703 28.9901 17.8903 28.9062 18.0626C28.8224 18.235 28.7052 18.3891 28.5615 18.5159Z" fill="#852C28"/>
</svg>
