<svg width="34" height="33" viewBox="0 0 34 33" fill="none" xmlns="http://www.w3.org/2000/svg">
<path d="M33.6915 1.74266C33.6915 0.776936 32.9145 0 31.9488 0C30.9831 0 30.2061 0.776936 30.2061 1.74266V30.787C30.2061 31.7527 30.9831 32.5297 31.9488 32.5297C32.9145 32.5297 33.6915 31.7527 33.6915 30.787V1.74266ZM24.3973 6.97064C23.4315 6.97064 22.6546 7.74758 22.6546 8.71331V30.787C22.6546 31.7527 23.4315 32.5297 24.3973 32.5297C25.363 32.5297 26.1399 31.7527 26.1399 30.787V8.71331C26.1399 7.74758 25.363 6.97064 24.3973 6.97064ZM18.5884 15.6839C18.5884 14.7182 17.8115 13.9413 16.8457 13.9413C15.88 13.9413 15.1031 14.7182 15.1031 15.6839V30.787C15.1031 31.7527 15.88 32.5297 16.8457 32.5297C17.8115 32.5297 18.5884 31.7527 18.5884 30.787V15.6839ZM9.29419 20.9119C8.32847 20.9119 7.55153 21.6889 7.55153 22.6546V30.787C7.55153 31.7527 8.32847 32.5297 9.29419 32.5297C10.2599 32.5297 11.0369 31.7527 11.0369 30.787V22.6546C11.0369 21.6889 10.2599 20.9119 9.29419 20.9119ZM1.74266 25.559C0.776936 25.559 0 26.336 0 27.3017V30.787C0 31.7527 0.776936 32.5297 1.74266 32.5297C2.70839 32.5297 3.48532 31.7527 3.48532 30.787V27.3017C3.48532 26.336 2.70839 25.559 1.74266 25.559Z" fill="#852C28"/>
</svg>
