<svg width="38" height="38" viewBox="0 0 38 38" fill="none" xmlns="http://www.w3.org/2000/svg">
<rect width="38" height="38" rx="19" fill="white"/>
<path d="M29.4591 13C28.6891 13.35 27.8591 13.58 26.9991 13.69C27.8791 13.16 28.5591 12.32 28.8791 11.31C28.0491 11.81 27.1291 12.16 26.1591 12.36C25.3691 11.5 24.2591 11 22.9991 11C20.6491 11 18.7291 12.92 18.7291 15.29C18.7291 15.63 18.7691 15.96 18.8391 16.27C15.2791 16.09 12.1091 14.38 9.99906 11.79C9.62906 12.42 9.41906 13.16 9.41906 13.94C9.41906 15.43 10.1691 16.75 11.3291 17.5C10.6191 17.5 9.95906 17.3 9.37906 17V17.03C9.37906 19.11 10.8591 20.85 12.8191 21.24C12.1898 21.4122 11.5292 21.4362 10.8891 21.31C11.1607 22.1625 11.6926 22.9084 12.4101 23.4429C13.1276 23.9775 13.9945 24.2737 14.8891 24.29C13.3727 25.4904 11.4931 26.1393 9.55906 26.13C9.21906 26.13 8.87906 26.11 8.53906 26.07C10.4391 27.29 12.6991 28 15.1191 28C22.9991 28 27.3291 21.46 27.3291 15.79C27.3291 15.6 27.3291 15.42 27.3191 15.23C28.1591 14.63 28.8791 13.87 29.4591 13Z" fill="#7D332C"/>
</svg>
