<svg width="31" height="38" viewBox="0 0 31 38" fill="none" xmlns="http://www.w3.org/2000/svg">
<path d="M2.33517 0H2.30496C2.16471 0.00296494 2.02616 0.0313049 1.89602 0.0836478C1.70782 0.158154 1.54236 0.280533 1.41602 0.438663C1.28968 0.596794 1.20684 0.785188 1.17572 0.985185C1.13854 1.2036 0 8.35316 0 11.6177C0 13.8251 1.02701 15.7932 2.62561 17.0665C3.2065 17.5335 3.48532 18.04 3.48532 18.4629V19.6247C3.48532 19.6665 3.483 19.7083 3.47835 19.7502C3.41562 20.3543 3.1275 23.0705 2.85564 25.8634C2.58843 28.6168 2.32355 31.5561 2.32355 32.5297C2.32355 33.7622 2.81315 34.9442 3.68465 35.8157C4.55615 36.6872 5.73816 37.1768 6.97064 37.1768C8.20313 37.1768 9.38514 36.6872 10.2566 35.8157C11.1281 34.9442 11.6177 33.7622 11.6177 32.5297C11.6177 31.5538 11.3529 28.6168 11.0856 25.8634C10.887 23.8255 10.6794 21.7885 10.4629 19.7525L10.456 19.6247V18.4629C10.456 18.0377 10.7348 17.5335 11.3157 17.0665C12.1345 16.4138 12.7957 15.585 13.2502 14.6417C13.7048 13.6984 13.941 12.6648 13.9413 11.6177C13.9413 8.34619 12.7958 1.1641 12.7656 0.982861C12.7314 0.764481 12.6356 0.560379 12.4895 0.394517C12.3434 0.228655 12.153 0.107915 11.9407 0.0464709C11.8433 0.0179484 11.7425 0.00232501 11.641 0H11.5945H11.5968C11.2872 0.00245227 10.9912 0.127159 10.7731 0.346948C10.5551 0.566736 10.4327 0.863793 10.4327 1.17339V10.4676C10.4359 10.6186 10.4094 10.7688 10.3545 10.9096C10.2997 11.0504 10.2176 11.1789 10.1131 11.288C10.0086 11.3971 9.88358 11.4845 9.74526 11.5453C9.60694 11.606 9.45801 11.6389 9.30697 11.6421C9.15593 11.6453 9.00574 11.6188 8.86497 11.5639C8.7242 11.5091 8.59561 11.4271 8.48654 11.3225C8.37748 11.218 8.29007 11.093 8.22931 10.9547C8.16855 10.8164 8.13562 10.6674 8.13242 10.5164V1.16177C8.13242 0.853653 8.01002 0.558151 7.79214 0.340276C7.57427 0.122401 7.27877 0 6.97064 0C6.66252 0 6.36702 0.122401 6.14915 0.340276C5.93127 0.558151 5.80887 0.853653 5.80887 1.16177V10.456L5.81119 10.5303C5.80288 10.8354 5.67372 11.1246 5.45214 11.3344C5.23056 11.5442 4.93471 11.6574 4.62967 11.6491C4.32463 11.6408 4.03539 11.5116 3.82557 11.2901C3.61576 11.0685 3.50256 10.7726 3.51088 10.4676V1.17572C3.51088 0.864299 3.38733 0.565602 3.16734 0.345179C2.94736 0.124757 2.64658 0.000615449 2.33517 0ZM17.4266 10.456C17.4266 7.68287 18.5282 5.02336 20.4891 3.06248C22.45 1.10161 25.1095 0 27.8826 0C28.1907 0 28.4862 0.122401 28.7041 0.340276C28.922 0.558151 29.0444 0.853653 29.0444 1.16177V17.3755L29.0908 17.896C29.2719 19.9837 29.4485 22.0718 29.6206 24.1603C29.9087 27.6618 30.2061 31.505 30.2061 32.5297C30.2061 33.7622 29.7165 34.9442 28.845 35.8157C27.9735 36.6872 26.7915 37.1768 25.559 37.1768C24.3265 37.1768 23.1445 36.6872 22.273 35.8157C21.4015 34.9442 20.9119 33.7622 20.9119 32.5297C20.9119 31.5073 21.2093 27.6618 21.4975 24.1603C21.6415 22.392 21.7879 20.6819 21.8971 19.4156L21.9668 18.5884H20.9119C19.9876 18.5884 19.1011 18.2212 18.4474 17.5676C17.7938 16.9139 17.4266 16.0274 17.4266 15.1031V10.456Z" fill="#852C28"/>
</svg>
