<?xml version="1.0" encoding="UTF-8"?>
<svg id="Layer_1" xmlns="http://www.w3.org/2000/svg" version="1.1" viewBox="0 0 1080 1080">
  <!-- Generator: Adobe Illustrator 30.0.0, SVG Export Plug-In . SVG Version: 2.1.1 Build 123)  -->
  <defs>
    <style>
      .st0 {
        fill: #862c29;
      }

      .st1 {
        fill: none;
        stroke: #fff;
        stroke-miterlimit: 10;
        stroke-width: .5px;
      }

      .st2 {
        fill: #fff;
      }
    </style>
  </defs>
  <rect class="st0" x="-58.9" y="-18.99" width="1197.81" height="1117.98"/>
  <g>
    <path class="st2" d="M728.72,347.75c-1.08,2.77-3.78,4.73-6.93,4.73-3.5,0-6.43-2.41-7.23-5.66,1.78,2.18,4.48,3.57,7.51,3.57,2.57,0,4.91-1,6.64-2.64"/>
    <g>
      <path class="st2" d="M249.93,603.42c5.75,3.2,11.68,5.97,17.04,9.61,12.08,8.2,21.31,18.85,24.06,33.6,4.46,23.93-3.11,43.32-23.12,57.63-11.38,8.14-24.16,12.74-37.74,15.4-21.89,4.29-43.37,2.49-64.36-4.8-14.41-5.01-26.74-13.05-35.37-26.03-10.61-15.97-10.58-39.85.71-53.73,10.95-13.47,25.66-18.7,42.7-17.1,20.67,1.94,35.88,15.09,40.56,35.27,1.32,5.69,1.69,11.79,1.32,17.63-.92,14.55-19.42,22.55-31.86,14.07-8.62-5.87-11.53-16.74-6.97-26.03,4.54-9.25,15.35-13.75,25.16-10.47.76.25,1.55.41,2.88.75-2.1-5.26-5.16-8.97-9.52-11.49-7.94-4.6-16.34-3.6-23.73,2.7-6.61,5.64-10,13.19-11.99,21.36-2.68,10.93-1.65,21.59,4.09,31.43,6.46,11.07,16.43,17.35,28.87,19.66,8.04,1.49,16.19,1.97,24.2-.33,9.51-2.74,16.29-9.18,21.82-17.01,9.16-12.99,12.75-27.7,12.72-43.4-.02-11.63-2.2-22.71-8.7-32.65-5.52-8.44-13-14.01-23.1-15.46-3.66-.52-7.44-.24-11.17-.32-1.74-.03-1.72,1.09-1.3,2.24,1.29,3.58,2.39,7.26,4.05,10.67,2.85,5.85,5.96,11.58,9.18,17.24,1.11,1.95.66,3.24-.81,4.88-17.38-29.04-43.31-33.28-73.49-25.54-.73-1.75-.51-2.86,1.57-3.62,5.44-1.98,10.2-5.11,13.56-9.87,1.36-1.93,2.6-4.4,2.7-6.67.57-13.12-.58-26.05-5.49-38.42-2.41-6.07-5.35-11.81-12.34-13.43-6.63-1.53-13.24-.66-19.21,2.68-10.73,6-14.92,15.94-15.86,27.61-.62,7.69,1.1,14.79,5.81,21.05,5.25,6.99,13.86,8.87,21.48,4.57,1.36-.77,2.63-1.71,4.57-2.99-1.23-.13-1.68-.28-2.09-.2-13.8,2.83-26.22-8.91-24.29-22.96,1.37-9.92,10.14-17.81,20.02-18.01,9.86-.19,19.38,7.36,20.56,17.28,1.9,16.02-4.88,30.72-21.56,36.68-10.11,3.61-20.45,3.75-30.76.78-11.49-3.31-20.57-15.58-21.36-28.6-1.1-18.32,8.01-32,25.91-39.03,8.8-3.46,17.96-4.91,27.36-4.92,36.11-.05,72.23-.03,108.34-.04,9.15,0,17.86,1.7,25.73,6.63,23.85,14.94,15.73,44.38-.92,54.78-5.72,3.57-11.94,5.56-18.55,6.49-.33.05-.68.06-1,.13-.14.03-.24.19-.33.27ZM204.65,578.37v.08c0,5,.48,9.94.46,14.94,0,1.23.12,2.09,1.73,2.13,6.65.15,13.19-.27,19.52-2.58,11.27-4.13,18.43-14.39,17.98-25.9-.56-14.14-11.77-24.82-25.2-24.04-3.22.19-5.85,1.46-7.92,3.97-2.58,3.15-4.5,6.7-4.95,10.69-.78,6.88-1.1,13.8-1.61,20.71Z"/>
      <path class="st2" d="M611.3,663.23c-14.46,12.1-33.94,18.59-56.66,18.59h-57.84v-2.66s17.7-7.97,17.7-50.46v-49.28c0-42.49-17.7-50.46-17.7-50.46v-2.66h75.54v2.66s-17.7,7.97-17.7,50.46v.59c2.66-5.31,6.79-9.44,12.1-12.39,12.98-7.38,31.87-6.79,45.74,2.07,33.64,21.84,26.85,70.23-1.18,93.54ZM562.02,580.31c-5.02,3.25-7.38,12.1-7.38,21.54v72.3c59.61,0,40.13-115.09,7.38-93.84Z"/>
      <path class="st2" d="M778.36,568.63v2.52s-16.82,7.57-16.82,47.95v12.06c0,40.38,16.82,48.51,16.82,48.51v2.52h-42.62c-6.73,0-12.06-5.33-12.06-12.06v-.28c-5.89,8.41-15.42,13.18-24.96,13.74-37.58,2.24-54.4-25.52-54.4-64.49s-16.82-47.95-16.82-47.95v-2.52h71.79v2.52s-16.82,7.57-16.82,47.95c0,30.28,7.57,55.8,27.48,51.03,7.29-1.68,13.74-7.85,13.74-33.37v-17.66c0-40.38-17.1-47.95-17.1-47.95v-2.52h71.79Z"/>
      <path class="st2" d="M844.55,534.7v2.52s-16.82,7.57-16.82,47.95v46.83c0,40.38,16.82,47.95,16.82,47.95v2.52h-71.79v-2.52s16.82-7.57,16.82-47.95v-46.83c0-40.38-16.82-47.95-16.82-47.95v-2.52h71.79Z"/>
      <path class="st2" d="M618.09,719.4c-1-8.61-5.86-14.42-14.27-16.99-8.51-2.6-17.67.94-22.27,8.5-4.86,7.98-3.73,17.59,2.84,24.25,6.28,6.36,16.08,7.6,23.85,3.02.44-.26.95-.39,1.43-.58.26.18.51.37.77.55-1.59,3.49-2.84,7.18-4.83,10.42-3.57,5.81-8.55,6.91-14.65,3.74-5.88-3.05-9.57-8.2-13.05-13.56-3.18-4.89-6.04-10.04-9.65-14.59-9.64-12.14-21.92-21.11-35.7-28-19.75-9.89-40.59-15.45-62.84-15.03-2.66.05-5.33.14-8.38.22.46-.66.61-1.05.9-1.26,4.53-3.37,7.64-7.89,10.17-12.82,7.54-14.68,10.19-30.61,11.27-46.81.29-4.31.44-8.6.5-12.89h.03s-.08-15.08-.08-15.08c0-.79-.16-4.6-.18-5.34l-.93-13.81c-.04-.65-.15-1.66-.23-2.31-4.48-37.76,11.33-42.18,11.33-42.18v-2.52h-71.79v2.52s14.61,10.94,19.73,44.44c.38,2.9.75,5.81,1.11,8.72l3.9,34.89c.75,7.16,1.49,14.32,2.25,21.47.8,7.55.09,15.05-1.61,22.45-1.66,7.25-5.64,12.8-9.53,19.54-.4.69-.92,1.79-1.37,2.7.94.29,1.91.7,2.82.83,5.59.8,19.17,1.35,27.99,5.85,14.45,7.37,26.6,17.73,38,29.05,9.73,9.67,19.17,19.64,29.07,29.13,8.22,7.87,17.29,14.59,27.91,19.17,18.7,8.07,38.45.35,48.14-13.96,6.94-10.25,8.73-21.74,7.34-33.75Z"/>
      <path class="st2" d="M434.25,569.89v2.5s-16.64,7.49-16.64,47.42v11.93c0,39.94,16.64,47.98,16.64,47.98v2.5h-42.15c-6.65,0-11.92-5.27-11.92-11.93v-.28c-5.82,8.32-15.25,13.03-24.68,13.59-37.16,2.22-53.8-25.24-53.8-63.79s-16.64-47.42-16.64-47.42v-2.5h71v2.5s-16.64,7.49-16.64,47.42c0,29.95,7.49,55.19,27.18,50.47,7.21-1.66,13.59-7.76,13.59-33v-17.47c0-39.93-16.92-47.42-16.92-47.42v-2.5h71Z"/>
    </g>
    <path class="st2" d="M995.31,376.42c-.12-.06-.29-.14-.48-.24-.7-.34-1.88-.9-3.48-1.64-.24-.1-.46-.2-.72-.32-.25-.11-.5-.21-.76-.33-.49-.23-1.01-.45-1.57-.7-.04-.01-.06-.02-.1-.04-1.47-.64-3.12-1.33-4.97-2.09h-.01c-.32-.13-.64-.26-.98-.39-.38-.15-.76-.31-1.17-.46-.79-.31-1.6-.63-2.44-.95-.69-.26-1.41-.52-2.13-.8-1.36-.5-2.79-1.02-4.27-1.53-.74-.25-1.49-.51-2.25-.77-.76-.26-1.54-.51-2.34-.77h-.01c-.79-.27-1.56-.52-2.37-.77-1.16-.37-2.34-.74-3.54-1.09-.02,0-.04,0-.05-.01-.02-.01-.04-.01-.05-.02h-.01c-4.73-1.4-9.8-2.76-15.14-3.95-.3-.06-.6-.13-.89-.19h-.01s0-.01,0-.01c-.46-.09-.93-.2-1.41-.3-.64-.14-1.29-.27-1.94-.4-1.17-.24-2.36-.46-3.55-.67-.79,1.37-1.61,2.72-2.44,4.06-1.99,3.17-4.1,6.27-6.32,9.26h0c-.35.49-.69.94-1.05,1.41-1.29,1.72-2.62,3.4-3.97,5.06-.02.01-.04.02-.05.05-1.5,1.83-3.03,3.61-4.61,5.36-2.12,2.38-4.3,4.68-6.54,6.9-2.57,2.56-5.2,5.02-7.87,7.34-2.18,1.92-4.4,3.76-6.63,5.53-2.57,2.03-5.17,3.98-7.79,5.81-2.55,1.79-5.11,3.48-7.68,5.05-1.94,1.21-3.87,2.35-5.8,3.43.76-.12,1.54-.25,2.31-.4.07-.01.14-.02.2-.04.36-.06.72-.12,1.07-.19,1.04-.19,2.07-.4,3.11-.6.08-.01.17-.04.25-.05.01,0,.04-.01.06-.01t.05-.01h.02s.02,0,.02,0c.01,0,.01-.01.01-.01h.01c.89-.17,1.8-.36,2.69-.55.12-.02.23-.05.35-.07.12-.02.23-.05.35-.08.11-.02.23-.05.33-.07.1-.01.19-.04.3-.06h.01c1.22-.26,2.43-.54,3.65-.82.11-.01.21-.05.32-.08.04,0,.07-.01.11-.02.04,0,.07-.01.11-.02.17-.04.33-.07.5-.12l.86-.22c.13-.02.26-.06.43-.11.8-.18,1.6-.36,2.4-.58.32-.08.63-.16.94-.23s.63-.16.95-.24c.18-.04.35-.08.51-.12l2.4-.61,1.11-.29s.07-.02.1-.04c.39-.11.79-.2,1.19-.31.2-.06.41-.12.61-.17.6-.17,1.19-.34,1.8-.49.02,0,.04,0,.07-.01h0s.01.01.01.01c.01,0,.01-.01.02-.01s.01,0,.04-.01c0,0,.01,0,.02-.01h.04s.01,0,.01,0h.01s.02-.01.02-.01c0-.01.01-.01.01-.01h.01c1.63-.44,3.27-.91,4.89-1.4.98-.29,1.95-.58,2.92-.86l.82-.25c.19-.06.39-.12.6-.18.2-.06.41-.12.61-.18.83-.26,1.67-.52,2.49-.78.83-.25,1.66-.52,2.48-.77.64-.2,1.29-.41,1.93-.62.97-.31,1.93-.62,2.9-.95.54-.18,1.06-.35,1.6-.53.18-.06.35-.12.51-.18.18-.06.35-.12.52-.18.01,0,.04-.01.05-.01.35-.12.69-.24,1.04-.35.24-.08.46-.16.69-.24.35-.11.69-.23,1.04-.35.06-.02.11-.04.17-.06.79-.26,1.57-.54,2.34-.81.18-.06.35-.11.51-.17.6-.22,1.18-.42,1.76-.62h.01c.13-.05.26-.1.39-.14h.01c1.53-.54,3.03-1.09,4.51-1.64.83-.3,1.66-.61,2.48-.91.01,0,.04-.01.05-.01.73-.28,1.45-.55,2.18-.83.26-.1.51-.19.76-.29.48-.18.93-.35,1.44-.54t.02-.01s.01.01.02,0c.13-.06.27-.12.42-.17.14-.06.29-.11.43-.17h.01c.43-.17.83-.34,1.25-.49.13-.05.25-.1.37-.14.61-.23,1.2-.45,1.8-.69h.01c.57-.23,1.13-.45,1.68-.66.07-.04.13-.06.2-.08.06-.02.12-.05.18-.07.42-.18.85-.35,1.26-.5.13-.05.27-.11.41-.16.62-.25,1.23-.5,1.85-.74.07-.04.14-.06.23-.1.26-.11.52-.23.79-.32.26-.11.52-.22.79-.31t.04-.01c.12-.06.25-.11.38-.17.1-.04.19-.07.27-.11.45-.19.89-.37,1.33-.55.08-.04.18-.07.26-.11.18-.07.35-.14.51-.22.01,0,.02,0,.04-.01.58-.23,1.16-.47,1.72-.71.15-.06.3-.12.45-.19.18-.07.36-.14.55-.22.36-.16.72-.3,1.07-.45.37-.16.74-.31,1.1-.47.44-.19.87-.37,1.3-.55.43-.18.86-.36,1.28-.54.13-.05.26-.11.38-.16.01,0,.01-.01.02-.01h0c.08-.05.15-.08.24-.12.04-.01.07-.02.11-.04.31-.14.62-.28.93-.41.02-.01.05-.01.07-.02.32-.14.63-.28.94-.42.35-.14.68-.29,1-.43.62-.26,1.23-.54,1.82-.8.05-.01.1-.04.14-.06.37-.17.74-.32,1.1-.48.05-.02.1-.05.14-.06.29-.14.58-.26.87-.39.11-.05.21-.11.33-.16.1-.05.19-.08.29-.12.06-.02.12-.05.18-.08.19-.08.37-.16.54-.24.67-.3,1.31-.59,1.93-.86.25-.12.5-.24.75-.35.67-.3,1.31-.6,1.93-.87.21-.1.43-.2.64-.29.02-.02.06-.04.1-.06.04-.01.07-.02.1-.04.08-.05.18-.08.26-.13.11-.05.2-.08.3-.13.04-.02.08-.04.12-.06.04-.02.08-.05.12-.06.06-.02.12-.05.17-.07.46-.22.92-.42,1.33-.62,1.75-.81,3.23-1.52,4.4-2.08.13-.06.24-.12.36-.17.19-.1.37-.18.55-.28.1-.04.18-.08.26-.13.11-.05.2-.1.3-.13.33-.17.63-.31.88-.43.2-.11.38-.19.52-.26.01,0,.02-.01.04-.02.02,0,.05-.01.07-.02.01,0,.02-.01.04-.02,0,0,.02-.01.04-.02h.01s.05-.01.06-.02.02-.01.04-.02c.01,0,.04-.01.07-.02.02-.02.04-.02.06-.04h.01s-.13-.08-.27-.15Z"/>
    <path class="st2" d="M764.21,390.44v.02s-.04-.02-.06-.04c.02,0,.04,0,.06.02Z"/>
    <path class="st2" d="M726.16,434.8l-1.58-.1c.06-.84.11-1.69.13-2.51v-.18c.04-.9.06-1.79.06-2.69,0-31.4-18.63-59.75-47.45-72.22-5.98-2.59-12.24-4.42-18.62-5.44-.21-.03-.34-.05-.47-.08l.3-1.55-.15.77.3-.76.14.03c6.63,1.06,13.02,2.93,19.12,5.57,29.41,12.73,48.41,41.64,48.41,73.67,0,.93-.02,1.84-.06,2.76-.01.99-.07,1.86-.13,2.73Z"/>
    <path class="st2" d="M918.59,569.66l-1.48-2.25c-2.58-4.11-5.52-8.04-8.75-11.71-.94-1.08-1.99-2.21-3.2-3.47l-.58-.58c-1.73-1.74-3.55-3.43-5.42-5.02-.14-.14-.26-.24-.35-.31-.16-.14-.3-.25-.43-.36l-.21-.17c-.13-.09-.31-.23-.49-.37l-.21-.17c-.47-.39-.91-.74-1.36-1.08-.62-.5-1.24-.95-1.85-1.4l-1.53-1.12c-.18-.14-.35-.26-.53-.39-.21-.15-.4-.28-.6-.4-3.08-2.11-6.31-4.05-9.64-5.76-1.03-.5-2.07-1.01-3.12-1.5-.34-.18-.63-.33-.95-.47-.98-.43-1.96-.87-2.95-1.26-1.59-.66-3.26-1.28-4.99-1.87l-.53-.16c-1.25-.42-2.47-.8-3.71-1.16-1.1-.3-2.23-.6-3.36-.86v-.82s-.19.77-.19.77l-.23-.06c-.89-.22-1.82-.42-2.76-.61-3.12-.64-6.21-1.1-9.2-1.37l-.7-.06c-3.93-.39-8.02-.5-11.97-.32-.76.04-1.42.08-2.07.13-1.75.09-3.57.25-5.44.49-.04.01-.13.02-.22.04l-1.5.21c-.24.04-.49.08-.73.08-.1.03-.34.06-.58.1l-.68.1c-.32.04-.63.08-.95.1-.89.13-1.85.22-2.82.3-.06.02-.2.04-.35.04-.12.02-.29.04-.49.04-1.61.16-3.36.26-5.28.3-.67.02-1.32.02-1.97.02h-.36c-1.61,0-3.06-.04-4.42-.13-2.39-.11-4.94-.35-7.56-.71-.06.02-.23-.01-.39-.04l-1.12-.18c-3.45-.51-6.89-1.25-10.2-2.18-.72-.19-1.45-.4-2.19-.63l-.38-.11c-.58-.18-1.12-.35-1.66-.55-1.51-.49-2.99-1.01-4.37-1.54l-1.85-.75c-.18-.07-.27-.11-.34-.16l-.46-.19c-.37-.16-.74-.31-1.11-.48-.3-.15-.54-.27-.79-.37-.31-.15-.61-.28-.88-.42-.99-.42-2-.94-2.76-1.33-4.98-2.54-9.72-5.54-14.07-8.93-3.52-2.72-6.8-5.67-9.73-8.76-.9-.92-1.83-1.94-2.76-3.03-.18-.19-.37-.43-.57-.66l-.34-.41c-.42-.46-.83-.94-1.22-1.43-.21-.25-.43-.53-.63-.81l-.22-.27c-1.22-1.51-2.42-3.14-3.58-4.83-.05-.06-.11-.14-.17-.24-.06-.07-.12-.16-.16-.24-1.07-1.55-2.1-3.19-3.07-4.87-.62-1.04-1.22-2.12-1.8-3.19-.01-.01-.07-.09-.11-.2-.14-.25-.27-.5-.39-.75-1.2-2.34-2.18-4.43-3-6.43-.07-.12-.13-.28-.2-.46-.12-.28-.24-.59-.36-.91-.95-2.31-1.83-4.8-2.6-7.38-.38-1.25-.86-2.91-1.28-4.61-.34-1.47-.7-3.04-1-4.66-.08-.4-.16-.84-.21-1.27-.04-.24-.06-.37-.06-.49-.43-2.42-.77-5.13-.98-7.93-.06-.87-.12-1.63-.14-2.4-.01-.22-.02-.3-.02-.38-.05-.77-.07-1.6-.09-2.44-.02-.64-.02-1.2-.02-1.76,0-1.04,0-2.08.06-3.1.02-.48.05-.98.09-1.48v-.25c.03-.27.03-.51.03-.78l1.58-.15c0,.46,0,.74-.02,1.04l-.8.2.79.06c-.03.48-.07.96-.08,1.45-.06,1.01-.06,2.02-.06,3.03,0,.54,0,1.08.02,1.64.02.9.04,1.7.09,2.5l-.78.23.79-.06c0,.08.01.16.01.24.02.72.07,1.46.12,2.22.22,2.82.55,5.49.98,7.99l-.75.37.77-.15.03.19c.06.41.13.81.2,1.19.29,1.6.64,3.15.98,4.58.41,1.66.89,3.29,1.26,4.53.75,2.53,1.61,4.97,2.56,7.26.12.31.23.6.35.9.06.17.11.27.17.4.83,2.01,1.79,4.06,2.96,6.33.14.28.26.52.4.77l.06.15c.6,1.09,1.19,2.15,1.81,3.18.96,1.68,1.99,3.3,3.05,4.84l.2.31c1.22,1.76,2.4,3.35,3.6,4.84l.25.3c.21.29.4.53.59.76.38.48.77.94,1.2,1.4l.31.37c.23.27.41.49.6.69.93,1.08,1.83,2.08,2.72,2.98,2.89,3.04,6.1,5.93,9.56,8.61,4.28,3.32,8.93,6.27,13.83,8.77.74.39,1.72.88,2.71,1.31.3.15.58.28.86.41.25.1.52.24.78.37.36.16.72.32,1.08.47l2.62,1.08c1.34.52,2.79,1.03,4.29,1.52.54.19,1.06.36,1.6.53l.38.11c.73.23,1.44.44,2.14.62,3.26.92,6.63,1.64,10.02,2.15,0-.02.16.02.32.07l.79.1c.09.01.18.03.28.03,2.67.36,5.17.6,7.54.7,1.35.09,2.76.13,4.33.13h.38c.63,0,1.26,0,1.91-.02,1.88-.04,3.59-.14,5.24-.3.21,0,.33-.02.47-.04l.33-.04c.93-.08,1.87-.17,2.78-.3.34-.02.61-.06.88-.1.21-.04.45-.07.69-.1l.68-.1c.29-.01.44-.04.6-.07l1.33-.18s.13-.03.24-.04l.22-.04c1.9-.24,3.76-.41,5.53-.5.64-.06,1.32-.1,1.99-.13h.16c3.92-.18,8.16-.07,12.15.33l.64.06c3.1.27,6.26.75,9.43,1.4.95.19,1.91.4,2.86.63l.41.1c1.11.26,2.26.56,3.38.87,1.28.37,2.52.75,3.77,1.17l.52.16c1.79.6,3.5,1.24,5.11,1.91,1,.4,2,.84,3,1.28.36.16.68.32,1.02.5,1.03.48,2.08.99,3.13,1.51,3.4,1.75,6.69,3.71,9.8,5.85.2.13.42.27.64.43.19.13.39.27.57.42l1.5,1.1c.64.46,1.27.93,1.89,1.43.44.33.91.7,1.37,1.09l.21.16c.15.12.3.24.46.35l.25.2c.16.13.33.26.48.4.1.08.26.22.39.35,1.85,1.57,3.71,3.29,5.47,5.07,0-.03.06.04.13.11l.46.48c1.24,1.29,2.31,2.44,3.26,3.53,2.83,3.21,5.44,6.63,7.78,10.18,0-.33,0-.67-.02-1v-.23c0-.07,0-.13,0-.2-.08-2.61-.19-4.64-.35-6.49v-.36c-.12-1.39-.28-2.97-.53-4.91-.15-1.23-.32-2.45-.53-3.65-.02-.15-.03-.26-.06-.38-.35-2.14-.75-4.21-1.2-6.21-.04-.2-.07-.34-.11-.47-.09-.44-.18-.78-.26-1.12-.04-.14-.06-.22-.07-.31l-.04-.19c-.02-.06-.03-.12-.05-.19l-.05-.17c-.2-.84-.41-1.64-.62-2.45-.15-.54-.57-2.02-.68-2.33l-.39-1.4c-.93-3-2.08-6.17-3.49-9.61-.83-1.98-1.74-4.01-2.71-6.01-.88-1.82-1.87-3.72-3.13-5.98-.56-1-1.15-1.98-1.74-2.96-.35-.6-.69-1.15-1.03-1.67-.29-.48-.54-.88-.81-1.27-.04-.06-.09-.13-.14-.22l-.95-1.42c-.36-.54-.73-1.08-1.11-1.62h0l-.25-.34c-1.85-2.65-3.89-5.29-6.24-8.07-1.46-1.71-2.86-3.28-4.3-4.79-3.06-3.19-6.32-6.22-9.69-8.99-2.14-1.78-4.35-3.47-6.56-5.01-1.93-1.38-3.99-2.74-6.32-4.17-1.93-1.2-3.89-2.31-5.82-3.32-.28-.17-.53-.29-.78-.42l-1.99-1.02c-3.07-1.58-6.13-3.35-9.08-5.24-12.73-8.13-23.64-18.51-32.42-30.85-.99-1.43-2.14-3.09-3.21-4.78-.1-.18-.2-.32-.29-.47-.1-.17-.21-.33-.31-.5-1.12-1.77-2.29-3.76-3.54-6.06-3.06-5.61-5.63-11.43-7.65-17.29-.13-.35-.24-.64-.33-.93-.51-1.47-.97-2.94-1.36-4.34-.44-1.46-.86-2.95-1.24-4.46-.66-2.61-1.24-5.31-1.72-8.01-.08-.54-.17-1.03-.28-1.55l-.02-.17c-.14-.74-.3-1.58-.51-2.41l-.04-.17c-.99-4.35-2.45-8.6-4.33-12.62l-.08-.15c-.39-.85-.81-1.69-1.24-2.52l-.02-.02-.12-.24c-1.44-2.73-3.15-5.45-5.05-8.04-.61-.84-1.27-1.69-2.02-2.6l-.24-.29c-.07-.08-.14-.17-.22-.25-.33-.41-.64-.75-.93-1.08-.26-.3-.52-.58-.78-.86-1.42-1.58-2.85-3.02-4.28-4.3-1.58-1.45-3.21-2.79-4.86-4-1.11-.81-2.22-1.6-3.36-2.35-1.14-.76-2.31-1.46-3.56-2.15-1.31-.73-2.5-1.35-3.63-1.9-.33-.16-.67-.31-1.04-.48l-1.99-.87c-3.41-1.41-7.01-2.55-10.69-3.37l-.15-.02-1.1-.23c-1.29-.28-2.54-.5-3.73-.65-1.51-.21-2.92-.36-4.37-.45-3.13-.23-6.16-.22-9.18,0-.34.02-.68.06-1.01.09-1.12.09-2.17.23-3.25.37l-.21.03c-2,.28-4,.66-5.92,1.12-5.18,1.26-10.19,3.16-14.89,5.64-2.04,1.1-4,2.27-5.82,3.49l-.21.13c-.1.09-.31.24-.52.36l-.81-1.35c.17-.1.34-.22.53-.36l.24-.15c1.76-1.19,3.77-2.39,5.86-3.51,4.82-2.55,9.95-4.5,15.26-5.79,1.97-.47,4.02-.86,6.08-1.15l.22-.03c1.1-.14,2.18-.28,3.3-.37.33-.04.71-.08,1.06-.1,3.06-.23,6.2-.23,9.39,0,1.49.1,2.93.25,4.4.46,1.3.16,2.59.39,3.91.67l1.18.23c3.8.84,7.52,2.01,11.05,3.48l2.02.89c.38.17.73.33,1.07.5,1.16.56,2.37,1.2,3.71,1.94,1.29.71,2.48,1.44,3.66,2.22,1.17.76,2.3,1.57,3.43,2.39,1.69,1.24,3.37,2.62,4.99,4.1,1.46,1.32,2.94,2.8,4.38,4.4.26.28.54.57.79.87.32.36.64.72.93,1.09.06.05.16.17.25.29l.25.29c.78.94,1.46,1.82,2.08,2.68,1.95,2.65,3.7,5.43,5.19,8.26.54,1.02.98,1.92,1.4,2.82.02,0,.07.11.11.24,1.9,4.03,3.39,8.38,4.41,12.85.25,1.01.42,1.88.58,2.77.11.54.21,1.07.29,1.62.47,2.64,1.04,5.3,1.69,7.87.38,1.49.79,2.96,1.23,4.41.38,1.38.83,2.82,1.34,4.28.09.29.19.56.29.83,2.02,5.87,4.56,11.6,7.58,17.13,1.24,2.27,2.38,4.23,3.5,5.99.1.18.2.32.29.47.1.17.21.33.31.5,1.05,1.65,2.18,3.29,3.16,4.7,8.66,12.17,19.42,22.41,31.98,30.43,2.91,1.87,5.93,3.61,8.95,5.17l1.99,1.02c.27.14.55.29.82.45,1.93,1,3.92,2.13,5.88,3.35,2.35,1.45,4.45,2.83,6.4,4.23,2.24,1.57,4.48,3.28,6.65,5.08,3.41,2.81,6.72,5.88,9.83,9.12,1.46,1.53,2.88,3.12,4.36,4.86,2.3,2.72,4.31,5.31,6.14,7.91l.21.27c.39.55.78,1.1,1.15,1.64h0l1.31,2.03c.27.36.54.79.8,1.21.37.59.72,1.15,1.05,1.71.63,1.04,1.23,2.04,1.79,3.06,1.27,2.28,2.28,4.21,3.17,6.06.99,2.03,1.91,4.08,2.75,6.09,1.43,3.5,2.59,6.71,3.54,9.83l.38,1.29c.11.3.55,1.85.67,2.28.25.96.47,1.78.67,2.63,0,0,.02.08.04.16l.05.2c.02.07.04.15.05.22l.04.18c.11.45.2.81.27,1.17.04.09.08.3.12.51.46,2.05.86,4.14,1.21,6.25.03.12.06.28.08.46.21,1.2.38,2.45.53,3.69.25,1.96.42,3.57.54,5.05v.35c.17,1.81.28,3.87.35,6.41.02.05.02.19.02.35v.21c.02.67.02,1.38.02,2.07,0,.41,0,.8-.02,1.21,0,.13,0,.32-.02.49l-.28,2.06Z"/>
    <path class="st2" d="M845.33,597.23c-1.55,0-3.11-.32-4.58-.96-5.78-2.52-8.43-9.28-5.91-15.07,1.06-2.43,2.95-4.43,5.31-5.62l.15-.07c.4-.19.81-.38,1.24-.51,11.09-4.8,19.93-13.61,24.79-24.76,1.47-3.36,2.55-6.88,3.21-10.46l.58-3.13.95,3.03c3.55,11.33,2.89,23.59-1.88,34.5h0c-3.76,8.62-9.86,15.95-17.62,21.18l-.2.13c-1.84,1.14-3.94,1.73-6.05,1.73ZM870.41,543.21c-.66,2.62-1.54,5.18-2.63,7.67-5.03,11.52-14.16,20.61-25.7,25.61-.43.14-.76.29-1.09.45l-.15.07c-2.01,1.02-3.64,2.74-4.56,4.83-2.18,4.99.11,10.81,5.1,12.99,2.97,1.3,6.4,1.05,9.16-.66,0-.02.12-.08.2-.12,7.47-5.04,13.37-12.13,17.01-20.48h0c4.19-9.59,5.11-20.26,2.66-30.35Z"/>
    <path class="st2" d="M867.2,623.08c-.22,0-.44,0-.66-.02-3.96-.17-7.62-1.88-10.29-4.8-2.68-2.92-4.06-6.72-3.88-10.68.15-3.44,1.5-6.73,3.81-9.29l.15-.16c.35-.37.76-.8,1.25-1.18,11.45-11.24,18.18-26.32,18.89-42.43.21-4.86-.12-9.72-1.01-14.45l-.58-3.13,1.98,2.49c9.71,12.22,14.67,27.56,13.98,43.2h0c-.55,12.35-4.56,24.22-11.61,34.3l-.12.16c-2.87,3.81-7.26,5.98-11.91,5.98ZM877.53,542.95c.52,3.84.7,7.75.52,11.65-.73,16.5-7.63,31.96-19.43,43.54-.47.37-.83.75-1.14,1.07-.01.03-.1.12-.17.18-2.02,2.24-3.23,5.18-3.36,8.26-.16,3.54,1.08,6.93,3.47,9.55,2.39,2.61,5.66,4.14,9.2,4.29,4.38.16,8.54-1.77,11.18-5.26,0-.02.08-.12.17-.23,6.85-9.81,10.77-21.38,11.3-33.44h0c.63-14.19-3.52-28.14-11.74-39.62Z"/>
    <path class="st2" d="M904.15,633.58c-2.28,0-4.56-.46-6.72-1.39-4.19-1.8-7.43-5.12-9.13-9.36-1.47-3.68-1.61-7.77-.4-11.54l.82.04-.76-.21c.21-.62.44-1.27.77-1.89,6.75-17.36,6.66-36.53-.28-53.9-2.09-5.24-4.77-10.22-7.97-14.8l-1.82-2.61,2.83,1.46c16.05,8.26,28.59,22.07,35.3,38.87h0c5.31,13.28,6.72,27.7,4.09,41.68l-.05.23c-1.26,5.6-5.13,10.12-10.34,12.2-2.05.82-4.19,1.23-6.34,1.23ZM883.56,542.28c2.49,3.93,4.63,8.11,6.37,12.46,7.09,17.74,7.17,37.33.25,55.14-.31.61-.52,1.18-.69,1.68,0,.04-.05.17-.09.25-1.08,3.37-.95,7.09.38,10.43,1.54,3.85,4.48,6.86,8.28,8.5,3.8,1.63,8.01,1.68,11.85.15,4.74-1.89,8.24-5.99,9.37-10.97,0-.02.03-.17.06-.31,2.57-13.66,1.18-27.77-4.01-40.77h0c-6.18-15.47-17.4-28.34-31.78-36.55Z"/>
    <path class="st2" d="M898.46,612.5s.03-.04.07-.14c.07-.14.2-.39.37-.71,0-.01,0-.03.01-.03,2.03-4.17,10.03-22.25,3.98-38.03,0,0,13.63,20.08,6.31,42.14h0s0,0,0,0h0c-.53,2.57-2.8,4.49-5.51,4.49-3.11,0-5.64-2.53-5.64-5.64,0-.74.14-1.44.4-2.08,0,0,.03-.04.07-.14.01-.04.04-.07.06-.13.09-.21.19-.4.31-.59,0-.01,0-.03.01-.03h0s-.46.88-.46.88Z"/>
    <path class="st2" d="M863.43,603.02s.04-.02.12-.09c.12-.09.32-.23.6-.43,0-.01.01-.02.02-.02,3.36-2.57,17.23-14.02,17.88-29.34,0,0,4.38,21.91-10.4,36.89h0s0,0,0,0h0c-1.43,1.87-4.15,2.52-6.53,1.41-2.73-1.27-4-4.36-2.82-6.89.28-.61.67-1.12,1.14-1.53,0,0,.04-.02.12-.09.03-.03.06-.04.1-.08.16-.14.31-.25.5-.35,0-.01.01-.02.02-.02h0s-.74.53-.74.53Z"/>
    <path class="st2" d="M845.15,582.08s.03,0,.08-.01c.08-.01.22-.03.4-.06,0,0,.01,0,.02,0,2.28-.42,11.92-2.59,16.05-9.94,0,0-3.3,11.83-14.26,15.49h0s0,0,0,0h0c-1.16.56-2.66.2-3.55-.93-1.02-1.3-.88-3.13.33-4.08.29-.23.6-.38.94-.47,0,0,.03,0,.08-.01.02,0,.04,0,.07-.01.11-.03.22-.04.33-.05,0,0,.01,0,.02,0h0s-.5.08-.5.08Z"/>
    <path class="st2" d="M712.55,386.3l-.3-1.55c24.64-4.73,42.64-26.38,42.81-51.5h1.58c-.17,25.88-18.71,48.18-44.09,53.05Z"/>
    <path class="st2" d="M715.52,391.1l-.35-1.54c15.12-3.48,28.53-13.07,36.8-26.29,1.47-2.34,2.8-4.86,3.97-7.53.87-1.97,1.64-4.01,2.29-6.12.86-2.66,1.52-5.5,1.99-8.51.26-1.71.45-3.46.56-5.21l1.58.1c-.11,1.79-.31,3.59-.58,5.33-.48,3.12-1.16,6.03-2.02,8.69-.68,2.24-1.47,4.34-2.35,6.31-1.22,2.79-2.59,5.38-4.08,7.75-8.5,13.61-22.27,23.45-37.8,27.03Z"/>
    <path class="st2" d="M774.5,345.14s5.74,15.89-6.89,16.17c0,0,3.76,15.98-11.76,15.29,0,0,.6,14.31-16.5,13.96,0,0-3.01,14.55-19.41,9.37l-4.29-9.04,6.24-1.8,9.76-4.44,9.25-6.5,9.65-10.48,7.69-14.58,3.14-13.56.28-3.48,7.92,5.05,4.92,4.05Z"/>
    <path class="st2" d="M913.1,535.32c-1.07-2.01-2.09-3.74-3.13-5.29-2.3-3.39-4.77-5.94-7.77-8.01-.98-.68-2.09-1.33-3.27-1.94-1.29-.67-2.7-1.29-4.44-1.96-3.13-1.19-6.57-2.15-10.85-3.02-1.68-.36-3.35-.66-5.03-.96-1.61-.29-3.2-.55-4.79-.8-3.31-.55-6.65-1.08-9.99-1.61l-10.77-1.73c-3.52-.57-7.04-1.19-10.48-1.83-4.29-.81-7.74-1.51-10.87-2.23-4.45-1.02-8.34-2.01-11.89-3.05-3.5-1-6.68-2.02-9.72-3.13-5.36-1.93-10.45-4.15-15.15-6.61-1.96-1.02-3.69-1.99-5.29-2.97-1.79-1.06-3.62-2.24-5.43-3.48-3.49-2.41-6.67-5.02-9.45-7.74-1.88-1.82-3.64-3.77-5.23-5.81-2.88-3.64-5.2-7.53-6.88-11.56-.56-1.33-.98-2.48-1.32-3.61-.24-.67-.46-1.42-.64-2.19-.08-.22-.17-.52-.23-.85-2.81-11.33-1.14-24.25,4.84-37.32,1.16-2.5,2.46-5.01,3.89-7.46,2-3.46,4.37-6.97,7.04-10.45l.13-.17c1.67-2.14,3.25-4.02,4.85-5.76,2.45-2.74,5.07-5.35,7.79-7.75l.13-.11c1.55-1.39,3.22-2.77,4.92-4.08l.96,1.25c-1.68,1.29-3.31,2.64-4.85,4.03l-.13.11c-2.65,2.35-5.23,4.91-7.65,7.61-1.57,1.72-3.13,3.57-4.77,5.67l-.13.17c-2.63,3.42-4.96,6.88-6.93,10.28-1.4,2.41-2.69,4.87-3.82,7.32-5.83,12.74-7.46,25.29-4.74,36.31.06.28.12.51.21.74.19.8.4,1.49.63,2.15.34,1.11.74,2.21,1.27,3.49,1.63,3.9,3.88,7.66,6.67,11.19,1.55,1.98,3.27,3.89,5.09,5.66,2.72,2.66,5.83,5.21,9.24,7.57,1.77,1.22,3.57,2.37,5.35,3.43,1.58.96,3.28,1.92,5.2,2.92,4.63,2.43,9.67,4.62,14.96,6.53,3,1.1,6.14,2.11,9.61,3.1,3.53,1.03,7.39,2.02,11.81,3.03,3.11.71,6.55,1.41,10.81,2.22,3.42.64,6.94,1.25,10.44,1.82l10.76,1.73c3.34.53,6.69,1.06,9.99,1.62,1.59.25,3.19.51,4.79.8,1.72.31,3.41.61,5.1.97,4.35.89,7.88,1.87,11.09,3.09,1.8.69,3.27,1.34,4.6,2.03,1.24.64,2.4,1.33,3.44,2.04,3.17,2.19,5.77,4.86,8.18,8.43,1.07,1.6,2.12,3.37,3.21,5.43l-1.39.74Z"/>
    <path class="st2" d="M906.54,517.05c-1.01-1.54-2.61-2.98-4.77-4.28-1.95-1.21-4.35-2.34-7.15-3.37-10.09-3.72-22.46-5.18-22.58-5.2-4.37-.76-8.86-1.47-13.2-2.16-24.01-3.8-48.83-7.74-69.23-21.81-8.95-6.19-15.26-13.53-18.77-21.82-9.68-22.99,5.52-51.57,25.54-67.92l.5.61c-19.79,16.17-34.84,44.38-25.31,67,3.45,8.15,9.67,15.37,18.49,21.47,20.25,13.97,44.98,17.89,68.9,21.68,4.35.69,8.84,1.4,13.19,2.16.1.01,12.56,1.49,22.74,5.24,2.85,1.04,5.3,2.2,7.29,3.43,2.26,1.36,3.95,2.89,5.02,4.52l-.66.43Z"/>
    <path class="st2" d="M897.66,501.64h-.14l-.13-.08c-7.98-6.2-27.28-8.16-27.48-8.18-3.82-.6-7.74-1.16-11.53-1.69-20.81-2.95-42.32-5.99-60.01-17.91-7.77-5.26-13.25-11.55-16.28-18.7-8.25-19.48,4.08-41.75,17.15-54.89l.56.56c-12.9,12.97-25.09,34.9-16.99,54.02,2.97,7.01,8.35,13.19,16,18.36,17.54,11.81,38.96,14.85,59.68,17.78,3.79.54,7.72,1.09,11.52,1.69.78.08,19.7,2,27.86,8.34l-.23.3v.41Z"/>
    <path class="st2" d="M658.69,351.66s-11.68-1.87-22.34-3.54l.18-1.57c2.62.2,5.38.33,8.19.37,2.59.04,5.31.02,8.09-.07,2.53-.08,5.14-.22,7.76-.4,2.31-.16,4.73-.38,7.2-.63,2.14-.23,4.28-.48,6.41-.76,1.8-.24,3.6-.5,5.4-.78,1.02-.16,2.04-.33,3.06-.5l1.17-.2c2.38-.4,4.62-1.22,6.7-2.46,1.2-.72,2.42-1.49,3.73-2.36l.55.59.42.67c-1.42.95-2.66,1.74-3.89,2.47-2.24,1.33-4.67,2.23-7.21,2.65l-1.2.2c-1.02.17-2.05.35-3.08.51-1.81.28-3.62.54-5.43.78-2.15.28-4.3.54-6.46.76-2.48.26-4.92.47-7.25.64-2.64.19-5.28.33-7.82.41-1.31.04-2.6.07-3.87.08,5.7.9,9.95,1.58,9.95,1.58l-.25,1.56Z"/>
    <path class="st2" d="M743.76,329.58c-1.23-.27-2.51-.49-3.78-.66h-.08c-1.44-.21-2.89-.36-4.35-.46h-.04c-1.5-.11-3.02-.17-4.54-.17s-3.15.06-4.71.17c-.34.02-.7.06-1.04.1-5.79-3.25-25.79-15.46-28.44-30.19,0,0,5.03,7.59,16.52,9.19h.02c-8.83-15.76-7.42-25.31-7.42-25.31,8.01,23.07,32.26,42.97,37.86,47.34Z"/>
    <path class="st2" d="M870.94,442.16c-7.5,0-14.74-.67-21.6-2.01-7.86-1.54-17.82-4.18-25.04-11.04l-2.5-2.37,3.28,1.04c2.31.74,4.89,1.2,7.68,1.37,2.84.18,5.91.06,9.11-.35,2.33-.28,4.89-.75,7.61-1.41,29.39-7.05,52.65-26.65,67-41.86,6.52-6.92,12.42-14.38,17.52-22.19.48-.73.95-1.46,1.41-2.2.83-1.33,2.44-4.04,2.44-4.05l.28-.48.54.1s3.21.61,3.56.68c1.24.25,2.47.51,3.7.78,2.4.53,4.88,1.13,7.37,1.77,9.76,2.54,19.28,5.66,28.29,9.29l2.63,1.07c.88.36,1.76.72,2.63,1.08.87.36,1.75.73,2.62,1.11.87.38,1.74.77,2.61,1.16.11.03.29.12.47.21l4.15,2.05-.44.71c-.09.15-2.24,3.66-3.42,5.42-13.13,19.74-33.49,35.93-58.88,46.82-16.85,7.22-34.77,11.56-53.28,12.91-.62.04-1.24.09-1.86.12-2.66.16-5.29.24-7.89.24ZM827.96,430.14c6.63,5,14.94,7.14,21.68,8.46,9.1,1.78,18.88,2.36,29.09,1.74.61-.04,1.22-.08,1.84-.12,18.33-1.34,36.09-5.64,52.77-12.79,25.11-10.76,45.23-26.75,58.19-46.24.84-1.26,2.22-3.49,2.93-4.64l-2.63-1.26c-.11-.06-.22-.11-.34-.15-.93-.42-1.8-.8-2.66-1.18-.86-.37-1.73-.74-2.6-1.1-.87-.37-1.75-.72-2.62-1.08l-2.63-1.06c-8.94-3.61-18.4-6.71-28.1-9.23-2.47-.64-4.92-1.23-7.31-1.76-1.22-.27-2.44-.53-3.67-.78-.25-.05-2.07-.39-3-.57-.5.84-1.55,2.61-2.18,3.6-.47.75-.94,1.49-1.42,2.22-5.15,7.89-11.1,15.43-17.69,22.41-14.49,15.36-38.01,35.17-67.78,42.31-2.78.66-5.4,1.15-7.78,1.44-3.3.42-6.46.54-9.41.36-1.64-.1-3.21-.3-4.71-.59Z"/>
    <path class="st2" d="M758.59,404.49c-.11-.08-.25-.15-.38-.23-.57-.32-1.08-.66-1.54-1.03.63.42,1.27.84,1.92,1.25Z"/>
    <path class="st2" d="M746.48,495.26l.28.34c-.09-.11-.21-.23-.3-.34-.44-.47-.84-.95-1.21-1.42-.21-.23-.42-.51-.61-.76-.08-.1-.15-.21-.23-.32.08.1.17.21.25.3.19.27.4.53.61.78.38.47.78.95,1.21,1.42Z"/>
    <path class="st2" d="M899.67,546.03c-.13-.1-.25-.21-.38-.3-.21-.17-.42-.36-.63-.55.21.17.44.34.65.53.11.1.25.21.36.32Z"/>
    <path class="st2" d="M917.44,551.56h-.23c-3.93-.09-8.05,3.78-8.05,3.78l-3.51-3.97s2.15-9.51-1.12-10.75c-3.38-1.29-6.63,1.54-7.96,2.92-.61-.49-1.23-.95-1.86-1.41-.51-.34-1.03-.72-1.54-1.1-.17-.13-.36-.27-.55-.4-.21-.15-.4-.28-.61-.44.21.13.42.27.63.42.19.13.38.27.55.4.87-4.78.68-9.38-2.28-10.6-2.94-1.22-6.3,1.56-8.37,3.74-1.06-.63-2.16-1.21-3.27-1.77-.32-.17-.65-.3-.97-.46-.99-.49-3.19-.89-3.19-.89,0,0,1.96-11.56-.97-11.39-3.53.19-6.66,5.26-8.13,8.07-1.2-.23-2.37-.44-3.51-.66-.13-.02-.27-.06-.4-.08-.95-.19-1.9-.36-2.83-.53,0-.04.02-.08.02-.11.8-6.4-.84-9.76-4.84-9.34-3.63.4-6.85,4.84-8.49,7.5-2.98-.3-5.85-.46-8.64-.4h-.1c-.63,0-1.25.02-1.88.04,1.78-4.73,2.26-8.91-1.08-9.74-6.65-1.65-11.2,7.75-12.84,11.81.17,0,.32-.02.49-.04-.15.02-.32.04-.49.06-1.31.15-2.94.25-4.94.28h-.36c-.66.02-1.31.02-1.96.02h-.36c-1.58,0-3.02-.04-4.37-.13-1.08-4.65-3.53-9.84-8.62-10.41-6.04-.68-11.92,3.68-14.7,6.09-1.25-.4-2.68-.91-4.31-1.58-.61-.25-1.23-.49-1.84-.74-.08-.04-.15-.06-.21-.1-.57-.25-1.12-.47-1.67-.72-.27-.13-.53-.27-.8-.38-.28-.13-.57-.27-.84-.4-1.84-.93-3.06-1.71-3.87-2.37,2.07-4.96,3.95-12.21-2.3-13.04-5.73-.78-10.27,1.14-13.01,2.79-3.17-2.51-6-5.35-8.11-7.63-.61-.53-1.2-1.06-1.77-1.63,5.43-5.37,7.14-11.75,2.49-14.66-4.18-2.64-9.51-.49-12.06.85-.68-1.12-1.37-2.3-2.03-3.47-.04-.04-.08-.09-.1-.15-1.27-2.22-2.47-4.52-3.49-6.66-.08-.13-.15-.29-.21-.42-.15-.3-.29-.61-.42-.89.02-.02.06-.02.08-.04,8.18-3.19,11.32-9.59,7.98-13.73-2.58-3.17-8.85-2.87-12.47-2.37-.02-.02-.02-.04-.02-.06-.15-.68-.28-1.39-.42-2.09-.02-.13-.06-.25-.08-.38-.47-2.56-.85-5.09-1.08-7.5-.06-.8-.11-1.58-.13-2.35,13.12.55,16.27-6.72,11.35-9.78-3.46-2.15-8.28-3.08-11.26-3.44-.06-3.25-.17-5.92-.21-7.54-.02-.44-.08-.95-.15-1.59,0-.08-.02-.19-.04-.27-.1-.55-.19-1.16-.32-1.82,6.59-1.33,19.69-6.28,12.49-9.1-5.85-2.26-12.04-1.03-14.54-.34-.42-1.77-.84-3.36-1.14-4.52,4.96,1.86,15.51,3.97,20.2-9.02,0,0,16.12,0,16.84-14.92,0,0,13.61.84,12.65-14.81,0,0,9.63-1.5,9.19-13.82v-.15l.4.61.08.11s1.58,2.37,3.21,4.92c-.59.61-7.41,7.92-.27,17.34,4.77,6.28,7.03,8.98,8.01,10.1l-1.65,1.59c-.24-.25-.49-.5-.73-.74-.62-.62-1.23-1.25-1.85-1.87-.82-.83-1.63-1.65-2.45-2.48-.84-.85-1.68-1.71-2.52-2.56-.62-.63-1.24-1.25-1.85-1.88-.31-.32-.62-.63-.94-.95-.29-.29-.56-.62-.89-.87-.28-.22-.59-.41-.9-.58-.92-.5-1.94-.81-2.99-.81-1.5,0-2.91.62-4.08,1.54-.1.08-.2.15-.29.23-.49.42-.87.84-1.21,1.31-7.67,9.36,9.09,21.68,9.09,21.68l.1-.04-1.71,2.05-.1.11-.13.15c-4.2-4.5-8.85-7.67-12.66-9.78-.02-.02-.04-.02-.06-.02-.76-.3-6.04-2.51-8.73,1.08-2.58,3.42-3.74,7.8.89,11.49.11.11.25.17.36.25.46.36.97.7,1.54,1.04.13.08.27.13.38.21.02.04.04.04.06.04,5.45,3.44,11.24,6.06,11.24,6.06l-.23.46s-.51.97-.55.95c-.97-.59-17.81-10.46-26.15-9.15-8.6,1.35-2.07,8.68,23.07,15.13l-.76,1.48c-9.02-3.06-18.68-4.01-22.73-3.99-4.04.02-14.94,1.67-11.87,10.44,2.91,8.26,29.15,8.45,30.13,8.45l-.53,3.68-.15.97s-29.41-2.11-27.57,8.91c1.82,10.92,27.28,4.8,28.03,4.59-.3-1.27-.53-2.54-.68-3.8.38,2.18.82,4.2,1.35,6.09.06.3.13.55.23.84.06.27.13.53.23.8.08.27.17.53.25.8.06.17.11.36.17.53-1.01.08-27.63,2.13-21.53,15.36,5.71,12.4,26.37,1.39,29.58-.44,1.58,2.01,3.3,3.91,5.16,5.73-2.53.55-18.28,4.16-20.68,9.95-1.5,3.61.04,7.4,3.04,9.68,2.53,1.92,5.87,1.9,8.91,1.67,3.44-.27,6.8-1.16,9.97-2.47,4.78-1.96,9.15-4.8,13.4-7.79.53.3,1.04.61,1.58.91.57.3,1.14.63,1.71.97.66.38,1.35.76,2.01,1.14-4.12,2.15-8.03,4.75-11.56,7.77-2.66,2.28-5.77,5.43-6.28,9.06-.46,3.17,1.84,5.45,4.48,6.78,10.23,5.2,25.67-13.48,28.48-17.07,1.58.59,3.17,1.14,4.8,1.65,1.59.53,3.21,1.03,4.84,1.48-4.61,3.49-15.51,19.35-6.17,19.94,8.94.55,16.67-14.16,18.02-16.92,1.8.42,3.61.8,5.43,1.16,1.8.38,3.61.74,5.41,1.08-1.25,2.3-6.27,12.08-2.37,14.45,4.35,2.64,11.3-4.75,12.84-12.63l10.77,1.71c-1.69,2.54-6.82,10.96-1.31,12.47,5.66,1.56,10.2-8.26,11.3-10.84.8.11,1.59.25,2.39.38.8.13,1.59.27,2.41.4,1.69.3,3.36.63,5.05.97-2.16,2.73-8.53,11.6-3.08,15,5.6,3.51,12.3-8.51,14.07-11.94,1.54.59,3.04,1.25,4.5,2.01.61.3,1.2.63,1.75.95.57.34,1.1.68,1.61,1.03-2.01,1.97-10.1,10.58-4.86,15.91,5.13,5.22,11.26-4.82,12.84-7.67,1.1,1.65,2.15,3.44,3.17,5.34,0,0,.27.84.38,1.25.23.85.46,1.71.66,2.6.04.11.06.23.08.36-1.27.49-7.65,3.15-6.47,6.78,1.18,3.61,7.01,1.9,8.18,1.5.11-.04.19-.08.19-.08-.36-2.24-.78-4.4-1.27-6.61.66,2.87,1.42,6.72,1.92,10.8Z"/>
    <path class="st2" d="M821.44,526.21c.17,0,.32-.02.49-.04-.15.02-.32.04-.49.06v-.02Z"/>
    <path class="st2" d="M835.34,524.14c-.06.19-.13.38-.21.57-1.84.1-3.66.27-5.47.49-.17.04-.3.04-.46.08-.42.06-.85.11-1.27.17-.21.04-.42.08-.63.08-.46.08-.93.13-1.39.21-.29.04-.57.08-.87.1-.93.13-1.88.23-2.83.3,1.84-.23,2.96-.55,3.66-.87.06,0,.11,0,.15-.02,1.16-.13,2.26-.27,3.27-.44.17-.06.3-.08.46-.1,1.84-.29,3.7-.49,5.58-.57Z"/>
    <path class="st2" d="M893.2,541.02l-.02.02c-.17-.13-.36-.27-.55-.4-.21-.15-.4-.28-.61-.44.21.13.42.27.63.42.19.13.38.27.55.4Z"/>
    <path class="st2" d="M899.31,545.71c.11.1.25.21.36.32-.13-.1-.25-.21-.38-.3-.21-.17-.42-.36-.63-.55.21.17.44.34.65.53Z"/>
    <g>
      <path class="st2" d="M774.93,439.02c-3.17,0-5.76-2.58-5.76-5.76s2.58-5.76,5.76-5.76,5.76,2.58,5.76,5.76-2.58,5.76-5.76,5.76ZM774.93,428.29c-2.74,0-4.97,2.23-4.97,4.97s2.23,4.97,4.97,4.97,4.97-2.23,4.97-4.97-2.23-4.97-4.97-4.97Z"/>
      <circle class="st2" cx="774.93" cy="433.26" r="2.58"/>
    </g>
    <g>
      <path class="st2" d="M774.12,449.74c-3.17,0-5.76-2.58-5.76-5.76s2.58-5.76,5.76-5.76,5.76,2.58,5.76,5.76-2.58,5.76-5.76,5.76ZM774.12,439.02c-2.74,0-4.97,2.23-4.97,4.97s2.23,4.97,4.97,4.97,4.97-2.23,4.97-4.97-2.23-4.97-4.97-4.97Z"/>
      <circle class="st2" cx="774.12" cy="443.98" r="2.58"/>
    </g>
    <g>
      <path class="st2" d="M776.02,460.46c-3.17,0-5.76-2.58-5.76-5.76s2.58-5.76,5.76-5.76,5.76,2.58,5.76,5.76-2.58,5.76-5.76,5.76ZM776.02,449.74c-2.74,0-4.97,2.23-4.97,4.97s2.23,4.97,4.97,4.97,4.97-2.23,4.97-4.97-2.23-4.97-4.97-4.97Z"/>
      <circle class="st2" cx="776.02" cy="454.71" r="2.58"/>
    </g>
    <g>
      <path class="st2" d="M781.38,469.84c-3.17,0-5.76-2.58-5.76-5.76s2.58-5.76,5.76-5.76,5.76,2.58,5.76,5.76-2.58,5.76-5.76,5.76ZM781.38,459.11c-2.74,0-4.97,2.23-4.97,4.97s2.23,4.97,4.97,4.97,4.97-2.23,4.97-4.97-2.23-4.97-4.97-4.97Z"/>
      <circle class="st2" cx="781.38" cy="464.08" r="2.58"/>
    </g>
    <g>
      <path class="st2" d="M788.52,477.96c-3.12,0-5.65-2.53-5.65-5.65s2.53-5.65,5.65-5.65,5.65,2.53,5.65,5.65-2.53,5.65-5.65,5.65ZM788.52,467.45c-2.68,0-4.86,2.18-4.86,4.86s2.18,4.86,4.86,4.86,4.86-2.18,4.86-4.86-2.18-4.86-4.86-4.86Z"/>
      <circle class="st2" cx="788.52" cy="472.31" r="2.52"/>
    </g>
    <g>
      <path class="st2" d="M796.83,483.78c-2.95,0-5.36-2.4-5.36-5.36s2.4-5.36,5.36-5.36,5.36,2.4,5.36,5.36-2.4,5.36-5.36,5.36ZM796.83,473.86c-2.52,0-4.57,2.05-4.57,4.57s2.05,4.57,4.57,4.57,4.57-2.05,4.57-4.57-2.05-4.57-4.57-4.57Z"/>
      <circle class="st2" cx="796.83" cy="478.43" r="2.38"/>
    </g>
    <g>
      <path class="st2" d="M805.76,488.57c-2.92,0-5.3-2.38-5.3-5.3s2.38-5.3,5.3-5.3,5.3,2.38,5.3,5.3-2.38,5.3-5.3,5.3ZM805.76,478.77c-2.49,0-4.51,2.02-4.51,4.51s2.02,4.51,4.51,4.51,4.51-2.02,4.51-4.51-2.02-4.51-4.51-4.51Z"/>
      <circle class="st2" cx="805.76" cy="483.28" r="2.35"/>
    </g>
    <g>
      <path class="st2" d="M815,492.07c-2.84,0-5.15-2.31-5.15-5.15s2.31-5.15,5.15-5.15,5.15,2.31,5.15,5.15-2.31,5.15-5.15,5.15ZM815,482.56c-2.4,0-4.36,1.96-4.36,4.36s1.96,4.36,4.36,4.36,4.36-1.96,4.36-4.36-1.96-4.36-4.36-4.36Z"/>
      <circle class="st2" cx="814.99" cy="486.92" r="2.28"/>
    </g>
    <g>
      <path class="st2" d="M823.93,494.8c-2.77,0-5.03-2.26-5.03-5.03s2.26-5.03,5.03-5.03,5.03,2.26,5.03,5.03-2.26,5.03-5.03,5.03ZM823.93,485.53c-2.34,0-4.24,1.9-4.24,4.24s1.9,4.24,4.24,4.24,4.24-1.9,4.24-4.24-1.9-4.24-4.24-4.24Z"/>
      <circle class="st2" cx="823.93" cy="489.77" r="2.22"/>
    </g>
    <g>
      <path class="st2" d="M833,497.2c-2.77,0-5.03-2.26-5.03-5.03s2.26-5.03,5.03-5.03,5.03,2.26,5.03,5.03-2.26,5.03-5.03,5.03ZM833,487.94c-2.34,0-4.24,1.9-4.24,4.24s1.9,4.24,4.24,4.24,4.24-1.9,4.24-4.24-1.9-4.24-4.24-4.24Z"/>
      <circle class="st2" cx="833" cy="492.17" r="2.22"/>
    </g>
    <g>
      <path class="st2" d="M842.15,498.78c-2.77,0-5.03-2.26-5.03-5.03s2.26-5.03,5.03-5.03,5.03,2.26,5.03,5.03-2.26,5.03-5.03,5.03ZM842.15,489.52c-2.34,0-4.24,1.9-4.24,4.24s1.9,4.24,4.24,4.24,4.24-1.9,4.24-4.24-1.9-4.24-4.24-4.24Z"/>
      <circle class="st2" cx="842.15" cy="493.75" r="2.22"/>
    </g>
    <g>
      <path class="st2" d="M851.72,500.84c-2.94,0-5.33-2.39-5.33-5.33s2.39-5.33,5.33-5.33,5.33,2.39,5.33,5.33-2.39,5.33-5.33,5.33ZM851.72,490.97c-2.5,0-4.54,2.04-4.54,4.54s2.04,4.54,4.54,4.54,4.54-2.04,4.54-4.54-2.04-4.54-4.54-4.54Z"/>
      <circle class="st2" cx="851.72" cy="495.51" r="2.37"/>
    </g>
    <g>
      <path class="st2" d="M861.78,502.25c-2.94,0-5.33-2.39-5.33-5.33s2.39-5.33,5.33-5.33,5.33,2.39,5.33,5.33-2.39,5.33-5.33,5.33ZM861.78,492.37c-2.51,0-4.54,2.04-4.54,4.54s2.04,4.54,4.54,4.54,4.54-2.04,4.54-4.54-2.04-4.54-4.54-4.54Z"/>
      <circle class="st2" cx="861.78" cy="496.92" r="2.37"/>
    </g>
    <g>
      <path class="st2" d="M871.92,504.12c-3.09,0-5.6-2.51-5.6-5.6s2.51-5.6,5.6-5.6,5.6,2.51,5.6,5.6-2.51,5.6-5.6,5.6ZM871.92,493.72c-2.65,0-4.81,2.16-4.81,4.81s2.16,4.81,4.81,4.81,4.81-2.16,4.81-4.81-2.16-4.81-4.81-4.81Z"/>
      <circle class="st2" cx="871.92" cy="498.53" r="2.5"/>
    </g>
    <g>
      <path class="st2" d="M882.04,505.77c-3.01,0-5.46-2.45-5.46-5.46s2.45-5.46,5.46-5.46,5.46,2.45,5.46,5.46-2.45,5.46-5.46,5.46ZM882.04,495.64c-2.58,0-4.67,2.09-4.67,4.67s2.09,4.67,4.67,4.67,4.67-2.09,4.67-4.67-2.09-4.67-4.67-4.67Z"/>
      <circle class="st2" cx="882.04" cy="500.31" r="2.43"/>
    </g>
    <g>
      <path class="st2" d="M891.49,507.89c-2.73,0-4.94-2.22-4.94-4.94s2.22-4.95,4.94-4.95,4.95,2.22,4.95,4.95-2.22,4.94-4.95,4.94ZM891.49,498.79c-2.29,0-4.15,1.87-4.15,4.16s1.86,4.15,4.15,4.15,4.16-1.86,4.16-4.15-1.87-4.16-4.16-4.16Z"/>
      <circle class="st2" cx="891.49" cy="502.95" r="2.19"/>
    </g>
    <g>
      <path class="st2" d="M901.96,512.88l-.2-.12c-1.93-1.2-4.34-2.33-7.14-3.36l-.22-.08-.03-.24c-.04-.3-.08-.62-.08-.96,0-2.68,2.02-4.96,4.69-5.29h.21l.18.18,1.02,1.58c.32.46.58.87.83,1.3.38.59.72,1.15,1.05,1.7.63,1.04,1.23,2.04,1.79,3.05l.12.21-.13.2c-.46.7-1.11,1.3-1.88,1.74l-.2.12ZM895.12,508.74c2.66.99,4.97,2.07,6.86,3.22.5-.32.94-.72,1.28-1.18-.52-.93-1.07-1.84-1.62-2.76-.35-.6-.69-1.15-1.03-1.68-.29-.48-.54-.89-.81-1.28-.04-.06-.09-.12-.12-.19l-.81-1.24c-2.16.36-3.78,2.26-3.78,4.48,0,.22.02.42.04.62Z"/>
      <path class="st2" d="M901.95,508.11c0,1.31-1.04,2.35-2.35,2.35s-2.35-1.04-2.35-2.35,1.04-2.37,2.35-2.37c.49,0,.95.15,1.33.4.34.53.68,1.08,1.01,1.63.02.11.02.23.02.34Z"/>
    </g>
    <g>
      <path class="st2" d="M778.19,428.7c-3.13,0-5.67-2.54-5.67-5.67s2.54-5.67,5.67-5.67,5.67,2.55,5.67,5.67-2.55,5.67-5.67,5.67ZM778.19,418.14c-2.69,0-4.88,2.19-4.88,4.88s2.19,4.88,4.88,4.88,4.88-2.19,4.88-4.88-2.19-4.88-4.88-4.88Z"/>
      <circle class="st2" cx="778.19" cy="423.02" r="2.54"/>
    </g>
    <g>
      <path class="st2" d="M782.82,419.12c-2.94,0-5.33-2.39-5.33-5.32s2.39-5.33,5.33-5.33,5.33,2.39,5.33,5.33-2.39,5.32-5.33,5.32ZM782.82,409.27c-2.5,0-4.54,2.03-4.54,4.54s2.03,4.53,4.54,4.53,4.54-2.03,4.54-4.53-2.03-4.54-4.54-4.54Z"/>
      <circle class="st2" cx="782.82" cy="413.8" r="2.37"/>
    </g>
    <g>
      <path class="st2" d="M788.51,410.9c-2.87,0-5.2-2.33-5.2-5.2s2.33-5.2,5.2-5.2,5.2,2.33,5.2,5.2-2.33,5.2-5.2,5.2ZM788.51,401.29c-2.43,0-4.41,1.98-4.41,4.41s1.98,4.41,4.41,4.41,4.41-1.98,4.41-4.41-1.98-4.41-4.41-4.41Z"/>
      <circle class="st2" cx="788.51" cy="405.7" r="2.31"/>
    </g>
    <g>
      <path class="st2" d="M794.73,403.57c-2.74,0-4.97-2.23-4.97-4.97s2.23-4.99,4.97-4.99c1.26,0,2.47.48,3.4,1.34l.08.08.03.11c.38,1.38.83,2.82,1.34,4.29l.04.1-.02.11c-.49,2.32-2.49,3.94-4.87,3.94ZM794.73,394.39c-2.31,0-4.18,1.88-4.18,4.2s1.88,4.18,4.18,4.18c1.96,0,3.62-1.31,4.07-3.21-.49-1.41-.92-2.79-1.29-4.12-.77-.68-1.75-1.06-2.78-1.06Z"/>
      <circle class="st2" cx="794.73" cy="398.59" r="2.2"/>
    </g>
    <path class="st2" d="M951.74,294.85c.59-4.41.91-8.9.91-13.44.03,5.23-.31,10.41-1,15.51-.46,3.5-1.09,6.97-1.86,10.41-3.05,13.81-8.41,27.01-15.29,39.19-1.39,2.47-2.85,4.89-4.36,7.27-1.99,3.15-4.09,6.21-6.27,9.18-7.41,10.19-15.79,19.38-24.54,27.29-3.02,2.74-6.09,5.31-9.17,7.71-9.64,7.58-19.5,13.53-28.84,17.5h-.02c-3.38,1.5-6.69,2.68-9.91,3.59-24.86,7.09-43.34-2.44-39.08-36.69.08-.61.15-1.19.23-1.78.49-3.38,1.13-6.67,1.91-9.85.05-.2.11-.43.18-.65.82-3.26,1.81-6.45,2.92-9.49h.02c.26-.72.53-1.44.81-2.14,1.15-2.88,2.4-5.67,3.8-8.32,9.33-18.09,23.86-31.84,39.88-42.23,3.35-2.17,6.76-4.21,10.21-6.07.41-.23.79-.45,1.18-.64,7.41-3.99,14.95-7.35,22.3-10.18,19.79-7.61,38.07-11.34,48.3-12.98-9.33,1.56-25.27,4.9-42.48,11.51-6.6,2.54-13.36,5.55-20.01,9.13-.35.2-.7.38-1.07.59-3.11,1.68-6.16,3.49-9.17,5.45-14.39,9.32-27.42,21.65-35.8,37.9-1.25,2.41-2.38,4.88-3.41,7.47-.26.62-.5,1.27-.72,1.93h-.02c-1.01,2.73-1.9,5.58-2.62,8.51-.07.21-.14.39-.16.59-.71,2.83-1.28,5.8-1.72,8.83-.09.53-.14,1.05-.22,1.6-3.82,30.73,12.78,39.29,35.09,32.92,2.88-.8,5.86-1.87,8.89-3.2h.02c8.38-3.57,17.24-8.92,25.88-15.74,2.78-2.14,5.52-4.46,8.24-6.91,7.86-7.11,15.37-15.34,22.03-24.48,1.96-2.67,3.84-5.41,5.62-8.25,1.37-2.13,2.68-4.3,3.93-6.52,6.18-10.94,10.98-22.79,13.72-35.18.69-3.09,1.26-6.2,1.66-9.35Z"/>
    <path class="st2" d="M952.45,279.74c.07-.47.1-.95.13-1.43,0,.96-.08,1.91-.2,2.86-.09.75-.23,1.5-.4,2.25-.66,2.97-1.8,5.81-3.29,8.43-.31.54-.62,1.06-.95,1.56-.42.69-.88,1.34-1.34,1.99-1.61,2.19-3.41,4.16-5.29,5.87-.64.6-1.31,1.15-1.98,1.67-2.07,1.63-4.19,2.91-6.2,3.78-.72.31-1.45.57-2.14.76-5.36,1.54-9.34-.52-8.42-7.9.01-.12.03-.24.06-.39.1-.71.23-1.42.41-2.11.02-.04.02-.08.03-.14.18-.69.4-1.39.63-2.05.05-.14.12-.31.17-.45.24-.62.53-1.22.83-1.8,2-3.9,5.13-6.86,8.58-9.1.71-.47,1.45-.89,2.21-1.3.08-.04.16-.09.25-.14,1.59-.86,3.21-1.58,4.8-2.19,4.02-1.55,7.74-2.35,10-2.75l.02-.02h.06s.04-.03.06-.03h.08s.1-.01.14-.03h.12s.04.01.04,0h.02l.02-.02.28-.02s.02.02.04,0h.02s0-.02,0-.02h.04s0,.02,0,.02h.02s.02-.02.02-.02h.22s.02-.01.04-.02h.08c-1.37.2-4.17.74-7.22,1.91-1.06.39-2.13.88-3.2,1.44-.06.04-.12.07-.17.09-.5.27-.99.56-1.47.87-2.3,1.49-4.38,3.46-5.72,6.05-.2.39-.37.79-.55,1.2l-.1.31c-.17.45-.31.9-.44,1.37,0,.02-.02.06-.01.08-.11.47-.2.94-.27,1.42-.01.08-.03.16-.04.26-.6,4.91,2.06,6.27,5.6,5.25.47-.13.94-.3,1.43-.51,1.35-.57,2.76-1.42,4.14-2.5.44-.35.88-.72,1.32-1.11,1.25-1.14,2.45-2.46,3.53-3.91.31-.44.61-.88.9-1.32.22-.36.42-.69.62-1.04.99-1.77,1.76-3.64,2.2-5.63.11-.49.2-1,.27-1.48Z"/>
    <path class="st2" d="M952.45,279.74c.07-.47.1-.95.13-1.43,0,.96-.08,1.91-.2,2.86-.09.75-.23,1.5-.4,2.25-.66,2.97-1.8,5.81-3.29,8.43-.31.54-.62,1.06-.95,1.56-.42.69-.88,1.34-1.34,1.99-1.61,2.19-3.41,4.16-5.29,5.87-.64.6-1.31,1.15-1.98,1.67-2.07,1.63-4.19,2.91-6.2,3.78-.72.31-1.45.57-2.14.76-5.36,1.54-9.34-.52-8.42-7.9.01-.12.03-.24.06-.39.1-.71.23-1.42.41-2.11.02-.04.02-.08.03-.14.18-.69.4-1.39.63-2.05.05-.14.12-.31.17-.45.24-.62.53-1.22.83-1.8,2-3.9,5.13-6.86,8.58-9.1.71-.47,1.45-.89,2.21-1.3.08-.04.16-.09.25-.14,1.59-.86,3.21-1.58,4.8-2.19,4.02-1.55,7.74-2.35,10-2.75l.02-.02h.06s.04-.03.06-.03h.08s.1-.01.14-.03h.12s.04.01.04,0h.02s.08,0,.08,0c.02.02.04.02.04,0h.04s0-.02,0-.02h.14s.02.01.04-.01h.02s.02-.02.02-.02h.02s0,.02,0,.02h.02s.02-.02.02-.02h.22s.02-.01.04-.02l.02-.02h.04s.12,0,.12,0h.04s.02,0,.04,0c-.04.02-.06.02-.1.03h-.08c-1.37.21-4.17.75-7.22,1.92-1.06.39-2.13.88-3.2,1.44-.06.04-.12.07-.17.09-.5.27-.99.56-1.47.87-2.3,1.49-4.38,3.46-5.72,6.05-.2.39-.37.79-.55,1.2l-.1.31c-.17.45-.31.9-.44,1.37,0,.02-.02.06-.01.08-.11.47-.2.94-.27,1.42-.01.08-.03.16-.04.26-.6,4.91,2.06,6.27,5.6,5.25.47-.13.94-.3,1.43-.51,1.35-.57,2.76-1.42,4.14-2.5.44-.35.88-.72,1.32-1.11,1.25-1.14,2.45-2.46,3.53-3.91.31-.44.61-.88.9-1.32.22-.36.42-.69.62-1.04.99-1.77,1.76-3.64,2.2-5.63.11-.49.2-1,.27-1.48Z"/>
    <path class="st2" d="M952.14,286.13c.3-2.29.48-4.58.47-6.93v.22c.02.1,0,.18.01.28,0,2.83-.19,5.65-.56,8.42-.28,1.98-.62,3.93-1.06,5.86-1.7,7.77-4.73,15.18-8.6,22.04-.78,1.39-1.59,2.75-2.45,4.08-1.11,1.77-2.29,3.49-3.53,5.18-4.16,5.72-8.87,10.88-13.79,15.34-1.71,1.53-3.43,2.98-5.17,4.33-5.43,4.27-10.96,7.6-16.22,9.86h-.02c-1.89.82-3.76,1.5-5.57,2.01-13.98,3.98-24.38-1.37-21.97-20.64.04-.34.08-.67.12-1.01.28-1.9.63-3.75,1.08-5.52.03-.12.07-.24.1-.37.47-1.83,1.02-3.63,1.65-5.34.15-.41.31-.82.47-1.21.64-1.62,1.35-3.17,2.14-4.69,5.24-10.18,13.41-17.91,22.41-23.75,1.89-1.22,3.8-2.36,5.75-3.41.23-.13.45-.25.68-.36,4.17-2.25,8.41-4.13,12.54-5.72,9.77-3.78,18.9-5.85,24.87-6.95.48-.07.91-.16,1.35-.22.04.02.06.02.08,0,.61-.12,1.21-.2,1.73-.29.1,0,.18-.01.26-.04h.06c.06,0,.12-.01.16-.03h.06c-4.61.74-13.39,2.45-22.93,6.12-3.39,1.31-6.88,2.86-10.32,4.72-.18.09-.35.18-.54.29-1.61.86-3.18,1.8-4.74,2.8-7.42,4.82-14.15,11.17-18.46,19.57-.65,1.22-1.23,2.5-1.77,3.84-.12.33-.24.66-.36,1h-.02c-.51,1.4-.96,2.87-1.35,4.38-.03.1-.07.22-.08.33-.37,1.45-.66,2.97-.88,4.55-.04.26-.07.55-.11.83-1.98,15.85,6.58,20.25,18.09,16.99,1.5-.43,3.03-.97,4.59-1.65,4.34-1.85,8.9-4.61,13.36-8.13,1.44-1.09,2.87-2.31,4.25-3.56,4.06-3.66,7.93-7.92,11.37-12.64,1.02-1.37,1.97-2.79,2.9-4.25.69-1.11,1.37-2.21,2.02-3.38,3.18-5.64,5.67-11.75,7.08-18.14.36-1.59.66-3.21.86-4.83Z"/>
    <path class="st2" d="M952.45,279.74c.07-.47.1-.95.13-1.43,0,.96-.08,1.91-.2,2.86-.09.75-.23,1.5-.4,2.25-.66,2.97-1.8,5.81-3.29,8.43-.31.54-.62,1.06-.95,1.56-.42.69-.88,1.34-1.34,1.99-1.61,2.19-3.41,4.16-5.29,5.87-.64.6-1.31,1.15-1.98,1.67-2.07,1.63-4.19,2.91-6.2,3.78-.72.31-1.45.57-2.14.76-5.36,1.54-9.34-.52-8.42-7.9.01-.12.03-.24.06-.39.1-.71.23-1.42.41-2.11.02-.04.02-.08.03-.14.18-.69.4-1.39.63-2.05.05-.14.12-.31.17-.45.24-.62.53-1.22.83-1.8,2-3.9,5.13-6.86,8.58-9.1.71-.47,1.45-.89,2.21-1.3.08-.04.16-.09.25-.14,1.59-.86,3.21-1.58,4.8-2.19,4.02-1.55,7.74-2.35,10-2.75-.2.03-.42.07-.66.1.06-.02.14-.03.2-.05h-.14c.06,0,.12,0,.18-.02h.12s.04,0,.06-.01c.02-.02.04-.02.06-.02h.16s.02-.01.04-.01h.06s.04-.03.06-.03h.08s.1-.01.14-.03h.12s.04.01.04,0h.02s.08,0,.08,0c.02.02.04.02.04,0h.04s0-.02,0-.02h.14s.02.01.04-.01h.02s0-.02,0-.02h.04s.02,0,.04,0h.22s.02-.01.04-.02v-.02s0,0,.02,0h.04s.12,0,.12,0h.04s.02,0,.04,0c-.04.02-.06.02-.1.03h-.08c-1.37.21-4.17.75-7.22,1.92-1.06.39-2.13.88-3.2,1.44-.06.04-.12.07-.17.09-.5.27-.99.56-1.47.87-2.3,1.49-4.38,3.46-5.72,6.05-.2.39-.37.79-.55,1.2l-.1.31c-.17.45-.31.9-.44,1.37,0,.02-.02.06-.01.08-.11.47-.2.94-.27,1.42-.01.08-.03.16-.04.26-.6,4.91,2.06,6.27,5.6,5.25.47-.13.94-.3,1.43-.51,1.35-.57,2.76-1.42,4.14-2.5.44-.35.88-.72,1.32-1.11,1.25-1.14,2.45-2.46,3.53-3.91.31-.44.61-.88.9-1.32.22-.36.42-.69.62-1.04.99-1.77,1.76-3.64,2.2-5.63.11-.49.2-1,.27-1.48Z"/>
    <path class="st2" d="M952.14,286.13c.3-2.29.48-4.58.47-6.93v.22c.02.1,0,.18.01.28,0,2.83-.19,5.65-.56,8.42-.28,1.98-.62,3.93-1.06,5.86-1.7,7.77-4.73,15.18-8.6,22.04-.78,1.39-1.59,2.75-2.45,4.08-1.11,1.77-2.29,3.49-3.53,5.18-4.16,5.72-8.87,10.88-13.79,15.34-1.71,1.53-3.43,2.98-5.17,4.33-5.43,4.27-10.96,7.6-16.22,9.86h-.02c-1.89.82-3.76,1.5-5.57,2.01-13.98,3.98-24.38-1.37-21.97-20.64.04-.34.08-.67.12-1.01.28-1.9.63-3.75,1.08-5.52.03-.12.07-.24.1-.37.47-1.83,1.02-3.63,1.65-5.34.15-.41.31-.82.47-1.21.64-1.62,1.35-3.17,2.14-4.69,5.24-10.18,13.41-17.91,22.41-23.75,1.89-1.22,3.8-2.36,5.75-3.41.23-.13.45-.25.68-.36,4.17-2.25,8.41-4.13,12.54-5.72,9.77-3.78,18.9-5.85,24.87-6.95.48-.07.91-.16,1.35-.22.04.02.06.02.08,0,.73-.13,1.41-.23,1.99-.32h.06c.06,0,.12-.01.16-.03h.06c-4.61.74-13.39,2.45-22.93,6.12-3.39,1.31-6.88,2.86-10.32,4.72-.18.09-.35.18-.54.29-1.61.86-3.18,1.8-4.74,2.8-7.42,4.82-14.15,11.17-18.46,19.57-.65,1.22-1.23,2.5-1.77,3.84-.12.33-.24.66-.36,1h-.02c-.51,1.4-.96,2.87-1.35,4.38-.03.1-.07.22-.08.33-.37,1.45-.66,2.97-.88,4.55-.04.26-.07.55-.11.83-1.98,15.85,6.58,20.25,18.09,16.99,1.5-.43,3.03-.97,4.59-1.65,4.34-1.85,8.9-4.61,13.36-8.13,1.44-1.09,2.87-2.31,4.25-3.56,4.06-3.66,7.93-7.92,11.37-12.64,1.02-1.37,1.97-2.79,2.9-4.25.69-1.11,1.37-2.21,2.02-3.38,3.18-5.64,5.67-11.75,7.08-18.14.36-1.59.66-3.21.86-4.83Z"/>
    <path class="st2" d="M952.45,279.74c.07-.47.1-.95.13-1.43,0,.96-.08,1.91-.2,2.86-.09.75-.23,1.5-.4,2.25-.66,2.97-1.8,5.81-3.29,8.43-.31.54-.62,1.06-.95,1.56-.42.69-.88,1.34-1.34,1.99-1.61,2.19-3.41,4.16-5.29,5.87-.64.6-1.31,1.15-1.98,1.67-2.07,1.63-4.19,2.91-6.2,3.78-.72.31-1.45.57-2.14.76-5.36,1.54-9.34-.52-8.42-7.9.01-.12.03-.24.06-.39.1-.71.23-1.42.41-2.11.02-.04.02-.08.03-.14.18-.69.4-1.39.63-2.05.05-.14.12-.31.17-.45.24-.62.53-1.22.83-1.8,2-3.9,5.13-6.86,8.58-9.1.71-.47,1.45-.89,2.21-1.3.08-.04.16-.09.25-.14,1.59-.86,3.21-1.58,4.8-2.19,4.02-1.55,7.74-2.35,10-2.75l.02-.02h.06s.04-.03.06-.03h.08s.1-.01.14-.03h.12s.04.01.04,0h.02s.08,0,.08,0c.02.02.04.02.04,0h.04s0-.02,0-.02h.14s.02.01.04-.01h.02s.02,0,.04,0h.02s.02-.02.02-.02h.22s.02-.01.04-.02h.08c-1.37.2-4.17.74-7.22,1.91-1.06.39-2.13.88-3.2,1.44-.06.04-.12.07-.17.09-.5.27-.99.56-1.47.87-2.3,1.49-4.38,3.46-5.72,6.05-.2.39-.37.79-.55,1.2l-.1.31c-.17.45-.31.9-.44,1.37,0,.02-.02.06-.01.08-.11.47-.2.94-.27,1.42-.01.08-.03.16-.04.26-.6,4.91,2.06,6.27,5.6,5.25.47-.13.94-.3,1.43-.51,1.35-.57,2.76-1.42,4.14-2.5.44-.35.88-.72,1.32-1.11,1.25-1.14,2.45-2.46,3.53-3.91.31-.44.61-.88.9-1.32.22-.36.42-.69.62-1.04.99-1.77,1.76-3.64,2.2-5.63.11-.49.2-1,.27-1.48Z"/>
    <path class="st2" d="M952.45,279.74c.07-.47.1-.95.13-1.43,0,.96-.08,1.91-.2,2.86-.09.75-.23,1.5-.4,2.25-.66,2.97-1.8,5.81-3.29,8.43-.31.54-.62,1.06-.95,1.56-.42.69-.88,1.34-1.34,1.99-1.61,2.19-3.41,4.16-5.29,5.87-.64.6-1.31,1.15-1.98,1.67-2.07,1.63-4.19,2.91-6.2,3.78-.72.31-1.45.57-2.14.76-5.36,1.54-9.34-.52-8.42-7.9.01-.12.03-.24.06-.39.1-.71.23-1.42.41-2.11.02-.04.02-.08.03-.14.18-.69.4-1.39.63-2.05.05-.14.12-.31.17-.45.24-.62.53-1.22.83-1.8,2-3.9,5.13-6.86,8.58-9.1.71-.47,1.45-.89,2.21-1.3.08-.04.16-.09.25-.14,1.59-.86,3.21-1.58,4.8-2.19,4.02-1.55,7.74-2.35,10-2.75-.2.03-.42.07-.66.1.06-.02.14-.03.2-.05h.06s.06,0,.1-.03c.02.02.04,0,.06,0,.06,0,.12,0,.18-.03h.04s.02,0,.04,0h.18s.02-.03.02-.03h.18s.02-.01.04-.03h.02l.02.02s.04,0,.04-.02h.02s.08,0,.08,0c.02.02.04.02.04,0h.04s0-.02,0-.02h.14s.02.01.04-.01h.02s0-.02,0-.02h.04s.02,0,.04,0h.22s.04-.04.04-.04h.02s.02,0,.04,0h.12s.02,0,.04,0h.04s-.06.02-.1.02h-.08c-1.37.21-4.17.75-7.22,1.92-1.06.39-2.13.88-3.2,1.44-.06.04-.12.07-.17.09-.5.27-.99.56-1.47.87-2.3,1.49-4.38,3.46-5.72,6.05-.2.39-.37.79-.55,1.2l-.1.31c-.17.45-.31.9-.44,1.37,0,.02-.02.06-.01.08-.11.47-.2.94-.27,1.42-.01.08-.03.16-.04.26-.6,4.91,2.06,6.27,5.6,5.25.47-.13.94-.3,1.43-.51,1.35-.57,2.76-1.42,4.14-2.5.44-.35.88-.72,1.32-1.11,1.25-1.14,2.45-2.46,3.53-3.91.31-.44.61-.88.9-1.32.22-.36.42-.69.62-1.04.99-1.77,1.76-3.64,2.2-5.63.11-.49.2-1,.27-1.48Z"/>
    <path class="st2" d="M952.45,279.74c.07-.47.1-.95.13-1.43,0,.96-.08,1.91-.2,2.86-.09.75-.23,1.5-.4,2.25-.66,2.97-1.8,5.81-3.29,8.43-.31.54-.62,1.06-.95,1.56-.42.69-.88,1.34-1.34,1.99-1.61,2.19-3.41,4.16-5.29,5.87-.64.6-1.31,1.15-1.98,1.67-2.07,1.63-4.19,2.91-6.2,3.78-.72.31-1.45.57-2.14.76-5.36,1.54-9.34-.52-8.42-7.9.01-.12.03-.24.06-.39.1-.71.23-1.42.41-2.11.02-.04.02-.08.03-.14.18-.69.4-1.39.63-2.05.05-.14.12-.31.17-.45.24-.62.53-1.22.83-1.8,2-3.9,5.13-6.86,8.58-9.1.71-.47,1.45-.89,2.21-1.3.08-.04.16-.09.25-.14,1.59-.86,3.21-1.58,4.8-2.19,4.02-1.55,7.74-2.35,10-2.75-.2.03-.42.07-.66.1.06-.02.14-.03.2-.05h.06s.06,0,.1-.03c.02.02.04,0,.06,0,.06,0,.12,0,.18-.03h.04s.02,0,.04,0h.18s.02-.03.02-.03h.18s.02-.01.04-.03h.02l.02.02s.04,0,.04-.02h.02s.08,0,.08,0c.02.02.04.02.04,0h.04s.02-.02.02-.02h.12s.02.01.04,0h.02s.02,0,.04,0h.02c.08,0,.16-.03.24-.04h.04s.06,0,.06,0h.02c-1.37.2-4.17.74-7.22,1.91-1.06.39-2.13.88-3.2,1.44-.06.04-.12.07-.17.09-.5.27-.99.56-1.47.87-2.3,1.49-4.38,3.46-5.72,6.05-.2.39-.37.79-.55,1.2l-.1.31c-.17.45-.31.9-.44,1.37,0,.02-.02.06-.01.08-.11.47-.2.94-.27,1.42-.01.08-.03.16-.04.26-.6,4.91,2.06,6.27,5.6,5.25.47-.13.94-.3,1.43-.51,1.35-.57,2.76-1.42,4.14-2.5.44-.35.88-.72,1.32-1.11,1.25-1.14,2.45-2.46,3.53-3.91.31-.44.61-.88.9-1.32.22-.36.42-.69.62-1.04.99-1.77,1.76-3.64,2.2-5.63.11-.49.2-1,.27-1.48Z"/>
    <path class="st2" d="M952.45,279.74c.07-.47.1-.95.13-1.43,0,.96-.08,1.91-.2,2.86-.09.75-.23,1.5-.4,2.25-.66,2.97-1.8,5.81-3.29,8.43-.31.54-.62,1.06-.95,1.56-.42.69-.88,1.34-1.34,1.99-1.61,2.19-3.41,4.16-5.29,5.87-.64.6-1.31,1.15-1.98,1.67-2.07,1.63-4.19,2.91-6.2,3.78-.72.31-1.45.57-2.14.76-5.36,1.54-9.34-.52-8.42-7.9.01-.12.03-.24.06-.39.1-.71.23-1.42.41-2.11.02-.04.02-.08.03-.14.18-.69.4-1.39.63-2.05.05-.14.12-.31.17-.45.24-.62.53-1.22.83-1.8,2-3.9,5.13-6.86,8.58-9.1.71-.47,1.45-.89,2.21-1.3.08-.04.16-.09.25-.14,1.59-.86,3.21-1.58,4.8-2.19,4.02-1.55,7.74-2.35,10-2.75.06,0,.14,0,.2-.03.08,0,.14,0,.2-.03.04.02.06,0,.08,0h.08s.02,0,.04-.03h.02s.04.02.04,0h.04s.1,0,.14-.03t.04,0h.02s.02,0,.04,0h.02c.08,0,.16-.03.24-.04h.04s.06,0,.06,0h.02c-1.37.2-4.17.74-7.22,1.91-1.06.39-2.13.88-3.2,1.44-.06.04-.12.07-.17.09-.5.27-.99.56-1.47.87-2.3,1.49-4.38,3.46-5.72,6.05-.2.39-.37.79-.55,1.2l-.1.31c-.17.45-.31.9-.44,1.37,0,.02-.02.06-.01.08-.11.47-.2.94-.27,1.42-.01.08-.03.16-.04.26-.6,4.91,2.06,6.27,5.6,5.25.47-.13.94-.3,1.43-.51,1.35-.57,2.76-1.42,4.14-2.5.44-.35.88-.72,1.32-1.11,1.25-1.14,2.45-2.46,3.53-3.91.31-.44.61-.88.9-1.32.22-.36.42-.69.62-1.04.99-1.77,1.76-3.64,2.2-5.63.11-.49.2-1,.27-1.48Z"/>
    <path class="st2" d="M952.45,279.74c.07-.47.1-.95.13-1.43,0,.96-.08,1.91-.2,2.86-.09.75-.23,1.5-.4,2.25-.66,2.97-1.8,5.81-3.29,8.43-.31.54-.62,1.06-.95,1.56-.42.69-.88,1.34-1.34,1.99-1.61,2.19-3.41,4.16-5.29,5.87-.64.6-1.31,1.15-1.98,1.67-2.07,1.63-4.19,2.91-6.2,3.78-.72.31-1.45.57-2.14.76-5.36,1.54-9.34-.52-8.42-7.9.01-.12.03-.24.06-.39.1-.71.23-1.42.41-2.11.02-.04.02-.08.03-.14.18-.69.4-1.39.63-2.05.05-.14.12-.31.17-.45.24-.62.53-1.22.83-1.8,2-3.9,5.13-6.86,8.58-9.1.71-.47,1.45-.89,2.21-1.3.08-.04.16-.09.25-.14,1.59-.86,3.21-1.58,4.8-2.19,4.02-1.55,7.74-2.35,10-2.75.06,0,.14,0,.2-.03.08,0,.14,0,.2-.03.04.02.06,0,.08,0h.08s.02,0,.04-.03h.02s.04.02.04,0h.04s.1,0,.14-.03t.04,0h.02s.02,0,.04,0h.02c.08,0,.16-.03.24-.04h.04s.06,0,.06,0h.02c-1.37.2-4.17.74-7.22,1.91-1.06.39-2.13.88-3.2,1.44-.06.04-.12.07-.17.09-.5.27-.99.56-1.47.87-2.3,1.49-4.38,3.46-5.72,6.05-.2.39-.37.79-.55,1.2l-.1.31c-.17.45-.31.9-.44,1.37,0,.02-.02.06-.01.08-.11.47-.2.94-.27,1.42-.01.08-.03.16-.04.26-.6,4.91,2.06,6.27,5.6,5.25.47-.13.94-.3,1.43-.51,1.35-.57,2.76-1.42,4.14-2.5.44-.35.88-.72,1.32-1.11,1.25-1.14,2.45-2.46,3.53-3.91.31-.44.61-.88.9-1.32.22-.36.42-.69.62-1.04.99-1.77,1.76-3.64,2.2-5.63.11-.49.2-1,.27-1.48Z"/>
  </g>
  <g>
    <path class="st2" d="M97.62,488.39c-.38,0-.69-.04-.92-.11-.23-.07-.35-.2-.35-.37,0-.35.48-.61,1.45-.79,1.11-.2,1.96-.54,2.54-1.01.58-.47.88-1.21.88-2.24v-19.82c0-1.02-.21-1.75-.64-2.19-.42-.44-1.19-.76-2.3-.96-.96-.18-1.45-.47-1.45-.88,0-.18.12-.3.35-.37.23-.07.54-.11.92-.11.79,0,1.44.02,1.95.04.51.03,1,.05,1.47.07.47.02,1.04.02,1.71.02s1.17,0,1.58-.02c.41-.01.85-.04,1.32-.07.47-.03,1.1-.04,1.89-.04.38,0,.69.04.92.11.23.07.35.2.35.37,0,.21-.12.38-.35.53-.23.15-.6.26-1.1.35-1.08.2-1.87.53-2.37.96-.5.44-.75,1.17-.75,2.19v19.82c0,1.02.31,1.77.92,2.24.61.47,1.46.8,2.54,1.01.5.09.86.19,1.1.31.23.12.35.28.35.48,0,.18-.12.3-.35.37-.23.07-.54.11-.92.11-.79,0-1.44-.02-1.95-.07-.51-.04-1-.08-1.47-.11-.47-.03-1.04-.04-1.71-.04-.73,0-1.37.01-1.91.04-.54.03-1.1.07-1.67.11s-1.25.07-2.04.07Z"/>
    <path class="st2" d="M112.36,488.3c-.26,0-.48-.04-.64-.11-.16-.07-.24-.2-.24-.37,0-.23.09-.39.26-.46.18-.07.42-.15.75-.24.44-.12.86-.28,1.27-.48.41-.2.61-.6.61-1.18v-9.43c0-.79-.08-1.46-.24-2.02-.16-.55-.62-.94-1.38-1.14-.12-.06-.22-.12-.31-.2-.09-.07-.13-.2-.13-.37,0-.32.13-.5.39-.53,1.02-.26,1.86-.58,2.5-.96.64-.38,1.27-.8,1.89-1.27.09-.06.17-.11.24-.15.07-.04.15-.07.24-.07.06,0,.11.03.15.09.04.06.07.13.07.22,0,.21-.04.62-.11,1.25-.07.63-.11,1.15-.11,1.56,0,.12,0,.23.02.33.01.1.04.17.07.2,1.02-.96,2.11-1.69,3.27-2.19,1.15-.5,2.42-.75,3.79-.75s2.62.58,3.55,1.75c.94,1.17,1.4,2.62,1.4,4.34v9.34c0,.58.2.97.61,1.16.41.19.83.36,1.27.5.23.09.46.18.68.29.22.1.33.27.33.5,0,.18-.1.29-.31.33-.2.04-.39.07-.57.07-.58,0-1.04-.02-1.36-.07-.32-.04-.63-.08-.92-.11-.29-.03-.7-.04-1.23-.04-.5,0-.91.02-1.23.04-.32.03-.65.07-.99.11-.34.04-.8.07-1.38.07-.15,0-.33-.02-.55-.07-.22-.04-.33-.15-.33-.33,0-.23.11-.4.33-.5.22-.1.45-.2.68-.29.44-.15.86-.31,1.27-.5.41-.19.61-.58.61-1.16v-9.21c0-1.29-.36-2.29-1.07-3-.72-.72-1.67-1.09-2.87-1.12-1.05,0-1.97.17-2.76.5-.79.34-1.49.75-2.1,1.25-.12.12-.21.27-.26.46-.06.19-.09.37-.09.55v10.57c0,.58.2.98.61,1.18.41.21.83.37,1.27.48.67.18,1.01.41,1.01.7,0,.18-.07.3-.22.37-.15.07-.37.11-.66.11-.58,0-1.05-.02-1.38-.07-.34-.04-.65-.08-.94-.11-.29-.03-.7-.04-1.23-.04-.5,0-.9.02-1.21.04-.31.03-.63.07-.96.11-.34.04-.8.07-1.38.07Z"/>
    <path class="st2" d="M149.23,489.01c-.06,0-.15-.06-.29-.18-.13-.12-.2-.21-.2-.26,0-.29.04-.71.11-1.25.07-.54.11-1,.11-1.38v-.26c-.44.67-1.14,1.36-2.1,2.06-.96.7-2.18,1.05-3.64,1.05-1.67,0-3.11-.44-4.32-1.32-1.21-.88-2.15-2-2.81-3.38-.66-1.37-.99-2.79-.99-4.25,0-1.69.39-3.29,1.18-4.78s1.92-2.7,3.4-3.64c1.48-.94,3.24-1.4,5.28-1.4.58,0,1.18.05,1.78.15.6.1,1.06.21,1.38.33.26.09.45.13.57.13.2,0,.31-.35.31-1.05v-6.23c0-1.2-.19-2-.57-2.41-.38-.41-.92-.67-1.62-.79-.26-.06-.39-.25-.39-.57,0-.26.12-.44.35-.53,1.29-.32,2.29-.63,3.02-.92.73-.29,1.3-.53,1.71-.7.12-.06.23-.09.33-.11.1-.01.18-.02.24-.02.18,0,.28.09.31.26,0,.18-.02.48-.07.9-.04.42-.1,1.05-.15,1.86-.06.82-.09,1.89-.09,3.2v19.82c0,.99.07,1.72.22,2.17.15.45.38.68.7.68.15,0,.4-.01.77-.04.37-.03.74-.06,1.12-.09.53-.03.79.1.79.39,0,.21-.07.39-.2.55-.13.16-.27.24-.42.24-.82.12-1.62.29-2.41.5-.79.22-1.7.55-2.72.99-.23.12-.39.19-.46.22-.07.03-.15.04-.24.04ZM144.8,486.51c.76,0,1.5-.2,2.24-.59.73-.39,1.37-.91,1.93-1.56l.04-7.89c0-.79-.23-1.56-.68-2.32-.45-.76-1.08-1.38-1.89-1.86-.8-.48-1.75-.72-2.83-.72-.67,0-1.43.2-2.28.61-.85.41-1.58,1.13-2.19,2.17-.61,1.04-.92,2.54-.92,4.49,0,1.67.25,3,.75,4.01.5,1.01,1.1,1.78,1.82,2.3.72.53,1.45.88,2.19,1.07.75.19,1.35.29,1.82.29Z"/>
    <path class="st2" d="M157.69,488.3c-.26,0-.48-.04-.64-.11-.16-.07-.24-.2-.24-.37,0-.23.11-.39.33-.48s.45-.16.68-.22c.61-.15,1.08-.33,1.4-.55.32-.22.48-.59.48-1.12v-9.51c0-.79-.14-1.49-.42-2.1-.28-.61-.8-.98-1.56-1.1-.15-.03-.26-.09-.33-.18-.07-.09-.11-.22-.11-.39,0-.32.13-.5.39-.53,1.17-.26,2.13-.62,2.89-1.07.76-.45,1.33-.83,1.71-1.12.26-.2.47-.31.61-.31.18,0,.26.07.26.22,0,.23-.04.69-.11,1.38-.07.69-.14,1.45-.2,2.28-.06.83-.09,1.59-.09,2.26v10.17c0,.5.17.86.5,1.1.34.23.8.42,1.38.57.23.06.46.13.68.22s.33.25.33.48c0,.32-.29.48-.88.48s-1-.02-1.34-.07c-.34-.04-.66-.08-.96-.11-.31-.03-.72-.04-1.25-.04-.5,0-.91.02-1.23.04-.32.03-.64.07-.96.11-.32.04-.77.07-1.36.07ZM161.2,465.55c-.61,0-1.13-.21-1.56-.64-.42-.42-.64-.94-.64-1.56s.21-1.18.64-1.6.94-.64,1.56-.64,1.18.21,1.6.64c.42.42.64.96.64,1.6s-.21,1.13-.64,1.56-.96.64-1.6.64Z"/>
    <path class="st2" d="M171.63,488.79c-.53,0-1.06-.2-1.6-.61-.54-.41-.99-.91-1.36-1.49-.37-.58-.55-1.14-.55-1.67,0-.94.25-1.67.75-2.19.5-.53,1.29-1.01,2.37-1.45l4.47-1.84c.58-.23.93-.44,1.03-.61.1-.18.17-.55.2-1.14l.09-2.81c.03-.76-.18-1.42-.64-1.97-.45-.56-1.1-.83-1.95-.83-.44,0-.88.07-1.32.22-.44.15-.8.34-1.1.57-.18.12-.29.29-.35.53-.06.23-.09.48-.09.75,0,.12,0,.25.02.39.01.15.02.28.02.39,0,.15-.18.34-.55.59-.37.25-.77.47-1.23.66-.45.19-.83.29-1.12.29-.15,0-.26-.04-.35-.11-.09-.07-.13-.17-.13-.28,0-.47.15-.97.46-1.51.31-.54.74-1.04,1.29-1.51.67-.61,1.4-1.15,2.19-1.62.79-.47,1.56-.83,2.32-1.1.76-.26,1.43-.39,2.02-.39,1.05,0,1.92.37,2.61,1.12.69.75,1.02,1.67.99,2.78l-.22,10.52c-.03.61.11,1.11.42,1.49.31.38.69.57,1.16.57.73,0,1.27-.16,1.62-.48.15-.15.26-.22.35-.22.15,0,.26.04.35.13s.13.2.13.35c0,.32-.16.64-.48.96-.47.47-.97.84-1.51,1.12-.54.28-1.05.42-1.51.42-1.34,0-2.41-.76-3.2-2.28h-.13c-.96.79-1.89,1.37-2.76,1.73-.88.36-1.78.55-2.72.55ZM173.69,486.68c.58,0,1.08-.09,1.49-.28.41-.19.77-.45,1.1-.77.15-.15.27-.34.37-.59.1-.25.17-.65.2-1.21l.09-2.15c.03-.32.01-.55-.04-.7-.06-.15-.18-.22-.35-.22-.06,0-.16.01-.31.04-.15.03-.34.09-.57.18-1.55.56-2.62,1.13-3.22,1.73-.6.6-.9,1.15-.9,1.64,0,.76.23,1.34.68,1.73.45.39.94.59,1.47.59Z"/>
    <path class="st2" d="M185.92,488.3c-.26,0-.48-.04-.64-.11-.16-.07-.24-.2-.24-.37,0-.23.09-.39.26-.46.18-.07.42-.15.75-.24.44-.12.86-.28,1.27-.48.41-.2.61-.6.61-1.18v-9.43c0-.79-.08-1.46-.24-2.02-.16-.55-.62-.94-1.38-1.14-.12-.06-.22-.12-.31-.2-.09-.07-.13-.2-.13-.37,0-.32.13-.5.39-.53,1.02-.26,1.86-.58,2.5-.96.64-.38,1.27-.8,1.89-1.27.09-.06.17-.11.24-.15.07-.04.15-.07.24-.07.06,0,.11.03.15.09.04.06.07.13.07.22,0,.21-.04.62-.11,1.25-.07.63-.11,1.15-.11,1.56,0,.12,0,.23.02.33.01.1.04.17.07.2,1.02-.96,2.11-1.69,3.27-2.19,1.15-.5,2.42-.75,3.79-.75s2.62.58,3.55,1.75c.94,1.17,1.4,2.62,1.4,4.34v9.34c0,.58.2.97.61,1.16.41.19.83.36,1.27.5.23.09.46.18.68.29.22.1.33.27.33.5,0,.18-.1.29-.31.33-.2.04-.39.07-.57.07-.58,0-1.04-.02-1.36-.07-.32-.04-.63-.08-.92-.11-.29-.03-.7-.04-1.23-.04-.5,0-.91.02-1.23.04-.32.03-.65.07-.99.11-.34.04-.8.07-1.38.07-.15,0-.33-.02-.55-.07-.22-.04-.33-.15-.33-.33,0-.23.11-.4.33-.5.22-.1.45-.2.68-.29.44-.15.86-.31,1.27-.5.41-.19.61-.58.61-1.16v-9.21c0-1.29-.36-2.29-1.07-3-.72-.72-1.67-1.09-2.87-1.12-1.05,0-1.97.17-2.76.5-.79.34-1.49.75-2.1,1.25-.12.12-.21.27-.26.46-.06.19-.09.37-.09.55v10.57c0,.58.2.98.61,1.18.41.21.83.37,1.27.48.67.18,1.01.41,1.01.7,0,.18-.07.3-.22.37-.15.07-.37.11-.66.11-.58,0-1.05-.02-1.38-.07-.34-.04-.65-.08-.94-.11-.29-.03-.7-.04-1.23-.04-.5,0-.9.02-1.21.04-.31.03-.63.07-.96.11-.34.04-.8.07-1.38.07Z"/>
    <path class="st2" d="M218.23,488.39c-.38,0-.69-.04-.92-.11-.23-.07-.35-.2-.35-.37,0-.35.48-.61,1.45-.79,1.11-.2,1.92-.54,2.43-1.01.51-.47.77-1.24.77-2.32v-18.5c0-1.32-.17-2.32-.5-3.03-.34-.7-1.06-1.15-2.17-1.36-.5-.09-.86-.2-1.1-.35-.23-.15-.35-.32-.35-.53,0-.18.12-.3.35-.37.23-.07.54-.11.92-.11h1.78c.39,0,.77,0,1.12.02.35.02.82.02,1.4.02s1.18-.02,1.78-.07c.6-.04,1.16-.09,1.69-.13.53-.04.99-.07,1.4-.07,3.33,0,6.01.69,8.05,2.06,2.03,1.37,3.05,3.29,3.05,5.74,0,1.78-.35,3.43-1.05,4.93-.7,1.51-1.78,2.71-3.22,3.62-1.45.91-3.3,1.36-5.55,1.36-.64,0-1.13-.09-1.47-.28-.34-.19-.5-.37-.5-.55,0-.12.08-.25.24-.39.16-.15.31-.22.46-.22s.37.02.68.04c.31.03.75.04,1.34.04,1.75,0,3.08-.73,3.97-2.19.89-1.46,1.34-3.48,1.34-6.05,0-2.34-.69-4.07-2.06-5.2-1.37-1.12-3.13-1.69-5.26-1.69-.82,0-1.49.14-2.02.42s-.79.75-.79,1.42v20.91c0,1.05.22,1.9.66,2.54.44.64,1.2,1.07,2.28,1.27.5.09.86.19,1.1.31s.35.28.35.48c0,.18-.12.3-.35.37-.23.07-.54.11-.92.11-.79,0-1.4-.03-1.82-.09-.42-.06-.8-.11-1.14-.15-.34-.04-.78-.07-1.34-.07-.73,0-1.38.02-1.95.07s-1.14.09-1.71.15-1.25.09-2.04.09Z"/>
    <path class="st2" d="M241.82,488.3c-.15,0-.33-.02-.55-.07-.22-.04-.33-.15-.33-.33,0-.23.11-.4.33-.5.22-.1.45-.2.68-.29.44-.15.86-.31,1.27-.5.41-.19.61-.58.61-1.16v-22.1c0-.85-.15-1.56-.46-2.13-.31-.57-.83-.93-1.56-1.07-.23-.06-.35-.25-.35-.57,0-.29.1-.47.31-.53.76-.18,1.42-.36,1.97-.55.55-.19,1.07-.39,1.56-.59.48-.2.96-.39,1.42-.57.12-.06.2-.09.26-.09s.11.04.15.11c.04.07.07.14.07.2,0,.26-.05.83-.15,1.69-.1.86-.15,2.29-.15,4.27v21.92c0,.58.2.97.61,1.16.41.19.83.36,1.27.5.23.09.46.18.68.29.22.1.33.27.33.5,0,.18-.11.29-.33.33-.22.04-.4.07-.55.07-.56,0-1-.02-1.34-.07-.34-.04-.66-.08-.96-.11-.31-.03-.72-.04-1.25-.04-.5,0-.91.02-1.23.04-.32.03-.64.07-.96.11-.32.04-.77.07-1.36.07Z"/>
    <path class="st2" d="M255.76,488.79c-.53,0-1.06-.2-1.6-.61-.54-.41-.99-.91-1.36-1.49-.37-.58-.55-1.14-.55-1.67,0-.94.25-1.67.75-2.19.5-.53,1.29-1.01,2.37-1.45l4.47-1.84c.58-.23.93-.44,1.03-.61.1-.18.17-.55.2-1.14l.09-2.81c.03-.76-.18-1.42-.64-1.97-.45-.56-1.1-.83-1.95-.83-.44,0-.88.07-1.32.22-.44.15-.8.34-1.1.57-.18.12-.29.29-.35.53-.06.23-.09.48-.09.75,0,.12,0,.25.02.39.01.15.02.28.02.39,0,.15-.18.34-.55.59-.37.25-.77.47-1.23.66-.45.19-.83.29-1.12.29-.15,0-.26-.04-.35-.11-.09-.07-.13-.17-.13-.28,0-.47.15-.97.46-1.51.31-.54.74-1.04,1.29-1.51.67-.61,1.4-1.15,2.19-1.62.79-.47,1.56-.83,2.32-1.1.76-.26,1.43-.39,2.02-.39,1.05,0,1.92.37,2.61,1.12.69.75,1.02,1.67.99,2.78l-.22,10.52c-.03.61.11,1.11.42,1.49.31.38.69.57,1.16.57.73,0,1.27-.16,1.62-.48.15-.15.26-.22.35-.22.15,0,.26.04.35.13s.13.2.13.35c0,.32-.16.64-.48.96-.47.47-.97.84-1.51,1.12-.54.28-1.05.42-1.51.42-1.34,0-2.41-.76-3.2-2.28h-.13c-.96.79-1.89,1.37-2.76,1.73-.88.36-1.78.55-2.72.55ZM257.82,486.68c.58,0,1.08-.09,1.49-.28.41-.19.77-.45,1.1-.77.15-.15.27-.34.37-.59.1-.25.17-.65.2-1.21l.09-2.15c.03-.32.01-.55-.04-.7-.06-.15-.18-.22-.35-.22-.06,0-.16.01-.31.04-.15.03-.34.09-.57.18-1.55.56-2.62,1.13-3.22,1.73-.6.6-.9,1.15-.9,1.64,0,.76.23,1.34.68,1.73.45.39.94.59,1.47.59Z"/>
    <path class="st2" d="M276.41,488.79c-1.43,0-2.55-.44-3.35-1.32-.8-.88-1.21-2.18-1.21-3.9v-10.17c0-.23-.09-.4-.26-.5-.18-.1-.56-.15-1.14-.15h-.26c-.15,0-.27-.09-.37-.29-.1-.19-.15-.39-.15-.59,0-.06.04-.15.13-.26s.15-.19.18-.22c.58-.41,1.12-.82,1.6-1.23.48-.41.92-.81,1.32-1.21s.72-.75.99-1.07c.15-.15.27-.27.37-.37s.23-.15.37-.15.28.03.42.09c.13.06.18.19.15.39l-.22,1.97c-.03.32.04.54.22.66.18.12.45.18.83.18h5c.12,0,.22.1.31.29.09.19.13.42.13.68s-.04.52-.13.77c-.09.25-.19.37-.31.37h-4.34c-.73,0-1.21.06-1.42.18-.22.12-.33.47-.33,1.05v8.64c0,1.17.25,2.09.75,2.76.5.67,1.21,1.01,2.15,1.01.85,0,1.51-.07,1.97-.2.47-.13.89-.33,1.27-.59.06-.06.12-.09.18-.09.12,0,.2.07.24.2s.07.27.07.42-.24.44-.72.88-1.11.85-1.89,1.23c-.77.38-1.62.57-2.52.57Z"/>
    <path class="st2" d="M291.23,488.83c-1.61,0-3.01-.39-4.21-1.18-1.2-.79-2.13-1.91-2.81-3.35-.67-1.45-1.01-3.12-1.01-5.02,0-1.69.39-3.24,1.16-4.63.77-1.39,1.8-2.51,3.09-3.35,1.29-.85,2.69-1.27,4.21-1.27,1.17,0,2.21.23,3.11.7.91.47,1.61,1.12,2.13,1.95.51.83.77,1.79.77,2.87,0,.91-.44,1.36-1.31,1.36h-9.25c-.41,0-.69.11-.85.33-.16.22-.24.65-.24,1.29,0,1.4.31,2.68.92,3.84.61,1.15,1.43,2.08,2.46,2.76,1.02.69,2.15,1.03,3.38,1.03.88,0,1.67-.17,2.39-.5.72-.34,1.35-.83,1.91-1.47.12-.15.2-.24.26-.28.06-.04.13-.07.22-.07.23,0,.35.15.35.44,0,.56-.26,1.17-.79,1.84-.44.56-.96,1.04-1.58,1.45-.61.41-1.29.72-2.02.94-.73.22-1.49.33-2.28.33ZM287.2,475.55h3.99c.7,0,1.3-.01,1.8-.04.5-.03.98-.09,1.45-.18.15-.03.24-.12.28-.29.04-.16.07-.39.07-.68,0-.85-.37-1.57-1.12-2.17-.75-.6-1.63-.9-2.65-.9-.67,0-1.34.2-2.02.59-.67.39-1.23.88-1.67,1.47-.44.58-.66,1.17-.66,1.75,0,.29.18.44.53.44Z"/>
    <path class="st2" d="M305.3,488.79c-.91,0-1.75-.14-2.54-.42s-1.46-.66-2.02-1.16c-.15-.32-.26-.86-.33-1.62-.07-.76-.12-1.39-.15-1.89,0-.26.19-.39.57-.39.12,0,.23.02.33.07.1.04.17.12.2.24.38,1.43.99,2.46,1.82,3.07s1.67.92,2.52.92,1.57-.29,2.17-.85.9-1.28.9-2.13c0-.79-.26-1.47-.79-2.04-.53-.57-1.45-1.26-2.76-2.08-.99-.61-1.8-1.2-2.41-1.75-.61-.55-1.06-1.12-1.34-1.71-.28-.58-.42-1.24-.42-1.97,0-.94.22-1.78.66-2.54.44-.76,1.1-1.37,1.97-1.82.88-.45,1.97-.68,3.29-.68.88,0,1.61.09,2.19.26.58.18,1.02.37,1.32.57.23.32.43.83.59,1.51.16.69.24,1.34.24,1.95,0,.2-.15.31-.44.31-.18,0-.34-.04-.5-.11-.16-.07-.27-.17-.33-.29-.38-.96-.85-1.7-1.42-2.21-.57-.51-1.28-.77-2.13-.77-.73,0-1.38.22-1.95.66-.57.44-.85,1.08-.85,1.93,0,.67.21,1.27.64,1.8.42.53,1.22,1.13,2.39,1.8,1.69.96,2.96,1.86,3.79,2.7s1.25,1.94,1.25,3.31c0,1.58-.6,2.86-1.8,3.86-1.2.99-2.75,1.49-4.65,1.49Z"/>
    <path class="st2" d="M331.21,488.83c-1.49,0-2.81-.27-3.97-.81-1.15-.54-2.05-1.28-2.7-2.21-.64-.94-.96-2-.96-3.2,0-2.34.69-4.25,2.08-5.74,1.39-1.49,3.13-2.72,5.24-3.68l.88-.39-.66-.7c-.26-.32-.62-.72-1.07-1.18-.45-.47-.86-1.03-1.23-1.69-.37-.66-.55-1.41-.55-2.26,0-1.02.3-1.91.9-2.67.6-.76,1.37-1.34,2.3-1.75.94-.41,1.9-.61,2.89-.61,1.26,0,2.29.29,3.11.85.82.57,1.43,1.27,1.84,2.1.41.83.61,1.63.61,2.39.03,1.11-.37,2.08-1.18,2.89-.82.82-1.96,1.49-3.42,2.02l-.61.22.57.61c1.11,1.2,2.12,2.24,3.02,3.11.91.88,1.8,1.96,2.67,3.24l.53.79.79-.83c.7-.76,1.42-1.61,2.17-2.54.75-.94,1.37-1.79,1.89-2.56.51-.77.77-1.26.77-1.47,0-.18-.11-.41-.33-.7-.22-.29-.52-.47-.9-.53-.06-.03-.16-.1-.31-.22-.15-.12-.22-.2-.22-.26,0-.23.14-.37.42-.42.28-.04.46-.07.55-.07s.34.01.77.04c.42.03.87.07,1.34.11.47.04.8.07,1.01.07.44,0,.92-.05,1.45-.15.53-.1,1.03-.21,1.51-.33.48-.12.9-.18,1.25-.18.06,0,.16.04.31.13.15.09.22.18.22.26,0,.18-.13.35-.39.53s-.5.28-.7.31c-.67.03-1.29.18-1.84.46-.56.28-1.01.58-1.36.9-.12.09-.45.42-1.01,1.01-.56.59-1.22,1.28-2,2.08-.77.8-1.53,1.6-2.26,2.39-.73.79-1.59,1.71-2.59,2.76l.75,1.05c.94,1.34,1.86,2.42,2.76,3.22.91.8,1.91,1.21,3.02,1.21.61,0,1.21-.06,1.78-.18.57-.12,1.12-.32,1.64-.61.12-.06.24-.11.37-.15.13-.04.26-.07.37-.07.2,0,.34.04.42.11.07.07.11.21.11.42,0,.23-.31.58-.92,1.05-.61.47-1.35.89-2.21,1.27-.86.38-1.7.57-2.52.57-1.08,0-1.99-.18-2.72-.55-.73-.36-1.4-.92-2-1.67-.6-.75-1.28-1.7-2.04-2.87l-.57-.92-.26.26c-.91.99-1.78,1.93-2.61,2.81s-1.73,1.59-2.7,2.13c-.96.54-2.13.81-3.51.81ZM332.35,485.98c1.46,0,2.73-.31,3.79-.92,1.07-.61,2.14-1.49,3.22-2.63l.39-.4-.53-.83c-.73-1.11-1.64-2.24-2.74-3.38-1.1-1.14-2.27-2.38-3.53-3.73l-.53-.57-.92.35c-1.34.53-2.35,1.19-3,1.99-.66.8-1.08,1.67-1.27,2.59-.19.92-.28,1.82-.28,2.7,0,1.34.5,2.48,1.49,3.42.99.94,2.29,1.4,3.9,1.4ZM334.15,471.69l.57-.26c.82-.38,1.42-.99,1.82-1.82s.59-1.69.59-2.56c0-1.02-.24-1.94-.72-2.76-.48-.82-1.23-1.23-2.26-1.23-.88,0-1.65.27-2.32.81-.67.54-1.01,1.21-1.01,1.99,0,.58.06,1.11.18,1.58.12.47.37.96.75,1.49.38.53.95,1.2,1.71,2.02l.7.75Z"/>
    <path class="st2" d="M381.68,488.83c-2.05,0-4.02-.35-5.92-1.05-1.9-.7-3.6-1.7-5.09-3-1.49-1.3-2.67-2.86-3.53-4.69-.86-1.83-1.29-3.85-1.29-6.07s.45-4.11,1.36-5.92c.91-1.81,2.15-3.39,3.73-4.73,1.58-1.34,3.38-2.39,5.41-3.13,2.03-.75,4.17-1.12,6.42-1.12,1.14,0,2.1.04,2.89.13.79.09,1.56.21,2.3.37.75.16,1.61.37,2.61.64.44.12.75.29.94.53.19.23.3.56.33.96.06.67.13,1.4.22,2.17.09.77.15,1.73.18,2.87.03.2-.07.37-.29.5-.22.13-.45.17-.7.11-.25-.06-.42-.25-.5-.57-.29-1.11-.63-2.07-1.01-2.87-.38-.8-.95-1.47-1.71-1.99-.73-.5-1.62-.87-2.65-1.12-1.04-.25-2.16-.37-3.35-.37-1.7,0-3.27.34-4.71,1.03-1.45.69-2.69,1.62-3.73,2.81-1.04,1.18-1.85,2.52-2.43,4.01-.58,1.49-.88,3.04-.88,4.65,0,1.78.29,3.54.85,5.26.57,1.72,1.39,3.28,2.46,4.67,1.07,1.39,2.34,2.5,3.81,3.33,1.48.83,3.12,1.25,4.93,1.25,2.1,0,3.84-.48,5.22-1.45,1.37-.96,2.54-2.31,3.51-4.03.2-.38.5-.57.9-.57s.59.23.59.7c0,.23-.06.61-.18,1.12-.12.51-.27,1.05-.46,1.62-.19.57-.37,1.07-.55,1.51-.21.41-.37.67-.5.79-.13.12-.43.25-.9.39-1.08.44-2.38.76-3.88.96-1.51.2-2.97.31-4.41.31Z"/>
    <path class="st2" d="M405.22,488.79c-1.64,0-3.11-.38-4.43-1.14-1.32-.76-2.36-1.8-3.13-3.13-.77-1.33-1.16-2.84-1.16-4.54,0-1.23.24-2.43.72-3.59s1.16-2.24,2.04-3.2c.88-.96,1.9-1.73,3.07-2.3,1.17-.57,2.43-.85,3.77-.85,1.69,0,3.22.41,4.58,1.23,1.36.82,2.44,1.89,3.24,3.22.8,1.33,1.21,2.78,1.21,4.36,0,1.7-.37,3.3-1.12,4.82-.75,1.52-1.85,2.75-3.31,3.7-1.46.95-3.29,1.42-5.48,1.42ZM406.14,487.47c.99,0,1.89-.19,2.67-.57.79-.38,1.4-.99,1.84-1.84.35-.67.58-1.49.7-2.46.12-.96.18-1.87.18-2.72,0-1.4-.26-2.75-.77-4.06-.51-1.3-1.23-2.37-2.15-3.2-.92-.83-2.01-1.25-3.27-1.25-.79,0-1.5.12-2.13.37-.63.25-1.21.71-1.73,1.38-.58.73-.96,1.62-1.14,2.67s-.26,2.1-.26,3.16c0,1.43.26,2.8.79,4.1.53,1.3,1.24,2.36,2.15,3.18.91.82,1.94,1.23,3.11,1.23Z"/>
    <path class="st2" d="M426,488.83c-1.46,0-2.78-.37-3.97-1.12-1.18-.75-2.12-1.77-2.81-3.07-.69-1.3-1.03-2.75-1.03-4.36,0-1.9.42-3.62,1.25-5.17.83-1.55,1.95-2.78,3.35-3.7,1.4-.92,2.95-1.38,4.65-1.38,1.9,0,3.57.51,5,1.53.35.26.53.54.53.83,0,.23-.1.5-.31.79-.2.29-.45.53-.75.72-.29.19-.57.28-.83.28-.15,0-.29-.05-.44-.15-.15-.1-.31-.21-.48-.33-.64-.5-1.36-.96-2.15-1.4-.79-.44-1.45-.66-1.97-.66-1.43,0-2.59.67-3.49,2-.89,1.33-1.34,3.08-1.34,5.24,0,1.37.3,2.62.9,3.73.6,1.11,1.4,1.99,2.41,2.63,1.01.64,2.13.96,3.35.96.85,0,1.58-.14,2.19-.42.61-.28,1.27-.77,1.97-1.47.06-.06.13-.11.22-.15s.16-.07.22-.07c.32,0,.48.2.48.61,0,.18-.05.37-.15.59-.1.22-.27.48-.5.77-.47.58-1.02,1.09-1.67,1.51-.64.42-1.35.74-2.13.94-.77.2-1.62.31-2.52.31Z"/>
    <path class="st2" d="M436.35,488.3c-.67,0-1.01-.16-1.01-.48,0-.23.11-.39.33-.46.22-.07.45-.15.68-.24.44-.15.86-.34,1.27-.57.41-.23.61-.64.61-1.23v-21.97c0-1.02-.15-1.77-.44-2.24-.29-.47-.8-.79-1.53-.96-.26-.06-.4-.25-.4-.57,0-.29.12-.47.35-.53.76-.18,1.42-.36,1.97-.55.56-.19,1.06-.38,1.51-.57.45-.19.9-.37,1.34-.55.18-.09.31-.13.39-.13s.15.03.2.09c.04.06.07.16.07.31,0,.29-.07.88-.2,1.75-.13.88-.2,2.25-.2,4.12v14.38c0,.26.07.39.22.39.18,0,.4-.07.68-.22.28-.15.58-.36.9-.66,1.2-1.02,2.2-1.95,3-2.78.8-.83,1.35-1.41,1.64-1.73.15-.18.25-.31.31-.42.06-.1.09-.18.09-.24,0-.15-.12-.28-.37-.39-.25-.12-.5-.2-.77-.26-.35-.09-.53-.23-.53-.44,0-.15.09-.27.26-.37.18-.1.41-.15.7-.15h2.15c.47,0,.96-.04,1.47-.13.51-.09.99-.18,1.45-.26.45-.09.81-.13,1.07-.13.41,0,.61.15.61.44,0,.18-.1.33-.31.46-.21.13-.47.24-.79.33-.56.15-1.07.35-1.56.61-.48.26-.93.51-1.34.75-.18.12-.58.43-1.21.94-.63.51-1.34,1.1-2.15,1.78-.8.67-1.56,1.32-2.26,1.93-.18.18-.26.32-.26.44,0,.03.01.07.04.13.03.06.06.12.09.18.76.94,1.58,1.89,2.46,2.85.88.96,1.69,1.81,2.43,2.54.75.73,1.26,1.24,1.56,1.53.5.47,1.06.88,1.69,1.25.63.37,1.16.62,1.6.77.32.12.62.22.9.31.28.09.42.25.42.48,0,.32-.29.48-.88.48-1.14,0-2.42-.02-3.84-.07-1.42-.04-2.87-.07-4.36-.07-.53,0-.79-.13-.79-.39,0-.18.07-.32.22-.44.15-.12.32-.2.53-.26.32-.12.6-.25.83-.39.23-.15.35-.35.35-.61,0-.09-.03-.18-.09-.29-.06-.1-.13-.21-.22-.33l-5.31-6.01c-.18-.2-.32-.31-.44-.31-.15,0-.22.1-.22.31-.03.41-.04.85-.04,1.34v3c0,.53.01,1.04.04,1.53,0,.58.15.99.44,1.23.29.23.66.42,1.1.57.23.09.46.17.68.24.22.07.33.23.33.46,0,.2-.14.34-.42.39-.28.06-.48.09-.59.09-.56,0-.96-.02-1.23-.07-.26-.04-.5-.08-.72-.11-.22-.03-.59-.04-1.12-.04-.5,0-.89.02-1.18.04-.29.03-.59.07-.9.11-.31.04-.75.07-1.34.07Z"/>
    <path class="st2" d="M463.35,488.79c-1.43,0-2.55-.44-3.35-1.32-.8-.88-1.21-2.18-1.21-3.9v-10.17c0-.23-.09-.4-.26-.5-.18-.1-.56-.15-1.14-.15h-.26c-.15,0-.27-.09-.37-.29-.1-.19-.15-.39-.15-.59,0-.06.04-.15.13-.26s.15-.19.18-.22c.58-.41,1.12-.82,1.6-1.23.48-.41.92-.81,1.32-1.21s.72-.75.99-1.07c.15-.15.27-.27.37-.37s.23-.15.37-.15.28.03.42.09c.13.06.18.19.15.39l-.22,1.97c-.03.32.04.54.22.66.18.12.45.18.83.18h5c.12,0,.22.1.31.29.09.19.13.42.13.68s-.04.52-.13.77c-.09.25-.19.37-.31.37h-4.34c-.73,0-1.21.06-1.42.18-.22.12-.33.47-.33,1.05v8.64c0,1.17.25,2.09.75,2.76.5.67,1.21,1.01,2.15,1.01.85,0,1.51-.07,1.97-.2.47-.13.89-.33,1.27-.59.06-.06.12-.09.18-.09.12,0,.2.07.24.2s.07.27.07.42-.24.44-.72.88-1.11.85-1.89,1.23c-.77.38-1.62.57-2.52.57Z"/>
    <path class="st2" d="M473.96,488.79c-.53,0-1.06-.2-1.6-.61-.54-.41-.99-.91-1.36-1.49-.37-.58-.55-1.14-.55-1.67,0-.94.25-1.67.75-2.19.5-.53,1.29-1.01,2.37-1.45l4.47-1.84c.58-.23.93-.44,1.03-.61.1-.18.17-.55.2-1.14l.09-2.81c.03-.76-.18-1.42-.64-1.97-.45-.56-1.1-.83-1.95-.83-.44,0-.88.07-1.32.22-.44.15-.8.34-1.1.57-.18.12-.29.29-.35.53-.06.23-.09.48-.09.75,0,.12,0,.25.02.39.01.15.02.28.02.39,0,.15-.18.34-.55.59-.37.25-.77.47-1.23.66-.45.19-.83.29-1.12.29-.15,0-.26-.04-.35-.11-.09-.07-.13-.17-.13-.28,0-.47.15-.97.46-1.51.31-.54.74-1.04,1.29-1.51.67-.61,1.4-1.15,2.19-1.62.79-.47,1.56-.83,2.32-1.1.76-.26,1.43-.39,2.02-.39,1.05,0,1.92.37,2.61,1.12.69.75,1.02,1.67.99,2.78l-.22,10.52c-.03.61.11,1.11.42,1.49.31.38.69.57,1.16.57.73,0,1.27-.16,1.62-.48.15-.15.26-.22.35-.22.15,0,.26.04.35.13s.13.2.13.35c0,.32-.16.64-.48.96-.47.47-.97.84-1.51,1.12-.54.28-1.05.42-1.51.42-1.34,0-2.41-.76-3.2-2.28h-.13c-.96.79-1.89,1.37-2.76,1.73-.88.36-1.78.55-2.72.55ZM476.02,486.68c.58,0,1.08-.09,1.49-.28.41-.19.77-.45,1.1-.77.15-.15.27-.34.37-.59.1-.25.17-.65.2-1.21l.09-2.15c.03-.32.01-.55-.04-.7-.06-.15-.18-.22-.35-.22-.06,0-.16.01-.31.04-.15.03-.34.09-.57.18-1.55.56-2.62,1.13-3.22,1.73-.6.6-.9,1.15-.9,1.64,0,.76.23,1.34.68,1.73.45.39.94.59,1.47.59Z"/>
    <path class="st2" d="M488.26,488.3c-.26,0-.48-.04-.64-.11-.16-.07-.24-.2-.24-.37,0-.23.11-.39.33-.48s.45-.16.68-.22c.61-.15,1.08-.33,1.4-.55.32-.22.48-.59.48-1.12v-9.51c0-.79-.14-1.49-.42-2.1-.28-.61-.8-.98-1.56-1.1-.15-.03-.26-.09-.33-.18-.07-.09-.11-.22-.11-.39,0-.32.13-.5.39-.53,1.17-.26,2.13-.62,2.89-1.07.76-.45,1.33-.83,1.71-1.12.26-.2.47-.31.61-.31.18,0,.26.07.26.22,0,.23-.04.69-.11,1.38-.07.69-.14,1.45-.2,2.28-.06.83-.09,1.59-.09,2.26v10.17c0,.5.17.86.5,1.1.34.23.8.42,1.38.57.23.06.46.13.68.22s.33.25.33.48c0,.32-.29.48-.88.48s-1-.02-1.34-.07c-.34-.04-.66-.08-.96-.11-.31-.03-.72-.04-1.25-.04-.5,0-.91.02-1.23.04-.32.03-.64.07-.96.11-.32.04-.77.07-1.36.07ZM491.76,465.55c-.61,0-1.13-.21-1.56-.64-.42-.42-.64-.94-.64-1.56s.21-1.18.64-1.6.94-.64,1.56-.64,1.18.21,1.6.64c.42.42.64.96.64,1.6s-.21,1.13-.64,1.56-.96.64-1.6.64Z"/>
    <path class="st2" d="M498.78,488.3c-.15,0-.33-.02-.55-.07-.22-.04-.33-.15-.33-.33,0-.23.11-.4.33-.5.22-.1.45-.2.68-.29.44-.15.86-.31,1.27-.5.41-.19.61-.58.61-1.16v-22.1c0-.85-.15-1.56-.46-2.13-.31-.57-.83-.93-1.56-1.07-.23-.06-.35-.25-.35-.57,0-.29.1-.47.31-.53.76-.18,1.42-.36,1.97-.55.55-.19,1.07-.39,1.56-.59.48-.2.96-.39,1.42-.57.12-.06.2-.09.26-.09s.11.04.15.11c.04.07.07.14.07.2,0,.26-.05.83-.15,1.69-.1.86-.15,2.29-.15,4.27v21.92c0,.58.2.97.61,1.16.41.19.83.36,1.27.5.23.09.46.18.68.29.22.1.33.27.33.5,0,.18-.11.29-.33.33-.22.04-.4.07-.55.07-.56,0-1-.02-1.34-.07-.34-.04-.66-.08-.96-.11-.31-.03-.72-.04-1.25-.04-.5,0-.91.02-1.23.04-.32.03-.64.07-.96.11-.32.04-.77.07-1.36.07Z"/>
    <path class="st2" d="M513.9,488.79c-.91,0-1.75-.14-2.54-.42s-1.46-.66-2.02-1.16c-.15-.32-.26-.86-.33-1.62-.07-.76-.12-1.39-.15-1.89,0-.26.19-.39.57-.39.12,0,.23.02.33.07.1.04.17.12.2.24.38,1.43.99,2.46,1.82,3.07s1.67.92,2.52.92,1.57-.29,2.17-.85.9-1.28.9-2.13c0-.79-.26-1.47-.79-2.04-.53-.57-1.45-1.26-2.76-2.08-.99-.61-1.8-1.2-2.41-1.75-.61-.55-1.06-1.12-1.34-1.71-.28-.58-.42-1.24-.42-1.97,0-.94.22-1.78.66-2.54.44-.76,1.1-1.37,1.97-1.82.88-.45,1.97-.68,3.29-.68.88,0,1.61.09,2.19.26.58.18,1.02.37,1.32.57.23.32.43.83.59,1.51.16.69.24,1.34.24,1.95,0,.2-.15.31-.44.31-.18,0-.34-.04-.5-.11-.16-.07-.27-.17-.33-.29-.38-.96-.85-1.7-1.42-2.21-.57-.51-1.28-.77-2.13-.77-.73,0-1.38.22-1.95.66-.57.44-.85,1.08-.85,1.93,0,.67.21,1.27.64,1.8.42.53,1.22,1.13,2.39,1.8,1.69.96,2.96,1.86,3.79,2.7s1.25,1.94,1.25,3.31c0,1.58-.6,2.86-1.8,3.86-1.2.99-2.75,1.49-4.65,1.49Z"/>
  </g>
  <line class="st1" x1="561.82" y1="477.81" x2="693.35" y2="477.81"/>
</svg>