<?xml version="1.0" encoding="UTF-8"?>
<svg id="Layer_1" xmlns="http://www.w3.org/2000/svg" version="1.1" viewBox="0 0 1080 1080">
  <!-- Generator: Adobe Illustrator 30.0.0, SVG Export Plug-In . SVG Version: 2.1.1 Build 123)  -->
  <defs>
    <style>
      .st0 {
        fill: #862c29;
      }

      .st1 {
        fill: none;
        stroke: #862c29;
        stroke-miterlimit: 10;
        stroke-width: .5px;
      }
    </style>
  </defs>
  <g>
    <path class="st0" d="M710.49,381.09c-.98,2.5-3.41,4.27-6.26,4.27-3.16,0-5.81-2.18-6.53-5.11,1.61,1.97,4.05,3.23,6.79,3.23,2.32,0,4.43-.91,6-2.39"/>
    <g>
      <path class="st0" d="M277.95,612.05c5.19,2.89,10.56,5.4,15.39,8.68,10.91,7.41,19.26,17.03,21.74,30.35,4.03,21.62-2.81,39.13-20.89,52.07-10.28,7.35-21.82,11.51-34.1,13.92-19.77,3.87-39.18,2.25-58.14-4.33-13.02-4.52-24.16-11.79-31.95-23.52-9.59-14.43-9.55-36,.64-48.54,9.89-12.16,23.18-16.89,38.58-15.45,18.67,1.75,32.42,13.64,36.64,31.86,1.19,5.14,1.53,10.65,1.19,15.93-.83,13.14-17.54,20.37-28.78,12.72-7.79-5.31-10.42-15.12-6.3-23.52,4.1-8.36,13.87-12.42,22.73-9.46.68.23,1.4.37,2.6.68-1.9-4.76-4.66-8.1-8.6-10.38-7.18-4.16-14.77-3.26-21.44,2.44-5.97,5.1-9.03,11.92-10.83,19.29-2.42,9.88-1.49,19.5,3.7,28.39,5.84,10,14.84,15.67,26.08,17.76,7.27,1.35,14.63,1.78,21.86-.3,8.59-2.47,14.72-8.29,19.71-15.36,8.28-11.73,11.52-25.02,11.49-39.2-.02-10.5-1.99-20.52-7.86-29.49-4.98-7.62-11.74-12.66-20.87-13.97-3.31-.47-6.72-.22-10.09-.29-1.58-.03-1.55.98-1.18,2.02,1.16,3.23,2.16,6.56,3.66,9.64,2.57,5.29,5.39,10.46,8.29,15.58,1,1.77.6,2.93-.73,4.41-15.71-26.23-39.13-30.06-66.39-23.07-.66-1.58-.46-2.58,1.42-3.27,4.92-1.79,9.21-4.62,12.25-8.92,1.23-1.74,2.35-3.97,2.44-6.03.51-11.85-.53-23.53-4.96-34.71-2.18-5.48-4.84-10.67-11.15-12.13-5.99-1.39-11.96-.59-17.36,2.42-9.69,5.42-13.48,14.4-14.33,24.94-.56,6.95.99,13.36,5.25,19.02,4.75,6.32,12.52,8.01,19.4,4.13,1.23-.69,2.37-1.54,4.13-2.7-1.11-.11-1.52-.25-1.89-.18-12.47,2.55-23.69-8.05-21.94-20.74,1.23-8.96,9.16-16.09,18.09-16.27,8.91-.18,17.51,6.65,18.58,15.61,1.72,14.47-4.41,27.76-19.48,33.13-9.13,3.26-18.47,3.38-27.78.71-10.38-2.99-18.59-14.08-19.29-25.84-.99-16.55,7.23-28.91,23.4-35.26,7.95-3.12,16.23-4.44,24.71-4.45,32.63-.04,65.25-.02,97.88-.03,8.27,0,16.14,1.54,23.25,5.99,21.55,13.5,14.21,40.1-.83,49.48-5.16,3.22-10.78,5.02-16.76,5.86-.3.04-.61.05-.91.12-.12.03-.22.18-.3.24ZM237.05,589.42v.08c0,4.51.43,8.98.41,13.49,0,1.11.11,1.89,1.56,1.92,6.01.14,11.92-.24,17.63-2.33,10.18-3.73,16.65-13,16.24-23.4-.5-12.77-10.63-22.43-22.77-21.71-2.9.17-5.29,1.32-7.15,3.59-2.33,2.84-4.07,6.05-4.48,9.66-.7,6.21-.99,12.47-1.45,18.71Z"/>
      <path class="st0" d="M604.41,666.09c-13.07,10.93-30.66,16.8-51.18,16.8h-52.25v-2.4s15.99-7.2,15.99-45.59v-44.52c0-38.39-15.99-45.59-15.99-45.59v-2.4h68.25v2.4s-15.99,7.2-15.99,45.59v.53c2.4-4.8,6.13-8.53,10.93-11.2,11.73-6.66,28.79-6.13,41.32,1.87,30.39,19.73,24.26,63.45-1.06,84.51ZM559.89,591.18c-4.53,2.93-6.66,10.93-6.66,19.46v65.31c53.85,0,36.25-103.97,6.66-84.78Z"/>
      <path class="st0" d="M755.34,580.62v2.28s-15.2,6.84-15.2,43.32v10.89c0,36.48,15.2,43.82,15.2,43.82v2.28h-38.51c-6.08,0-10.89-4.81-10.89-10.89v-.25c-5.32,7.6-13.93,11.91-22.54,12.41-33.95,2.03-49.15-23.05-49.15-58.26s-15.2-43.32-15.2-43.32v-2.28h64.85v2.28s-15.2,6.84-15.2,43.32c0,27.36,6.84,50.41,24.82,46.1,6.59-1.52,12.41-7.09,12.41-30.15v-15.96c0-36.48-15.45-43.32-15.45-43.32v-2.28h64.85Z"/>
      <path class="st0" d="M815.13,549.97v2.28s-15.2,6.84-15.2,43.32v42.3c0,36.48,15.2,43.32,15.2,43.32v2.28h-64.85v-2.28s15.2-6.84,15.2-43.32v-42.3c0-36.48-15.2-43.32-15.2-43.32v-2.28h64.85Z"/>
      <path class="st0" d="M610.54,716.83c-.9-7.78-5.3-13.03-12.89-15.34-7.69-2.34-15.96.85-20.12,7.68-4.39,7.21-3.37,15.89,2.57,21.91,5.67,5.75,14.53,6.86,21.55,2.73.4-.23.86-.35,1.29-.52.23.17.46.33.69.5-1.43,3.15-2.57,6.48-4.36,9.41-3.22,5.25-7.72,6.24-13.23,3.38-5.31-2.75-8.65-7.41-11.79-12.25-2.87-4.42-5.46-9.07-8.72-13.18-8.71-10.97-19.8-19.07-32.26-25.3-17.84-8.93-36.67-13.96-56.77-13.58-2.41.04-4.81.13-7.57.2.41-.59.55-.95.81-1.14,4.09-3.05,6.9-7.13,9.19-11.59,6.82-13.26,9.2-27.65,10.18-42.28.26-3.89.4-7.77.46-11.65h.02s-.07-13.62-.07-13.62c0-.72-.14-4.15-.16-4.83l-.84-12.47c-.04-.59-.14-1.5-.2-2.09-4.05-34.11,10.24-38.1,10.24-38.1v-2.28h-64.85v2.28s13.2,9.89,17.83,40.15c.34,2.62.68,5.25,1,7.87l3.52,31.52c.67,6.47,1.34,12.93,2.03,19.4.73,6.82.08,13.6-1.45,20.28-1.5,6.55-5.09,11.56-8.61,17.66-.36.62-.83,1.61-1.23,2.44.85.26,1.73.63,2.55.75,5.05.72,17.32,1.22,25.29,5.28,13.05,6.66,24.03,16.01,34.33,26.24,8.79,8.73,17.31,17.74,26.26,26.32,7.42,7.11,15.62,13.18,25.22,17.32,16.89,7.29,34.74.31,43.49-12.61,6.27-9.26,7.88-19.64,6.63-30.49Z"/>
      <path class="st0" d="M444.47,581.77v2.26s-15.03,6.77-15.03,42.84v10.77c0,36.08,15.03,43.34,15.03,43.34v2.26h-38.08c-6.01,0-10.77-4.76-10.77-10.77v-.25c-5.26,7.52-13.78,11.78-22.3,12.28-33.57,2.01-48.61-22.8-48.61-57.62s-15.03-42.84-15.03-42.84v-2.26h64.14v2.26s-15.03,6.77-15.03,42.84c0,27.06,6.76,49.86,24.55,45.6,6.51-1.5,12.28-7.01,12.28-29.81v-15.78c0-36.08-15.28-42.84-15.28-42.84v-2.26h64.14Z"/>
    </g>
    <path class="st0" d="M951.33,406.98c-.11-.05-.26-.13-.43-.21-.64-.31-1.7-.82-3.14-1.48-.22-.09-.42-.18-.65-.29-.23-.1-.45-.19-.69-.3-.44-.2-.92-.41-1.42-.63-.03-.01-.05-.02-.09-.03-1.32-.58-2.82-1.2-4.49-1.89h-.01c-.29-.12-.58-.24-.88-.35-.34-.14-.69-.28-1.06-.42-.71-.28-1.44-.57-2.21-.86-.62-.24-1.27-.47-1.93-.72-1.23-.45-2.52-.92-3.85-1.38-.67-.23-1.35-.46-2.03-.7-.69-.24-1.39-.46-2.11-.7h-.01c-.71-.25-1.41-.47-2.14-.7-1.04-.33-2.11-.66-3.2-.99-.02,0-.03,0-.04-.01-.02-.01-.03-.01-.04-.02h-.01c-4.27-1.26-8.85-2.5-13.67-3.56-.27-.05-.54-.12-.81-.17h-.01s0-.01,0-.01c-.42-.09-.84-.18-1.27-.27-.58-.13-1.16-.25-1.75-.36-1.06-.21-2.13-.42-3.21-.61-.71,1.24-1.45,2.46-2.21,3.67-1.8,2.87-3.7,5.66-5.71,8.37h0c-.31.44-.62.85-.95,1.27-1.16,1.55-2.37,3.07-3.59,4.57-.02.01-.03.02-.04.04-1.36,1.65-2.73,3.26-4.17,4.84-1.92,2.15-3.89,4.23-5.91,6.23-2.33,2.31-4.69,4.53-7.11,6.63-1.97,1.74-3.97,3.4-5.99,5-2.33,1.83-4.67,3.59-7.04,5.25-2.3,1.62-4.62,3.14-6.93,4.57-1.75,1.09-3.5,2.13-5.24,3.1.69-.11,1.39-.23,2.09-.36.06-.01.13-.02.18-.03.32-.05.65-.11.97-.17.94-.17,1.87-.36,2.81-.54.08-.01.15-.03.23-.04.01,0,.03-.01.05-.01t.04-.01h.02s.02,0,.02,0c.01,0,.01-.01.01-.01h.01c.81-.15,1.63-.33,2.43-.5.11-.02.2-.04.31-.07.11-.02.2-.04.31-.08.1-.02.2-.04.3-.07.09-.01.17-.03.27-.05h.01c1.1-.24,2.2-.49,3.29-.74.1-.01.19-.04.29-.08.03,0,.06-.01.1-.02.03,0,.06-.01.1-.02.15-.03.3-.07.45-.11l.78-.2c.12-.02.24-.05.39-.1.72-.16,1.44-.33,2.16-.52.29-.08.57-.14.85-.21s.57-.14.86-.22c.16-.03.31-.08.46-.11l2.16-.55,1-.26s.06-.02.09-.03c.36-.1.71-.18,1.08-.28.18-.05.37-.11.55-.15.54-.15,1.08-.3,1.63-.44.02,0,.03,0,.06-.01h0s.01.01.01.01c.01,0,.01-.01.02-.01s.01,0,.03-.01c0,0,.01,0,.02-.01h.03s.01,0,.01,0h.01s.02-.01.02-.01c0-.01.01-.01.01-.01h.01c1.48-.4,2.95-.82,4.41-1.27.88-.26,1.77-.52,2.64-.78l.74-.23c.17-.05.36-.11.54-.16.18-.05.37-.11.55-.16.75-.24,1.51-.47,2.25-.7.75-.23,1.5-.47,2.24-.69.58-.18,1.16-.37,1.74-.56.87-.28,1.74-.56,2.62-.85.48-.16.96-.31,1.44-.48.16-.05.31-.11.46-.16.16-.05.31-.11.47-.16.01,0,.03-.01.04-.01.31-.11.62-.22.94-.31.22-.08.42-.14.62-.22.31-.1.62-.21.94-.31.05-.02.1-.03.15-.05.71-.24,1.42-.49,2.11-.74.16-.05.31-.1.46-.15.54-.19,1.07-.38,1.59-.56h.01c.12-.04.24-.09.36-.13h.01c1.38-.49,2.73-.98,4.07-1.48.75-.27,1.5-.55,2.24-.82.01,0,.03-.01.04-.01.66-.25,1.31-.5,1.97-.75.24-.09.46-.17.69-.26.43-.16.84-.31,1.3-.49t.02-.01s.01.01.02,0c.12-.05.25-.11.38-.15.13-.05.26-.1.39-.15h.01c.39-.15.75-.3,1.13-.44.12-.04.23-.09.33-.13.55-.21,1.09-.41,1.63-.63h.01c.52-.21,1.02-.41,1.52-.59.06-.03.12-.05.18-.08.05-.02.11-.04.16-.06.38-.16.76-.31,1.14-.45.12-.04.25-.1.37-.14.56-.23,1.11-.45,1.67-.67.06-.03.13-.05.2-.09.24-.1.47-.21.71-.29.24-.1.47-.19.71-.28t.03-.01c.11-.05.23-.1.34-.15.09-.03.17-.06.25-.1.41-.17.81-.34,1.21-.5.08-.03.16-.06.24-.1.16-.06.31-.13.46-.19.01,0,.02,0,.03-.01.53-.21,1.04-.42,1.55-.64.14-.05.27-.11.41-.17.16-.06.32-.13.5-.19.32-.14.65-.27.97-.41.33-.14.67-.28.99-.42.4-.17.79-.34,1.17-.5.39-.16.78-.32,1.15-.49.12-.04.24-.1.34-.14.01,0,.01-.01.02-.01h0c.08-.04.14-.08.22-.11.03-.01.06-.02.1-.03.28-.13.56-.25.84-.37.02-.01.04-.01.06-.02.29-.13.57-.25.85-.38.31-.13.61-.26.9-.39.56-.24,1.11-.49,1.65-.72.04-.01.09-.03.13-.05.33-.15.67-.29.99-.43.04-.02.09-.04.13-.05.26-.13.53-.24.79-.36.1-.04.19-.1.3-.14.09-.04.17-.08.26-.11.05-.02.11-.04.16-.08.17-.08.33-.14.48-.22.6-.27,1.18-.53,1.74-.78.23-.11.45-.22.68-.31.6-.27,1.18-.54,1.74-.79.19-.09.39-.18.58-.26.02-.02.05-.03.09-.05.03-.01.06-.02.09-.03.08-.04.16-.08.24-.12.1-.04.18-.08.27-.12.03-.02.08-.03.11-.05.03-.02.08-.04.11-.05.05-.02.11-.04.15-.06.42-.19.83-.38,1.21-.56,1.58-.73,2.92-1.37,3.97-1.88.12-.05.22-.11.32-.15.17-.09.33-.16.5-.25.09-.03.16-.08.24-.12.1-.04.18-.09.27-.12.3-.15.57-.28.8-.39.18-.1.34-.17.47-.24.01,0,.02-.01.03-.02.02,0,.04-.01.06-.02.01,0,.02-.01.03-.02,0,0,.02-.01.03-.02h.01s.04-.01.05-.02.02-.01.03-.02c.01,0,.03-.01.06-.02.02-.02.03-.02.05-.03h.01s-.12-.08-.25-.14Z"/>
    <path class="st0" d="M742.55,419.65v.02s-.03-.02-.05-.03c.02,0,.03,0,.05.02Z"/>
    <path class="st0" d="M708.18,459.72l-1.42-.09c.05-.76.1-1.52.12-2.27v-.16c.04-.82.05-1.62.05-2.43,0-28.37-16.83-53.97-42.87-65.24-5.4-2.34-11.06-3.99-16.82-4.91-.19-.03-.31-.05-.42-.07l.27-1.4-.14.7.27-.69.13.03c5.99.96,11.76,2.65,17.27,5.03,26.57,11.5,43.73,37.62,43.73,66.55,0,.84-.01,1.66-.05,2.49-.01.89-.07,1.68-.12,2.46Z"/>
    <path class="st0" d="M882.02,581.56l-1.34-2.03c-2.33-3.71-4.98-7.27-7.9-10.57-.85-.97-1.79-2-2.89-3.13l-.53-.53c-1.56-1.58-3.21-3.1-4.9-4.54-.13-.13-.23-.21-.32-.28-.14-.13-.27-.23-.39-.33l-.19-.15c-.12-.08-.28-.2-.44-.33l-.19-.15c-.42-.35-.83-.67-1.23-.97-.56-.46-1.12-.86-1.67-1.26l-1.38-1.02c-.16-.13-.32-.24-.48-.35-.19-.14-.37-.25-.54-.36-2.78-1.91-5.7-3.66-8.71-5.2-.93-.45-1.87-.91-2.82-1.36-.31-.16-.57-.29-.86-.42-.88-.39-1.77-.78-2.67-1.14-1.43-.59-2.95-1.16-4.51-1.68l-.48-.15c-1.13-.38-2.23-.72-3.35-1.04-.99-.27-2.01-.54-3.03-.78v-.74s-.17.7-.17.7l-.21-.05c-.8-.2-1.65-.38-2.5-.55-2.82-.58-5.61-1-8.31-1.24l-.63-.05c-3.55-.35-7.24-.45-10.81-.29-.69.03-1.28.07-1.87.12-1.58.08-3.23.23-4.91.44-.03,0-.12.02-.2.03l-1.35.19c-.21.04-.44.08-.66.08-.09.03-.31.06-.53.09l-.61.09c-.29.04-.57.08-.86.09-.8.12-1.67.2-2.55.27-.05.02-.18.04-.31.04-.1.02-.27.03-.45.03-1.45.15-3.04.24-4.77.27-.6.02-1.19.02-1.78.02h-.33c-1.45,0-2.76-.04-3.99-.12-2.16-.1-4.46-.31-6.83-.64-.05.01-.2-.01-.35-.03l-1.01-.16c-3.12-.46-6.22-1.13-9.22-1.97-.65-.17-1.31-.36-1.98-.57l-.34-.1c-.52-.16-1.01-.32-1.5-.49-1.36-.44-2.7-.91-3.95-1.4l-1.68-.67c-.16-.07-.24-.1-.31-.15l-.41-.17c-.34-.14-.67-.28-1-.43-.27-.14-.49-.24-.71-.34-.28-.13-.55-.26-.8-.38-.9-.38-1.81-.85-2.5-1.2-4.5-2.29-8.78-5.01-12.71-8.06-3.18-2.46-6.14-5.12-8.79-7.91-.82-.83-1.66-1.75-2.5-2.74-.16-.17-.34-.38-.52-.6l-.31-.37c-.38-.41-.75-.85-1.11-1.29-.19-.22-.39-.48-.57-.74l-.2-.25c-1.1-1.37-2.19-2.83-3.24-4.36-.04-.05-.1-.12-.15-.21-.06-.07-.11-.14-.15-.22-.97-1.4-1.9-2.88-2.77-4.4-.56-.94-1.1-1.91-1.62-2.88,0,0-.06-.08-.1-.18-.13-.23-.24-.45-.36-.68-1.09-2.11-1.97-4.01-2.71-5.81-.06-.11-.12-.25-.18-.42-.11-.25-.22-.54-.32-.82-.86-2.09-1.66-4.34-2.35-6.67-.34-1.13-.78-2.63-1.16-4.17-.31-1.33-.63-2.75-.9-4.21-.07-.37-.14-.76-.19-1.15-.04-.21-.06-.33-.06-.44-.39-2.19-.69-4.64-.89-7.17-.06-.78-.11-1.48-.12-2.17-.01-.2-.02-.27-.02-.34-.05-.7-.07-1.44-.09-2.2-.02-.58-.02-1.08-.02-1.59,0-.94,0-1.88.05-2.8.02-.44.05-.89.08-1.34v-.23c.02-.24.02-.46.02-.71l1.43-.14c0,.41,0,.67-.02.94l-.72.18.71.05c-.03.44-.06.87-.08,1.31-.05.91-.05,1.82-.05,2.74,0,.49,0,.98.02,1.49.02.81.03,1.53.09,2.26l-.7.21.71-.05c0,.07,0,.15,0,.22.02.65.06,1.32.11,2,.2,2.55.49,4.96.89,7.22l-.67.34.7-.14.03.17c.05.37.12.73.18,1.08.26,1.44.58,2.84.88,4.14.37,1.5.8,2.97,1.14,4.09.68,2.29,1.46,4.49,2.31,6.55.11.28.21.55.32.81.06.15.1.25.16.36.75,1.81,1.62,3.67,2.67,5.72.13.26.24.47.36.69l.06.13c.54.99,1.07,1.94,1.63,2.87.87,1.51,1.79,2.98,2.75,4.37l.18.28c1.1,1.59,2.17,3.03,3.25,4.37l.22.27c.19.26.36.48.54.69.35.43.7.85,1.08,1.27l.28.34c.21.25.37.44.54.62.84.98,1.66,1.88,2.46,2.69,2.61,2.74,5.51,5.36,8.64,7.77,3.87,3,8.07,5.67,12.49,7.92.67.35,1.55.8,2.44,1.18.27.14.53.25.78.37.22.09.47.21.71.34.33.15.65.29.98.43l2.36.97c1.21.47,2.52.93,3.88,1.37.49.17.96.33,1.45.48l.35.1c.66.21,1.3.39,1.94.56,2.95.83,5.99,1.49,9.05,1.94,0-.02.14.02.29.06l.71.09c.08.01.16.03.25.03,2.42.33,4.67.54,6.81.64,1.22.08,2.49.12,3.91.12h.34c.57,0,1.14,0,1.73-.02,1.7-.04,3.25-.13,4.74-.27.19,0,.3-.02.42-.03l.29-.04c.84-.07,1.69-.15,2.51-.27.31-.02.55-.05.79-.09.19-.03.41-.06.62-.09l.61-.09c.26,0,.4-.04.54-.06l1.2-.16s.12-.03.22-.04l.2-.03c1.72-.22,3.4-.37,4.99-.45.58-.05,1.19-.09,1.79-.12h.14c3.54-.16,7.37-.06,10.98.29l.58.05c2.8.25,5.65.67,8.51,1.26.86.17,1.73.36,2.58.57l.37.09c1,.23,2.04.51,3.06.79,1.15.33,2.28.68,3.4,1.06l.47.15c1.62.54,3.16,1.12,4.61,1.72.91.36,1.81.76,2.71,1.16.33.14.61.29.92.45.93.43,1.88.9,2.83,1.36,3.07,1.58,6.05,3.35,8.86,5.28.18.11.38.24.58.39.17.12.35.25.52.38l1.35,1c.57.42,1.15.84,1.71,1.29.4.3.82.63,1.24.98l.19.14c.14.11.27.22.42.31l.22.18c.14.12.29.24.43.36.09.08.23.2.35.32,1.68,1.42,3.35,2.97,4.94,4.58,0-.03.05.04.12.1l.41.43c1.12,1.16,2.08,2.2,2.95,3.19,2.56,2.9,4.92,5.99,7.03,9.2,0-.3,0-.6-.01-.9v-.21c0-.06,0-.12,0-.18-.07-2.36-.17-4.2-.32-5.86v-.32c-.1-1.26-.26-2.69-.48-4.44-.14-1.11-.29-2.21-.48-3.3-.02-.14-.03-.23-.06-.34-.32-1.93-.68-3.8-1.09-5.61-.04-.18-.06-.31-.1-.43-.08-.39-.16-.7-.24-1.01-.03-.12-.05-.2-.07-.28l-.04-.17c-.02-.06-.03-.11-.04-.17l-.04-.16c-.18-.76-.37-1.48-.56-2.21-.13-.48-.52-1.82-.62-2.11l-.35-1.27c-.84-2.71-1.88-5.57-3.15-8.68-.75-1.79-1.57-3.62-2.45-5.43-.79-1.65-1.69-3.36-2.83-5.4-.5-.9-1.04-1.79-1.57-2.67-.32-.55-.63-1.04-.93-1.51-.27-.43-.49-.8-.73-1.15-.04-.05-.09-.12-.13-.2l-.86-1.29c-.32-.49-.66-.97-1.01-1.46h0l-.23-.31c-1.67-2.4-3.51-4.78-5.64-7.29-1.32-1.55-2.59-2.96-3.88-4.33-2.76-2.88-5.71-5.62-8.75-8.12-1.94-1.61-3.93-3.13-5.93-4.53-1.74-1.25-3.61-2.48-5.71-3.77-1.74-1.08-3.51-2.09-5.26-2.99-.26-.15-.48-.27-.71-.38l-1.8-.92c-2.77-1.43-5.54-3.02-8.2-4.73-11.5-7.35-21.36-16.72-29.29-27.87-.9-1.29-1.93-2.79-2.9-4.32-.09-.16-.18-.29-.27-.43-.09-.15-.19-.3-.28-.45-1.01-1.6-2.07-3.4-3.2-5.48-2.76-5.07-5.09-10.32-6.91-15.62-.12-.31-.21-.58-.3-.84-.46-1.33-.88-2.65-1.22-3.92-.39-1.32-.77-2.66-1.12-4.03-.6-2.36-1.12-4.8-1.55-7.24-.07-.49-.15-.93-.25-1.4l-.02-.15c-.12-.67-.27-1.42-.46-2.18l-.04-.15c-.89-3.93-2.21-7.77-3.91-11.4l-.07-.14c-.36-.76-.73-1.53-1.12-2.28l-.02-.02-.11-.22c-1.3-2.47-2.84-4.92-4.56-7.26-.55-.76-1.14-1.52-1.83-2.35l-.22-.26c-.06-.07-.12-.15-.2-.22-.3-.37-.58-.68-.84-.97-.24-.27-.47-.53-.71-.77-1.28-1.42-2.58-2.73-3.87-3.89-1.43-1.31-2.9-2.52-4.39-3.61-1-.73-2-1.44-3.04-2.12-1.03-.68-2.08-1.32-3.21-1.95-1.19-.66-2.26-1.22-3.28-1.71-.3-.14-.61-.28-.94-.44l-1.79-.79c-3.08-1.28-6.33-2.31-9.66-3.05h-.13s-.99-.22-.99-.22c-1.16-.25-2.29-.45-3.37-.59-1.37-.19-2.63-.32-3.95-.41-2.82-.21-5.56-.2-8.29,0-.31.02-.62.05-.92.08-1.01.08-1.96.21-2.93.33l-.19.03c-1.81.26-3.61.6-5.35,1.02-4.68,1.14-9.21,2.85-13.45,5.1-1.84.99-3.61,2.05-5.26,3.15l-.19.12c-.09.08-.28.21-.47.33l-.74-1.22c.15-.09.31-.2.48-.32l.22-.14c1.59-1.08,3.4-2.16,5.29-3.17,4.35-2.31,8.99-4.06,13.79-5.23,1.78-.43,3.63-.78,5.49-1.04l.2-.03c.99-.13,1.97-.26,2.98-.34.3-.03.64-.07.96-.09,2.77-.2,5.6-.21,8.48,0,1.35.09,2.65.23,3.98.42,1.17.15,2.34.35,3.53.61l1.07.21c3.44.76,6.79,1.82,9.98,3.14l1.83.8c.34.15.66.3.97.45,1.05.51,2.14,1.08,3.35,1.75,1.16.64,2.24,1.3,3.31,2,1.05.69,2.08,1.42,3.1,2.16,1.53,1.12,3.04,2.37,4.5,3.7,1.32,1.19,2.66,2.53,3.96,3.98.24.25.48.52.71.78.29.32.58.65.84.98.05.04.14.15.23.26l.22.26c.7.85,1.32,1.64,1.88,2.42,1.76,2.4,3.34,4.91,4.69,7.46.48.92.88,1.74,1.27,2.55.02,0,.06.1.1.22,1.72,3.64,3.07,7.57,3.98,11.61.22.91.38,1.7.52,2.51.1.49.19.96.26,1.46.42,2.39.94,4.79,1.53,7.11.34,1.34.72,2.67,1.11,3.99.35,1.25.75,2.54,1.21,3.86.08.26.17.5.26.75,1.83,5.3,4.12,10.48,6.84,15.48,1.12,2.05,2.15,3.82,3.16,5.41.09.16.18.29.27.43.09.15.19.3.28.45.94,1.49,1.97,2.97,2.85,4.24,7.82,10.99,17.54,20.24,28.89,27.49,2.63,1.69,5.35,3.26,8.09,4.67l1.8.92c.25.13.5.26.74.4,1.74.9,3.54,1.93,5.31,3.03,2.13,1.31,4.02,2.55,5.78,3.82,2.02,1.42,4.05,2.96,6.01,4.59,3.08,2.54,6.07,5.31,8.88,8.24,1.32,1.38,2.6,2.82,3.94,4.39,2.08,2.46,3.9,4.8,5.55,7.15l.19.24c.36.5.7.99,1.04,1.48h0l1.18,1.83c.25.33.48.71.72,1.1.34.53.65,1.04.95,1.54.57.94,1.11,1.84,1.62,2.76,1.15,2.06,2.06,3.8,2.87,5.47.89,1.83,1.73,3.69,2.49,5.51,1.3,3.16,2.34,6.06,3.2,8.88l.34,1.17c.1.27.5,1.67.61,2.06.23.86.43,1.6.61,2.37,0,0,.02.08.04.14l.05.18c.02.07.03.13.05.2l.04.16c.1.4.18.73.25,1.06.03.09.08.27.11.46.41,1.85.78,3.74,1.09,5.65.03.11.05.25.07.42.19,1.08.34,2.21.48,3.33.23,1.77.38,3.22.48,4.56v.31c.15,1.64.25,3.5.31,5.79.01.05.02.17.02.31v.19c.02.6.02,1.25.02,1.87,0,.37,0,.72-.02,1.1,0,.12,0,.29-.02.44l-.26,1.86Z"/>
    <path class="st0" d="M815.83,606.46c-1.4,0-2.81-.29-4.14-.86-5.22-2.28-7.62-8.39-5.34-13.61.96-2.19,2.66-4,4.8-5.08l.14-.06c.36-.18.73-.34,1.12-.46,10.02-4.34,18-12.29,22.4-22.37,1.32-3.04,2.3-6.22,2.9-9.45l.52-2.82.86,2.74c3.21,10.24,2.61,21.31-1.7,31.16h0c-3.4,7.79-8.9,14.41-15.92,19.14l-.18.12c-1.67,1.03-3.56,1.56-5.47,1.56ZM838.49,557.66c-.6,2.36-1.39,4.68-2.37,6.93-4.54,10.41-12.79,18.62-23.22,23.13-.39.12-.69.26-.98.4l-.14.07c-1.82.92-3.29,2.48-4.12,4.37-1.96,4.5.1,9.77,4.6,11.73,2.69,1.17,5.78.95,8.28-.6,0-.02.1-.07.18-.11,6.75-4.55,12.07-10.96,15.37-18.5h0c3.79-8.67,4.61-18.3,2.4-27.42Z"/>
    <path class="st0" d="M835.6,629.82c-.2,0-.4,0-.6-.01-3.58-.16-6.88-1.7-9.3-4.34-2.42-2.64-3.67-6.07-3.51-9.65.14-3.1,1.36-6.08,3.44-8.39l.14-.14c.31-.34.69-.72,1.13-1.07,10.34-10.15,16.42-23.78,17.06-38.33.19-4.39-.11-8.78-.91-13.06l-.53-2.82,1.79,2.25c8.77,11.04,13.26,24.9,12.63,39.02h0c-.49,11.16-4.12,21.88-10.49,30.99l-.11.15c-2.59,3.44-6.56,5.41-10.76,5.41ZM844.92,557.42c.47,3.47.63,7,.47,10.53-.66,14.91-6.89,28.88-17.55,39.33-.42.34-.75.68-1.03.97-.01.02-.09.11-.16.16-1.82,2.02-2.92,4.68-3.04,7.46-.14,3.2.97,6.26,3.13,8.62,2.16,2.36,5.11,3.74,8.31,3.88,3.96.15,7.72-1.6,10.1-4.75,0-.01.07-.11.15-.21,6.19-8.86,9.73-19.31,10.21-30.21h0c.57-12.82-3.18-25.42-10.6-35.79Z"/>
    <path class="st0" d="M868.97,639.3c-2.06,0-4.12-.42-6.07-1.26-3.79-1.62-6.72-4.63-8.25-8.46-1.33-3.32-1.45-7.02-.36-10.42l.74.04-.69-.19c.19-.56.4-1.15.69-1.71,6.09-15.68,6.02-33-.25-48.7-1.89-4.73-4.31-9.23-7.2-13.37l-1.64-2.36,2.55,1.32c14.5,7.46,25.83,19.94,31.89,35.12h0c4.79,12,6.07,25.02,3.69,37.66l-.05.21c-1.14,5.06-4.63,9.14-9.34,11.02-1.85.74-3.79,1.11-5.72,1.11ZM850.37,556.82c2.25,3.55,4.18,7.32,5.75,11.25,6.4,16.03,6.48,33.72.22,49.82-.28.55-.47,1.07-.62,1.52,0,.04-.05.15-.08.23-.98,3.05-.86,6.41.34,9.42,1.39,3.48,4.05,6.2,7.48,7.67,3.44,1.47,7.24,1.52,10.71.13,4.28-1.71,7.44-5.41,8.47-9.91,0-.02.02-.15.06-.28,2.32-12.34,1.07-25.09-3.62-36.83h0c-5.58-13.98-15.72-25.6-28.71-33.02Z"/>
    <path class="st0" d="M863.84,620.26s.03-.04.06-.13c.06-.13.18-.35.34-.64,0-.01,0-.03.01-.03,1.83-3.76,9.06-20.1,3.6-34.35,0,0,12.31,18.14,5.7,38.07h0s0,0,0,0h0c-.48,2.32-2.53,4.06-4.98,4.06-2.81,0-5.09-2.28-5.09-5.09,0-.67.13-1.3.36-1.88,0,0,.03-.04.06-.13.01-.04.04-.06.05-.12.08-.19.17-.36.28-.53,0-.01,0-.03.01-.03h0s-.41.8-.41.8Z"/>
    <path class="st0" d="M832.18,611.7s.04-.02.11-.08c.11-.08.29-.21.54-.39,0-.01.01-.02.02-.02,3.03-2.32,15.56-12.67,16.15-26.51,0,0,3.96,19.79-9.39,33.32h0s0,0,0,0h0c-1.29,1.69-3.75,2.28-5.9,1.27-2.47-1.15-3.61-3.94-2.55-6.22.25-.55.61-1.01,1.03-1.39,0,0,.04-.02.11-.08.03-.03.06-.04.09-.07.14-.13.28-.23.45-.31,0-.01.01-.02.02-.02h0s-.67.48-.67.48Z"/>
    <path class="st0" d="M815.67,592.78s.02,0,.07-.01c.07-.01.19-.03.36-.06,0,0,0,0,.01,0,2.06-.38,10.77-2.34,14.5-8.98,0,0-2.98,10.68-12.88,14h0s0,0,0,0h0c-1.05.51-2.4.18-3.21-.84-.93-1.18-.79-2.83.3-3.68.26-.2.55-.34.85-.42,0,0,.02,0,.07-.01.02,0,.04,0,.06-.01.1-.03.2-.04.3-.04,0,0,0,0,.01,0h0s-.45.07-.45.07Z"/>
    <path class="st0" d="M695.88,415.91l-.27-1.4c22.26-4.27,38.52-23.83,38.67-46.52h1.43c-.15,23.38-16.91,43.53-39.83,47.93Z"/>
    <path class="st0" d="M698.56,420.25l-.32-1.39c13.66-3.15,25.78-11.81,33.24-23.75,1.33-2.12,2.53-4.39,3.59-6.81.79-1.78,1.48-3.62,2.07-5.53.77-2.41,1.37-4.97,1.79-7.69.24-1.55.41-3.13.51-4.7l1.42.09c-.1,1.62-.28,3.24-.52,4.81-.43,2.82-1.05,5.45-1.83,7.85-.62,2.02-1.33,3.92-2.12,5.7-1.1,2.52-2.34,4.86-3.68,7-7.68,12.29-20.12,21.18-34.15,24.41Z"/>
    <path class="st0" d="M751.85,378.72s5.18,14.35-6.23,14.61c0,0,3.4,14.44-10.63,13.81,0,0,.54,12.93-14.91,12.61,0,0-2.72,13.14-17.53,8.46l-3.87-8.17,5.64-1.63,8.82-4.01,8.35-5.87,8.72-9.47,6.95-13.17,2.84-12.25.26-3.14,7.16,4.56,4.44,3.66Z"/>
    <path class="st0" d="M877.06,550.54c-.97-1.81-1.89-3.38-2.83-4.78-2.08-3.06-4.3-5.37-7.02-7.23-.89-.61-1.88-1.2-2.96-1.75-1.16-.6-2.44-1.17-4.01-1.77-2.82-1.07-5.94-1.94-9.8-2.73-1.52-.32-3.03-.6-4.54-.87-1.46-.26-2.89-.5-4.33-.72-2.99-.5-6.01-.98-9.03-1.46l-9.73-1.56c-3.18-.52-6.36-1.07-9.47-1.65-3.87-.73-6.99-1.37-9.82-2.01-4.02-.92-7.54-1.82-10.74-2.76-3.17-.9-6.04-1.83-8.78-2.83-4.84-1.74-9.44-3.75-13.69-5.97-1.77-.92-3.33-1.8-4.78-2.68-1.62-.96-3.27-2.02-4.9-3.14-3.15-2.18-6.02-4.53-8.53-6.99-1.69-1.64-3.29-3.41-4.73-5.25-2.6-3.29-4.69-6.8-6.22-10.44-.51-1.2-.88-2.24-1.19-3.26-.21-.61-.41-1.28-.58-1.98-.08-.2-.15-.47-.21-.76-2.54-10.24-1.03-21.91,4.37-33.71,1.04-2.26,2.23-4.52,3.52-6.74,1.81-3.12,3.95-6.3,6.36-9.44l.12-.16c1.51-1.93,2.94-3.64,4.38-5.21,2.22-2.47,4.58-4.83,7.03-7l.12-.1c1.4-1.26,2.91-2.5,4.45-3.69l.87,1.13c-1.51,1.17-2.99,2.39-4.38,3.64l-.12.1c-2.4,2.12-4.72,4.44-6.91,6.88-1.42,1.55-2.83,3.22-4.31,5.13l-.12.15c-2.38,3.09-4.48,6.21-6.26,9.28-1.27,2.18-2.43,4.4-3.45,6.62-5.26,11.51-6.74,22.85-4.28,32.81.05.25.11.46.19.67.18.72.36,1.35.57,1.94.3,1,.67,1.99,1.15,3.15,1.48,3.52,3.5,6.92,6.03,10.11,1.4,1.79,2.95,3.51,4.6,5.11,2.46,2.41,5.26,4.7,8.35,6.84,1.6,1.1,3.23,2.14,4.83,3.1,1.42.87,2.96,1.73,4.7,2.64,4.19,2.19,8.73,4.18,13.51,5.9,2.71.99,5.55,1.91,8.68,2.8,3.19.93,6.67,1.82,10.67,2.74,2.81.64,5.92,1.28,9.77,2,3.09.57,6.27,1.13,9.43,1.64l9.72,1.56c3.02.48,6.04.96,9.03,1.46,1.44.22,2.88.46,4.33.72,1.55.28,3.08.55,4.6.88,3.93.8,7.12,1.69,10.02,2.79,1.63.63,2.95,1.21,4.16,1.84,1.12.58,2.17,1.2,3.11,1.85,2.86,1.97,5.21,4.39,7.39,7.61.96,1.45,1.91,3.05,2.9,4.9l-1.26.67Z"/>
    <path class="st0" d="M871.13,534.02c-.91-1.39-2.36-2.69-4.31-3.87-1.76-1.09-3.93-2.11-6.46-3.04-9.11-3.36-20.29-4.68-20.4-4.7-3.95-.69-8-1.33-11.93-1.95-21.69-3.44-44.11-6.99-62.54-19.71-8.08-5.59-13.79-12.22-16.95-19.71-8.75-20.77,4.99-46.59,23.07-61.36l.45.55c-17.88,14.61-31.47,40.09-22.87,60.53,3.11,7.36,8.73,13.89,16.7,19.4,18.3,12.62,40.64,16.16,62.25,19.59,3.93.62,7.99,1.27,11.92,1.95.09,0,11.35,1.34,20.54,4.73,2.57.94,4.79,1.99,6.58,3.1,2.04,1.23,3.57,2.61,4.53,4.09l-.6.39Z"/>
    <path class="st0" d="M863.11,520.1h-.12l-.11-.08c-7.21-5.6-24.65-7.37-24.82-7.39-3.45-.54-6.99-1.05-10.42-1.53-18.8-2.66-38.23-5.42-54.21-16.18-7.02-4.75-11.97-10.44-14.71-16.9-7.46-17.6,3.69-37.71,15.5-49.59l.51.5c-11.65,11.72-22.67,31.53-15.35,48.8,2.69,6.33,7.55,11.91,14.45,16.59,15.84,10.67,35.19,13.41,53.91,16.06,3.43.49,6.97.99,10.41,1.53.7.07,17.8,1.81,25.17,7.53l-.21.27v.37Z"/>
    <path class="st0" d="M647.23,384.61s-10.56-1.69-20.18-3.2l.16-1.42c2.37.18,4.86.29,7.4.34,2.34.04,4.8.02,7.31-.06,2.28-.07,4.64-.2,7.01-.37,2.09-.15,4.28-.34,6.51-.57,1.93-.2,3.86-.43,5.79-.69,1.63-.21,3.25-.45,4.87-.7.92-.14,1.85-.3,2.76-.45l1.05-.18c2.15-.36,4.18-1.11,6.05-2.22,1.09-.65,2.19-1.34,3.37-2.14l.49.53.38.6c-1.28.86-2.4,1.57-3.51,2.23-2.02,1.2-4.22,2.01-6.51,2.4l-1.09.18c-.93.16-1.85.31-2.78.46-1.63.25-3.27.49-4.91.71-1.94.26-3.89.48-5.83.69-2.24.23-4.45.43-6.55.58-2.39.17-4.77.29-7.07.37-1.18.04-2.35.06-3.5.07,5.15.82,8.99,1.43,8.99,1.43l-.23,1.41Z"/>
    <path class="st0" d="M724.08,364.67c-1.11-.24-2.26-.45-3.41-.6h-.07c-1.3-.19-2.61-.33-3.93-.41h-.03c-1.36-.1-2.73-.15-4.1-.15s-2.85.05-4.25.15c-.31.02-.63.05-.94.09-5.23-2.93-23.29-13.96-25.7-27.27,0,0,4.55,6.86,14.92,8.3h.02c-7.98-14.24-6.71-22.87-6.71-22.87,7.24,20.84,29.14,38.82,34.2,42.76Z"/>
    <path class="st0" d="M838.97,466.38c-6.78,0-13.32-.61-19.51-1.82-7.1-1.39-16.09-3.78-22.63-9.98l-2.26-2.14,2.96.94c2.09.66,4.42,1.08,6.94,1.24,2.57.16,5.34.05,8.23-.32,2.11-.26,4.42-.68,6.88-1.27,26.55-6.37,47.57-24.08,60.52-37.81,5.89-6.25,11.22-12.99,15.82-20.05.43-.66.86-1.32,1.27-1.99.75-1.2,2.2-3.65,2.2-3.66l.26-.43.49.09s2.9.55,3.21.61c1.12.22,2.23.46,3.34.71,2.17.48,4.41,1.02,6.65,1.6,8.82,2.29,17.42,5.11,25.55,8.39l2.38.96c.79.32,1.59.65,2.38.98.79.33,1.58.66,2.37,1,.79.34,1.57.69,2.36,1.05.1.03.26.11.42.19l3.75,1.85-.39.64c-.08.13-2.02,3.3-3.09,4.9-11.86,17.84-30.25,32.46-53.19,42.29-15.22,6.52-31.41,10.45-48.14,11.67-.56.04-1.12.08-1.68.11-2.4.15-4.78.22-7.13.22ZM800.14,455.52c5.99,4.51,13.5,6.45,19.59,7.64,8.22,1.6,17.06,2.14,26.28,1.57.55-.03,1.11-.07,1.66-.11,16.56-1.21,32.6-5.1,47.68-11.55,22.68-9.72,40.86-24.17,52.57-41.77.76-1.14,2.01-3.15,2.65-4.19l-2.38-1.14c-.1-.05-.2-.1-.3-.14-.84-.38-1.62-.72-2.4-1.06-.78-.34-1.57-.67-2.35-1-.79-.33-1.58-.65-2.37-.98l-2.37-.96c-8.08-3.26-16.62-6.06-25.38-8.34-2.23-.58-4.45-1.11-6.6-1.59-1.1-.24-2.21-.48-3.31-.7-.23-.04-1.87-.36-2.71-.52-.45.76-1.4,2.35-1.97,3.25-.42.67-.85,1.34-1.29,2.01-4.65,7.12-10.03,13.94-15.98,20.25-13.09,13.88-34.33,31.77-61.23,38.22-2.51.6-4.88,1.04-7.03,1.3-2.98.38-5.84.49-8.5.33-1.48-.09-2.9-.27-4.25-.54Z"/>
    <path class="st0" d="M737.48,432.34c-.1-.07-.22-.14-.34-.21-.51-.29-.98-.6-1.39-.93.57.38,1.15.75,1.73,1.13Z"/>
    <path class="st0" d="M726.53,514.34l.26.31c-.09-.1-.19-.21-.27-.31-.39-.43-.75-.86-1.1-1.29-.19-.21-.38-.46-.55-.69-.07-.09-.14-.19-.21-.29.07.09.15.19.22.27.17.24.36.48.55.7.34.43.7.86,1.1,1.29Z"/>
    <path class="st0" d="M864.93,560.21c-.12-.09-.22-.19-.34-.27-.19-.15-.38-.33-.57-.5.19.15.39.31.58.48.1.09.22.19.33.29Z"/>
    <path class="st0" d="M880.98,565.2h-.21c-3.55-.09-7.27,3.41-7.27,3.41l-3.17-3.59s1.94-8.59-1.01-9.71c-3.05-1.17-5.99,1.39-7.19,2.64-.55-.45-1.12-.86-1.68-1.27-.46-.31-.93-.65-1.39-1-.15-.12-.33-.24-.5-.36-.19-.14-.36-.26-.55-.39.19.12.38.24.57.38.17.12.34.24.5.36.79-4.32.62-8.47-2.06-9.57-2.66-1.1-5.7,1.41-7.56,3.38-.96-.57-1.96-1.1-2.95-1.6-.29-.15-.58-.27-.87-.41-.89-.45-2.88-.81-2.88-.81,0,0,1.77-10.45-.87-10.29-3.19.17-6.02,4.75-7.34,7.29-1.08-.21-2.14-.39-3.17-.6-.12-.02-.24-.05-.36-.07-.86-.17-1.72-.33-2.56-.48,0-.03.02-.07.02-.1.72-5.78-.75-8.82-4.37-8.44-3.28.36-6.19,4.37-7.67,6.78-2.69-.27-5.28-.41-7.8-.36h-.09c-.57,0-1.13.02-1.7.03,1.61-4.27,2.04-8.04-.98-8.8-6-1.49-10.12,7-11.6,10.67.15,0,.29-.02.45-.03-.14.02-.29.03-.45.05-1.18.14-2.66.22-4.46.26h-.33c-.6.02-1.18.02-1.77.02h-.33c-1.42,0-2.73-.03-3.95-.12-.98-4.2-3.19-8.89-7.79-9.4-5.46-.62-10.77,3.33-13.28,5.51-1.13-.36-2.42-.82-3.89-1.42-.55-.22-1.12-.45-1.66-.67-.07-.03-.14-.05-.19-.09-.51-.22-1.01-.43-1.51-.65-.24-.12-.48-.24-.72-.34-.26-.12-.51-.24-.75-.36-1.66-.84-2.76-1.54-3.5-2.14,1.87-4.48,3.57-11.03-2.08-11.78-5.18-.7-9.28,1.03-11.75,2.52-2.86-2.26-5.42-4.84-7.32-6.9-.55-.48-1.08-.96-1.6-1.47,4.91-4.85,6.45-10.62,2.25-13.24-3.77-2.38-8.59-.45-10.89.77-.62-1.01-1.23-2.08-1.84-3.14-.03-.03-.07-.09-.09-.14-1.15-2.01-2.23-4.08-3.16-6.02-.07-.12-.14-.26-.19-.38-.14-.27-.26-.55-.38-.81.02-.02.05-.02.07-.03,7.39-2.88,10.22-8.66,7.2-12.4-2.33-2.86-7.99-2.59-11.27-2.14-.02-.02-.02-.03-.02-.05-.14-.62-.26-1.25-.38-1.89-.02-.12-.05-.22-.07-.34-.43-2.32-.77-4.6-.98-6.78-.05-.72-.1-1.42-.12-2.13,11.85.5,14.7-6.07,10.26-8.83-3.12-1.94-7.48-2.78-10.17-3.1-.05-2.93-.15-5.35-.19-6.81-.02-.39-.07-.86-.14-1.44,0-.07-.02-.17-.03-.24-.09-.5-.17-1.05-.29-1.65,5.95-1.2,17.79-5.68,11.29-8.22-5.28-2.04-10.88-.93-13.14-.31-.38-1.6-.75-3.04-1.03-4.08,4.48,1.68,14.01,3.59,18.25-8.15,0,0,14.56,0,15.22-13.48,0,0,12.3.75,11.42-13.38,0,0,8.7-1.36,8.3-12.49v-.14l.36.55.07.1s1.42,2.14,2.9,4.44c-.53.55-6.69,7.15-.24,15.66,4.31,5.68,6.35,8.11,7.24,9.13l-1.49,1.44c-.22-.22-.44-.45-.66-.67-.56-.56-1.11-1.13-1.67-1.69-.74-.75-1.47-1.49-2.21-2.24s-1.52-1.54-2.28-2.31c-.56-.57-1.12-1.13-1.68-1.7-.28-.29-.56-.57-.85-.86-.26-.26-.51-.56-.8-.78-.26-.19-.53-.37-.81-.53-.83-.45-1.76-.73-2.7-.73-1.36,0-2.63.56-3.68,1.39-.09.07-.18.13-.26.21-.45.38-.79.76-1.1,1.18-6.93,8.46,8.22,19.59,8.22,19.59l.09-.03-1.54,1.85-.09.1-.12.14c-3.79-4.07-7.99-6.93-11.44-8.83-.02-.02-.03-.02-.05-.02-.69-.27-5.45-2.26-7.89.98-2.33,3.09-3.38,7.05.81,10.38.1.1.22.15.33.22.41.33.87.63,1.39.94.12.07.24.12.34.19.02.03.03.03.05.03,4.92,3.1,10.16,5.47,10.16,5.47l-.21.41s-.46.87-.5.86c-.88-.53-16.09-9.45-23.62-8.27-7.77,1.22-1.87,7.84,20.84,13.67l-.69,1.34c-8.15-2.76-16.88-3.62-20.53-3.6-3.65.02-13.5,1.51-10.72,9.43,2.62,7.46,26.33,7.63,27.22,7.63l-.48,3.33-.14.88s-26.57-1.9-24.91,8.04c1.65,9.86,24.65,4.34,25.32,4.15-.27-1.15-.48-2.3-.62-3.43.34,1.97.74,3.79,1.22,5.51.05.27.12.5.21.75.05.24.12.48.21.72.07.24.15.48.22.72.05.15.1.33.15.48-.91.07-24.96,1.92-19.45,13.88,5.16,11.2,23.83,1.25,26.72-.39,1.42,1.82,2.98,3.53,4.67,5.18-2.28.5-16.52,3.76-18.68,8.99-1.36,3.26.03,6.69,2.74,8.75,2.28,1.73,5.3,1.72,8.05,1.51,3.1-.24,6.14-1.05,9.01-2.23,4.32-1.77,8.27-4.34,12.11-7.03.48.27.94.55,1.42.82.51.27,1.03.57,1.54.87.6.34,1.22.69,1.82,1.03-3.72,1.94-7.26,4.29-10.45,7.02-2.4,2.06-5.21,4.91-5.68,8.18-.41,2.86,1.66,4.92,4.05,6.12,9.25,4.7,23.19-12.18,25.73-15.42,1.42.53,2.86,1.03,4.34,1.49,1.44.48,2.9.93,4.37,1.34-4.17,3.16-14.01,17.48-5.57,18.01,8.08.5,15.06-12.8,16.28-15.28,1.63.38,3.26.72,4.91,1.05,1.63.34,3.26.67,4.89.98-1.13,2.08-5.66,10.91-2.14,13.05,3.93,2.38,10.21-4.29,11.6-11.41l9.73,1.54c-1.53,2.3-6.16,9.9-1.18,11.27,5.11,1.41,9.21-7.46,10.21-9.79.72.1,1.44.22,2.16.34.72.12,1.44.24,2.18.36,1.53.27,3.04.57,4.56.87-1.96,2.47-7.7,10.48-2.78,13.55,5.06,3.17,11.12-7.68,12.71-10.79,1.39.53,2.74,1.13,4.07,1.82.55.27,1.08.57,1.58.86.51.31.99.62,1.46.93-1.82,1.78-9.13,9.55-4.39,14.37,4.63,4.72,10.17-4.36,11.6-6.93,1,1.49,1.94,3.1,2.86,4.82,0,0,.24.75.34,1.13.21.77.41,1.54.6,2.35.03.1.05.21.07.33-1.15.45-6.91,2.85-5.85,6.12,1.06,3.26,6.33,1.72,7.39,1.36.1-.03.17-.07.17-.07-.33-2.02-.7-3.98-1.15-5.97.6,2.59,1.29,6.07,1.73,9.76Z"/>
    <path class="st0" d="M794.26,542.3c.15,0,.29-.02.45-.03-.14.02-.29.03-.45.05v-.02Z"/>
    <path class="st0" d="M806.81,540.43c-.05.17-.12.34-.19.51-1.66.09-3.31.24-4.94.45-.15.03-.27.03-.41.07-.38.05-.77.1-1.15.15-.19.03-.38.07-.57.07-.41.07-.84.12-1.25.19-.26.03-.51.07-.79.09-.84.12-1.7.21-2.56.27,1.66-.21,2.68-.5,3.31-.79.05,0,.1,0,.14-.02,1.05-.12,2.04-.24,2.95-.39.15-.05.27-.07.41-.09,1.66-.26,3.34-.45,5.04-.51Z"/>
    <path class="st0" d="M859.08,555.68l-.02.02c-.15-.12-.33-.24-.5-.36-.19-.14-.36-.26-.55-.39.19.12.38.24.57.38.17.12.34.24.5.36Z"/>
    <path class="st0" d="M864.6,559.92c.1.09.22.19.33.29-.12-.09-.22-.19-.34-.27-.19-.15-.38-.33-.57-.5.19.15.39.31.58.48Z"/>
    <g>
      <path class="st0" d="M752.24,463.53c-2.87,0-5.2-2.33-5.2-5.2s2.33-5.2,5.2-5.2,5.2,2.33,5.2,5.2-2.33,5.2-5.2,5.2ZM752.24,453.84c-2.48,0-4.49,2.01-4.49,4.49s2.01,4.49,4.49,4.49,4.49-2.01,4.49-4.49-2.01-4.49-4.49-4.49Z"/>
      <circle class="st0" cx="752.24" cy="458.33" r="2.33"/>
    </g>
    <g>
      <path class="st0" d="M751.5,473.22c-2.87,0-5.2-2.33-5.2-5.2s2.33-5.2,5.2-5.2,5.2,2.33,5.2,5.2-2.33,5.2-5.2,5.2ZM751.5,463.53c-2.48,0-4.49,2.01-4.49,4.49s2.01,4.49,4.49,4.49,4.49-2.01,4.49-4.49-2.01-4.49-4.49-4.49Z"/>
      <circle class="st0" cx="751.5" cy="468.02" r="2.33"/>
    </g>
    <g>
      <path class="st0" d="M753.22,482.91c-2.87,0-5.2-2.33-5.2-5.2s2.33-5.2,5.2-5.2,5.2,2.33,5.2,5.2-2.33,5.2-5.2,5.2ZM753.22,473.22c-2.47,0-4.49,2.01-4.49,4.49s2.01,4.49,4.49,4.49,4.49-2.01,4.49-4.49-2.01-4.49-4.49-4.49Z"/>
      <circle class="st0" cx="753.22" cy="477.71" r="2.33"/>
    </g>
    <g>
      <path class="st0" d="M758.07,491.38c-2.87,0-5.2-2.33-5.2-5.2s2.33-5.2,5.2-5.2,5.2,2.33,5.2,5.2-2.33,5.2-5.2,5.2ZM758.07,481.69c-2.48,0-4.49,2.01-4.49,4.49s2.01,4.49,4.49,4.49,4.49-2.01,4.49-4.49-2.01-4.49-4.49-4.49Z"/>
      <circle class="st0" cx="758.07" cy="486.17" r="2.33"/>
    </g>
    <g>
      <path class="st0" d="M764.51,498.72c-2.82,0-5.1-2.29-5.1-5.1s2.29-5.1,5.1-5.1,5.1,2.29,5.1,5.1-2.29,5.1-5.1,5.1ZM764.51,489.22c-2.42,0-4.39,1.97-4.39,4.39s1.97,4.39,4.39,4.39,4.39-1.97,4.39-4.39-1.97-4.39-4.39-4.39Z"/>
      <circle class="st0" cx="764.52" cy="493.61" r="2.28"/>
    </g>
    <g>
      <path class="st0" d="M772.02,503.97c-2.67,0-4.84-2.17-4.84-4.84s2.17-4.84,4.84-4.84,4.84,2.17,4.84,4.84-2.17,4.84-4.84,4.84ZM772.02,495.01c-2.27,0-4.13,1.85-4.13,4.13s1.85,4.13,4.13,4.13,4.13-1.85,4.13-4.13-1.85-4.13-4.13-4.13Z"/>
      <circle class="st0" cx="772.02" cy="499.14" r="2.15"/>
    </g>
    <g>
      <path class="st0" d="M780.09,508.3c-2.64,0-4.78-2.15-4.78-4.79s2.15-4.78,4.78-4.78,4.79,2.15,4.79,4.78-2.15,4.79-4.79,4.79ZM780.09,499.45c-2.25,0-4.07,1.83-4.07,4.07s1.83,4.07,4.07,4.07,4.07-1.83,4.07-4.07-1.83-4.07-4.07-4.07Z"/>
      <circle class="st0" cx="780.09" cy="503.52" r="2.13"/>
    </g>
    <g>
      <path class="st0" d="M788.43,511.46c-2.57,0-4.65-2.09-4.65-4.65s2.09-4.65,4.65-4.65,4.65,2.09,4.65,4.65-2.09,4.65-4.65,4.65ZM788.43,502.87c-2.17,0-3.94,1.77-3.94,3.94s1.77,3.94,3.94,3.94,3.94-1.77,3.94-3.94-1.77-3.94-3.94-3.94Z"/>
      <circle class="st0" cx="788.43" cy="506.81" r="2.06"/>
    </g>
    <g>
      <path class="st0" d="M796.5,513.92c-2.5,0-4.54-2.04-4.54-4.54s2.04-4.54,4.54-4.54,4.54,2.04,4.54,4.54-2.04,4.54-4.54,4.54ZM796.5,505.55c-2.11,0-3.83,1.72-3.83,3.83s1.72,3.83,3.83,3.83,3.83-1.72,3.83-3.83-1.72-3.83-3.83-3.83Z"/>
      <circle class="st0" cx="796.5" cy="509.38" r="2.01"/>
    </g>
    <g>
      <path class="st0" d="M804.69,516.1c-2.5,0-4.54-2.04-4.54-4.54s2.04-4.54,4.54-4.54,4.54,2.04,4.54,4.54-2.04,4.54-4.54,4.54ZM804.69,507.73c-2.11,0-3.83,1.72-3.83,3.83s1.72,3.83,3.83,3.83,3.83-1.72,3.83-3.83-1.72-3.83-3.83-3.83Z"/>
      <circle class="st0" cx="804.69" cy="511.56" r="2.01"/>
    </g>
    <g>
      <path class="st0" d="M812.96,517.52c-2.5,0-4.54-2.04-4.54-4.54s2.04-4.54,4.54-4.54,4.54,2.04,4.54,4.54-2.04,4.54-4.54,4.54ZM812.96,509.15c-2.11,0-3.83,1.72-3.83,3.83s1.72,3.83,3.83,3.83,3.83-1.72,3.83-3.83-1.72-3.83-3.83-3.83Z"/>
      <circle class="st0" cx="812.96" cy="512.98" r="2.01"/>
    </g>
    <g>
      <path class="st0" d="M821.6,519.39c-2.66,0-4.82-2.16-4.82-4.82s2.16-4.81,4.82-4.81,4.82,2.16,4.82,4.81-2.16,4.82-4.82,4.82ZM821.6,510.47c-2.26,0-4.1,1.84-4.1,4.1s1.84,4.1,4.1,4.1,4.1-1.84,4.1-4.1-1.84-4.1-4.1-4.1Z"/>
      <circle class="st0" cx="821.6" cy="514.57" r="2.14"/>
    </g>
    <g>
      <path class="st0" d="M830.7,520.66c-2.66,0-4.82-2.16-4.82-4.82s2.16-4.82,4.82-4.82,4.82,2.16,4.82,4.82-2.16,4.82-4.82,4.82ZM830.7,511.74c-2.26,0-4.1,1.84-4.1,4.1s1.84,4.1,4.1,4.1,4.1-1.84,4.1-4.1-1.84-4.1-4.1-4.1Z"/>
      <circle class="st0" cx="830.7" cy="515.84" r="2.14"/>
    </g>
    <g>
      <path class="st0" d="M839.86,522.35c-2.79,0-5.05-2.27-5.05-5.06s2.27-5.05,5.05-5.05,5.05,2.27,5.05,5.05-2.27,5.06-5.05,5.06ZM839.86,512.95c-2.39,0-4.34,1.95-4.34,4.34s1.95,4.34,4.34,4.34,4.34-1.95,4.34-4.34-1.95-4.34-4.34-4.34Z"/>
      <circle class="st0" cx="839.85" cy="517.29" r="2.26"/>
    </g>
    <g>
      <path class="st0" d="M849,523.84c-2.72,0-4.93-2.21-4.93-4.93s2.21-4.93,4.93-4.93,4.93,2.21,4.93,4.93-2.21,4.93-4.93,4.93ZM849,514.69c-2.33,0-4.22,1.89-4.22,4.22s1.89,4.22,4.22,4.22,4.22-1.89,4.22-4.22-1.89-4.22-4.22-4.22Z"/>
      <circle class="st0" cx="849" cy="518.91" r="2.2"/>
    </g>
    <g>
      <path class="st0" d="M857.54,525.75c-2.46,0-4.47-2-4.47-4.47s2-4.47,4.47-4.47,4.47,2,4.47,4.47-2,4.47-4.47,4.47ZM857.54,517.53c-2.07,0-3.75,1.68-3.75,3.75s1.68,3.75,3.75,3.75,3.75-1.68,3.75-3.75-1.68-3.75-3.75-3.75Z"/>
      <circle class="st0" cx="857.54" cy="521.29" r="1.97"/>
    </g>
    <g>
      <path class="st0" d="M866.99,530.26l-.18-.11c-1.75-1.08-3.92-2.11-6.45-3.04l-.2-.07-.03-.21c-.04-.27-.07-.56-.07-.87,0-2.42,1.82-4.48,4.24-4.78h.19l.17.16.92,1.42c.29.41.52.79.75,1.17.34.54.65,1.04.95,1.54.57.94,1.11,1.84,1.62,2.75l.1.19-.12.18c-.42.63-1,1.18-1.7,1.57l-.18.1ZM860.81,526.52c2.41.89,4.49,1.87,6.19,2.91.46-.29.85-.65,1.15-1.06-.47-.84-.97-1.66-1.47-2.49-.32-.55-.63-1.04-.93-1.52-.26-.43-.49-.8-.73-1.16-.04-.06-.08-.11-.11-.17l-.73-1.12c-1.95.33-3.41,2.04-3.41,4.04,0,.2.02.38.04.56Z"/>
      <path class="st0" d="M866.99,525.96c0,1.18-.94,2.13-2.13,2.13s-2.13-.94-2.13-2.13.94-2.14,2.13-2.14c.45,0,.86.14,1.2.36.31.48.62.98.91,1.47.02.1.02.21.02.31Z"/>
    </g>
    <g>
      <path class="st0" d="M755.18,454.21c-2.83,0-5.12-2.3-5.12-5.12s2.3-5.13,5.12-5.13,5.13,2.3,5.13,5.13-2.3,5.12-5.13,5.12ZM755.18,444.67c-2.43,0-4.41,1.98-4.41,4.41s1.98,4.41,4.41,4.41,4.41-1.98,4.41-4.41-1.98-4.41-4.41-4.41Z"/>
      <circle class="st0" cx="755.18" cy="449.08" r="2.29"/>
    </g>
    <g>
      <path class="st0" d="M759.36,445.56c-2.65,0-4.81-2.16-4.81-4.81s2.16-4.81,4.81-4.81,4.81,2.16,4.81,4.81-2.16,4.81-4.81,4.81ZM759.36,436.66c-2.26,0-4.1,1.84-4.1,4.1s1.84,4.1,4.1,4.1,4.1-1.84,4.1-4.1-1.84-4.1-4.1-4.1Z"/>
      <circle class="st0" cx="759.36" cy="440.75" r="2.14"/>
    </g>
    <g>
      <path class="st0" d="M764.5,438.13c-2.59,0-4.7-2.11-4.7-4.7s2.11-4.7,4.7-4.7,4.7,2.11,4.7,4.7-2.11,4.7-4.7,4.7ZM764.5,429.45c-2.19,0-3.98,1.79-3.98,3.98s1.79,3.98,3.98,3.98,3.98-1.79,3.98-3.98-1.79-3.98-3.98-3.98Z"/>
      <circle class="st0" cx="764.5" cy="433.43" r="2.08"/>
    </g>
    <g>
      <path class="st0" d="M770.12,431.51c-2.48,0-4.49-2.02-4.49-4.49s2.02-4.51,4.49-4.51c1.14,0,2.23.43,3.07,1.21l.07.07.03.1c.34,1.24.75,2.55,1.21,3.87l.03.09-.02.1c-.44,2.1-2.25,3.56-4.4,3.56ZM770.12,423.22c-2.08,0-3.78,1.7-3.78,3.79s1.69,3.78,3.78,3.78c1.77,0,3.27-1.19,3.68-2.9-.44-1.27-.83-2.52-1.16-3.72-.7-.62-1.58-.95-2.51-.95Z"/>
      <circle class="st0" cx="770.12" cy="427.01" r="1.99"/>
    </g>
    <path class="st0" d="M911.97,333.29c.53-3.98.82-8.04.82-12.14.02,4.73-.28,9.41-.9,14.01-.42,3.16-.99,6.3-1.68,9.4-2.76,12.48-7.6,24.4-13.82,35.4-1.26,2.23-2.57,4.42-3.94,6.57-1.8,2.85-3.69,5.61-5.66,8.29-6.69,9.21-14.26,17.51-22.17,24.65-2.73,2.47-5.5,4.8-8.28,6.97-8.71,6.85-17.62,12.23-26.06,15.81h-.02c-3.05,1.35-6.05,2.43-8.95,3.24-22.46,6.4-39.16-2.2-35.3-33.14.07-.55.13-1.08.21-1.61.44-3.05,1.02-6.03,1.73-8.9.04-.18.1-.39.16-.59.74-2.95,1.63-5.83,2.64-8.57h.02c.23-.65.48-1.3.73-1.93,1.03-2.6,2.16-5.12,3.43-7.52,8.42-16.35,21.55-28.76,36.03-38.15,3.03-1.96,6.11-3.81,9.23-5.49.37-.2.72-.41,1.07-.57,6.7-3.61,13.5-6.64,20.14-9.19,17.88-6.88,34.4-10.24,43.64-11.73-8.43,1.41-22.83,4.43-38.37,10.4-5.97,2.29-12.07,5.01-18.08,8.25-.32.18-.63.35-.96.53-2.81,1.52-5.57,3.16-8.28,4.92-13,8.42-24.77,19.56-32.34,34.24-1.13,2.17-2.15,4.41-3.08,6.75-.24.56-.45,1.15-.65,1.74h-.02c-.92,2.47-1.72,5.04-2.37,7.69-.06.19-.12.35-.15.53-.64,2.56-1.16,5.24-1.55,7.98-.08.48-.12.95-.2,1.44-3.45,27.76,11.54,35.49,31.7,29.74,2.6-.72,5.3-1.69,8.03-2.89h.02c7.57-3.23,15.57-8.06,23.38-14.22,2.51-1.93,4.99-4.03,7.44-6.24,7.1-6.42,13.89-13.86,19.9-22.12,1.77-2.41,3.47-4.89,5.08-7.46,1.24-1.93,2.42-3.88,3.55-5.89,5.58-9.88,9.92-20.59,12.39-31.78.62-2.79,1.14-5.6,1.5-8.45Z"/>
    <path class="st0" d="M912.6,319.64c.06-.42.09-.86.12-1.29,0,.87-.07,1.73-.18,2.58-.09.68-.21,1.35-.36,2.03-.59,2.68-1.63,5.25-2.97,7.62-.28.49-.56.96-.85,1.41-.38.62-.79,1.21-1.21,1.8-1.45,1.98-3.08,3.76-4.78,5.3-.58.54-1.19,1.03-1.79,1.51-1.87,1.48-3.79,2.63-5.61,3.41-.65.28-1.31.52-1.93.68-4.84,1.39-8.44-.47-7.6-7.14.01-.11.02-.22.05-.35.09-.64.21-1.28.37-1.91.02-.04.01-.07.03-.13.16-.63.36-1.25.57-1.85.05-.13.11-.28.16-.41.22-.56.48-1.1.75-1.62,1.81-3.52,4.63-6.2,7.75-8.22.64-.42,1.31-.81,1.99-1.18.07-.04.14-.08.23-.12,1.44-.78,2.9-1.43,4.34-1.97,3.63-1.4,6.99-2.12,9.03-2.48l.02-.02h.05s.04-.02.05-.02h.07s.09-.01.13-.03h.11s.04,0,.04,0h.02l.02-.02.25-.02s.02.02.04,0h.02s0-.02,0-.02h.04s0,.02,0,.02h.02s.02-.02.02-.02h.2s.02-.01.04-.01h.07c-1.24.18-3.76.66-6.53,1.72-.96.35-1.93.79-2.89,1.3-.05.04-.1.06-.16.08-.46.25-.89.51-1.33.79-2.07,1.34-3.96,3.13-5.17,5.47-.18.36-.34.71-.49,1.08l-.09.28c-.16.41-.28.81-.39,1.24,0,.02-.01.06-.01.07-.1.42-.18.85-.25,1.28-.01.07-.03.15-.04.24-.54,4.44,1.86,5.67,5.06,4.74.43-.12.85-.27,1.29-.46,1.22-.51,2.49-1.28,3.74-2.26.4-.32.79-.65,1.19-1,1.13-1.03,2.22-2.22,3.19-3.53.28-.4.55-.8.81-1.19.2-.32.38-.62.56-.94.9-1.6,1.59-3.29,1.98-5.09.1-.44.18-.9.24-1.34Z"/>
    <path class="st0" d="M912.6,319.64c.06-.42.09-.86.12-1.29,0,.87-.07,1.73-.18,2.58-.09.68-.21,1.35-.36,2.03-.59,2.68-1.63,5.25-2.97,7.62-.28.49-.56.96-.85,1.41-.38.62-.79,1.21-1.21,1.8-1.45,1.98-3.08,3.76-4.78,5.3-.58.54-1.19,1.03-1.79,1.51-1.87,1.48-3.79,2.63-5.61,3.41-.65.28-1.31.52-1.93.68-4.84,1.39-8.44-.47-7.6-7.14.01-.11.02-.22.05-.35.09-.64.21-1.28.37-1.91.02-.04.01-.07.03-.13.16-.63.36-1.25.57-1.85.05-.13.11-.28.16-.41.22-.56.48-1.1.75-1.62,1.81-3.52,4.63-6.2,7.75-8.22.64-.42,1.31-.81,1.99-1.18.07-.04.14-.08.23-.12,1.44-.78,2.9-1.43,4.34-1.97,3.63-1.4,6.99-2.12,9.03-2.48l.02-.02h.05s.04-.02.05-.02h.07s.09-.01.13-.03h.11s.04,0,.04,0h.02s.07,0,.07,0c.02.02.04.02.04,0h.04s0-.02,0-.02h.13s.02,0,.04-.01h.02s.02-.02.02-.02h.02s0,.02,0,.02h.02s.02-.02.02-.02h.2s.02-.01.04-.01l.02-.02h.04s.11,0,.11,0h.04s.02,0,.04,0c-.04.02-.05.02-.09.02h-.07c-1.24.19-3.76.67-6.53,1.73-.96.35-1.93.79-2.89,1.3-.05.04-.1.06-.16.08-.46.25-.89.51-1.33.79-2.07,1.34-3.96,3.13-5.17,5.47-.18.36-.34.71-.49,1.08l-.09.28c-.16.41-.28.81-.39,1.24,0,.02-.01.06-.01.07-.1.42-.18.85-.25,1.28-.01.07-.03.15-.04.24-.54,4.44,1.86,5.67,5.06,4.74.43-.12.85-.27,1.29-.46,1.22-.51,2.49-1.28,3.74-2.26.4-.32.79-.65,1.19-1,1.13-1.03,2.22-2.22,3.19-3.53.28-.4.55-.8.81-1.19.2-.32.38-.62.56-.94.9-1.6,1.59-3.29,1.98-5.09.1-.44.18-.9.24-1.34Z"/>
    <path class="st0" d="M912.33,325.42c.27-2.07.43-4.14.43-6.26v.2c.02.09,0,.16.01.25,0,2.56-.17,5.1-.5,7.61-.25,1.79-.56,3.55-.96,5.3-1.54,7.02-4.28,13.71-7.77,19.91-.7,1.26-1.44,2.48-2.22,3.69-1.01,1.6-2.07,3.16-3.19,4.68-3.76,5.16-8.01,9.83-12.46,13.86-1.55,1.38-3.1,2.69-4.67,3.92-4.91,3.86-9.9,6.87-14.65,8.9h-.02c-1.71.74-3.4,1.35-5.03,1.82-12.63,3.6-22.02-1.24-19.85-18.65.03-.31.07-.6.11-.91.25-1.72.57-3.39.98-4.99.03-.11.06-.22.09-.33.42-1.66.92-3.28,1.49-4.82.14-.37.28-.74.42-1.1.58-1.47,1.22-2.87,1.93-4.23,4.74-9.19,12.11-16.18,20.25-21.45,1.71-1.1,3.44-2.13,5.19-3.08.21-.12.4-.22.61-.33,3.77-2.03,7.6-3.74,11.33-5.16,8.83-3.41,17.07-5.29,22.46-6.27.43-.06.82-.14,1.22-.2.04.02.06.01.07,0,.56-.11,1.1-.18,1.56-.26.09,0,.16-.01.23-.03h.05c.05,0,.11-.01.14-.03h.05c-4.16.67-12.1,2.22-20.71,5.53-3.06,1.19-6.22,2.58-9.32,4.26-.16.08-.32.16-.49.27-1.46.78-2.87,1.63-4.28,2.53-6.71,4.35-12.78,10.09-16.68,17.68-.58,1.11-1.11,2.26-1.6,3.47-.11.3-.22.59-.32.91h-.02c-.46,1.26-.87,2.59-1.22,3.96-.03.09-.06.2-.07.29-.34,1.31-.59,2.68-.8,4.11-.04.24-.06.49-.1.75-1.79,14.32,5.94,18.3,16.34,15.35,1.35-.39,2.74-.88,4.15-1.49,3.92-1.68,8.04-4.16,12.07-7.35,1.3-.99,2.59-2.08,3.84-3.21,3.67-3.31,7.17-7.15,10.27-11.42.92-1.24,1.78-2.52,2.62-3.84.63-1,1.23-2,1.82-3.05,2.87-5.09,5.12-10.61,6.39-16.38.33-1.43.6-2.9.78-4.36Z"/>
    <path class="st0" d="M912.6,319.64c.06-.42.09-.86.12-1.29,0,.87-.07,1.73-.18,2.58-.09.68-.21,1.35-.36,2.03-.59,2.68-1.63,5.25-2.97,7.62-.28.49-.56.96-.85,1.41-.38.62-.79,1.21-1.21,1.8-1.45,1.98-3.08,3.76-4.78,5.3-.58.54-1.19,1.03-1.79,1.51-1.87,1.48-3.79,2.63-5.61,3.41-.65.28-1.31.52-1.93.68-4.84,1.39-8.44-.47-7.6-7.14.01-.11.02-.22.05-.35.09-.64.21-1.28.37-1.91.02-.04.01-.07.03-.13.16-.63.36-1.25.57-1.85.05-.13.11-.28.16-.41.22-.56.48-1.1.75-1.62,1.81-3.52,4.63-6.2,7.75-8.22.64-.42,1.31-.81,1.99-1.18.07-.04.14-.08.23-.12,1.44-.78,2.9-1.43,4.34-1.97,3.63-1.4,6.99-2.12,9.03-2.48-.18.03-.38.06-.59.09.05-.02.12-.03.18-.05h-.13c.05,0,.11,0,.16-.02h.11s.04,0,.05-.01c.02-.02.04-.02.05-.02h.14s.02-.01.04-.01h.05s.04-.02.05-.02h.07s.09-.01.13-.03h.11s.04,0,.04,0h.02s.07,0,.07,0c.02.02.04.02.04,0h.04s0-.02,0-.02h.13s.02,0,.04-.01h.02s0-.02,0-.02h.04s.02,0,.04,0h.2s.02-.01.04-.01v-.02s0,0,.02,0h.04s.11,0,.11,0h.04s.02,0,.04,0c-.04.02-.05.02-.09.02h-.07c-1.24.19-3.76.67-6.53,1.73-.96.35-1.93.79-2.89,1.3-.05.04-.1.06-.16.08-.46.25-.89.51-1.33.79-2.07,1.34-3.96,3.13-5.17,5.47-.18.36-.34.71-.49,1.08l-.09.28c-.16.41-.28.81-.39,1.24,0,.02-.01.06-.01.07-.1.42-.18.85-.25,1.28-.01.07-.03.15-.04.24-.54,4.44,1.86,5.67,5.06,4.74.43-.12.85-.27,1.29-.46,1.22-.51,2.49-1.28,3.74-2.26.4-.32.79-.65,1.19-1,1.13-1.03,2.22-2.22,3.19-3.53.28-.4.55-.8.81-1.19.2-.32.38-.62.56-.94.9-1.6,1.59-3.29,1.98-5.09.1-.44.18-.9.24-1.34Z"/>
    <path class="st0" d="M912.33,325.42c.27-2.07.43-4.14.43-6.26v.2c.02.09,0,.16.01.25,0,2.56-.17,5.1-.5,7.61-.25,1.79-.56,3.55-.96,5.3-1.54,7.02-4.28,13.71-7.77,19.91-.7,1.26-1.44,2.48-2.22,3.69-1.01,1.6-2.07,3.16-3.19,4.68-3.76,5.16-8.01,9.83-12.46,13.86-1.55,1.38-3.1,2.69-4.67,3.92-4.91,3.86-9.9,6.87-14.65,8.9h-.02c-1.71.74-3.4,1.35-5.03,1.82-12.63,3.6-22.02-1.24-19.85-18.65.03-.31.07-.6.11-.91.25-1.72.57-3.39.98-4.99.03-.11.06-.22.09-.33.42-1.66.92-3.28,1.49-4.82.14-.37.28-.74.42-1.1.58-1.47,1.22-2.87,1.93-4.23,4.74-9.19,12.11-16.18,20.25-21.45,1.71-1.1,3.44-2.13,5.19-3.08.21-.12.4-.22.61-.33,3.77-2.03,7.6-3.74,11.33-5.16,8.83-3.41,17.07-5.29,22.46-6.27.43-.06.82-.14,1.22-.2.04.02.06.01.07,0,.66-.11,1.27-.21,1.79-.29h.05c.05,0,.11-.01.14-.03h.05c-4.16.67-12.1,2.22-20.71,5.53-3.06,1.19-6.22,2.58-9.32,4.26-.16.08-.32.16-.49.27-1.46.78-2.87,1.63-4.28,2.53-6.71,4.35-12.78,10.09-16.68,17.68-.58,1.11-1.11,2.26-1.6,3.47-.11.3-.22.59-.32.91h-.02c-.46,1.26-.87,2.59-1.22,3.96-.03.09-.06.2-.07.29-.34,1.31-.59,2.68-.8,4.11-.04.24-.06.49-.1.75-1.79,14.32,5.94,18.3,16.34,15.35,1.35-.39,2.74-.88,4.15-1.49,3.92-1.68,8.04-4.16,12.07-7.35,1.3-.99,2.59-2.08,3.84-3.21,3.67-3.31,7.17-7.15,10.27-11.42.92-1.24,1.78-2.52,2.62-3.84.63-1,1.23-2,1.82-3.05,2.87-5.09,5.12-10.61,6.39-16.38.33-1.43.6-2.9.78-4.36Z"/>
    <path class="st0" d="M912.6,319.64c.06-.42.09-.86.12-1.29,0,.87-.07,1.73-.18,2.58-.09.68-.21,1.35-.36,2.03-.59,2.68-1.63,5.25-2.97,7.62-.28.49-.56.96-.85,1.41-.38.62-.79,1.21-1.21,1.8-1.45,1.98-3.08,3.76-4.78,5.3-.58.54-1.19,1.03-1.79,1.51-1.87,1.48-3.79,2.63-5.61,3.41-.65.28-1.31.52-1.93.68-4.84,1.39-8.44-.47-7.6-7.14.01-.11.02-.22.05-.35.09-.64.21-1.28.37-1.91.02-.04.01-.07.03-.13.16-.63.36-1.25.57-1.85.05-.13.11-.28.16-.41.22-.56.48-1.1.75-1.62,1.81-3.52,4.63-6.2,7.75-8.22.64-.42,1.31-.81,1.99-1.18.07-.04.14-.08.23-.12,1.44-.78,2.9-1.43,4.34-1.97,3.63-1.4,6.99-2.12,9.03-2.48l.02-.02h.05s.04-.02.05-.02h.07s.09-.01.13-.03h.11s.04,0,.04,0h.02s.07,0,.07,0c.02.02.04.02.04,0h.04s0-.02,0-.02h.13s.02,0,.04-.01h.02s.02,0,.04,0h.02s.02-.02.02-.02h.2s.02-.01.04-.01h.07c-1.24.18-3.76.66-6.53,1.72-.96.35-1.93.79-2.89,1.3-.05.04-.1.06-.16.08-.46.25-.89.51-1.33.79-2.07,1.34-3.96,3.13-5.17,5.47-.18.36-.34.71-.49,1.08l-.09.28c-.16.41-.28.81-.39,1.24,0,.02-.01.06-.01.07-.1.42-.18.85-.25,1.28-.01.07-.03.15-.04.24-.54,4.44,1.86,5.67,5.06,4.74.43-.12.85-.27,1.29-.46,1.22-.51,2.49-1.28,3.74-2.26.4-.32.79-.65,1.19-1,1.13-1.03,2.22-2.22,3.19-3.53.28-.4.55-.8.81-1.19.2-.32.38-.62.56-.94.9-1.6,1.59-3.29,1.98-5.09.1-.44.18-.9.24-1.34Z"/>
    <path class="st0" d="M912.6,319.64c.06-.42.09-.86.12-1.29,0,.87-.07,1.73-.18,2.58-.09.68-.21,1.35-.36,2.03-.59,2.68-1.63,5.25-2.97,7.62-.28.49-.56.96-.85,1.41-.38.62-.79,1.21-1.21,1.8-1.45,1.98-3.08,3.76-4.78,5.3-.58.54-1.19,1.03-1.79,1.51-1.87,1.48-3.79,2.63-5.61,3.41-.65.28-1.31.52-1.93.68-4.84,1.39-8.44-.47-7.6-7.14.01-.11.02-.22.05-.35.09-.64.21-1.28.37-1.91.02-.04.01-.07.03-.13.16-.63.36-1.25.57-1.85.05-.13.11-.28.16-.41.22-.56.48-1.1.75-1.62,1.81-3.52,4.63-6.2,7.75-8.22.64-.42,1.31-.81,1.99-1.18.07-.04.14-.08.23-.12,1.44-.78,2.9-1.43,4.34-1.97,3.63-1.4,6.99-2.12,9.03-2.48-.18.03-.38.06-.59.09.05-.02.12-.03.18-.05h.05s.05,0,.09-.03c.02.02.04,0,.05,0,.05,0,.11,0,.16-.03h.04s.02,0,.04,0h.16s.02-.03.02-.03h.16s.02-.01.04-.03h.02l.02.02s.04,0,.04-.02h.02s.07,0,.07,0c.02.02.04.02.04,0h.04s0-.02,0-.02h.13s.02,0,.04-.01h.02s0-.02,0-.02h.04s.02,0,.04,0h.2s.04-.03.04-.03h.02s.02,0,.04,0h.11s.02,0,.04,0h.04s-.05.02-.09.02h-.07c-1.24.19-3.76.67-6.53,1.73-.96.35-1.93.79-2.89,1.3-.05.04-.1.06-.16.08-.46.25-.89.51-1.33.79-2.07,1.34-3.96,3.13-5.17,5.47-.18.36-.34.71-.49,1.08l-.09.28c-.16.41-.28.81-.39,1.24,0,.02-.01.06-.01.07-.1.42-.18.85-.25,1.28-.01.07-.03.15-.04.24-.54,4.44,1.86,5.67,5.06,4.74.43-.12.85-.27,1.29-.46,1.22-.51,2.49-1.28,3.74-2.26.4-.32.79-.65,1.19-1,1.13-1.03,2.22-2.22,3.19-3.53.28-.4.55-.8.81-1.19.2-.32.38-.62.56-.94.9-1.6,1.59-3.29,1.98-5.09.1-.44.18-.9.24-1.34Z"/>
    <path class="st0" d="M912.6,319.64c.06-.42.09-.86.12-1.29,0,.87-.07,1.73-.18,2.58-.09.68-.21,1.35-.36,2.03-.59,2.68-1.63,5.25-2.97,7.62-.28.49-.56.96-.85,1.41-.38.62-.79,1.21-1.21,1.8-1.45,1.98-3.08,3.76-4.78,5.3-.58.54-1.19,1.03-1.79,1.51-1.87,1.48-3.79,2.63-5.61,3.41-.65.28-1.31.52-1.93.68-4.84,1.39-8.44-.47-7.6-7.14.01-.11.02-.22.05-.35.09-.64.21-1.28.37-1.91.02-.04.01-.07.03-.13.16-.63.36-1.25.57-1.85.05-.13.11-.28.16-.41.22-.56.48-1.1.75-1.62,1.81-3.52,4.63-6.2,7.75-8.22.64-.42,1.31-.81,1.99-1.18.07-.04.14-.08.23-.12,1.44-.78,2.9-1.43,4.34-1.97,3.63-1.4,6.99-2.12,9.03-2.48-.18.03-.38.06-.59.09.05-.02.12-.03.18-.05h.05s.05,0,.09-.03c.02.02.04,0,.05,0,.05,0,.11,0,.16-.03h.04s.02,0,.04,0h.16s.02-.03.02-.03h.16s.02-.01.04-.03h.02l.02.02s.04,0,.04-.02h.02s.07,0,.07,0c.02.02.04.02.04,0h.04s.02-.02.02-.02h.11s.02.01.04,0h.02s.02,0,.04,0h.02c.07,0,.14-.03.22-.03h.04s.05,0,.05,0h.02c-1.24.18-3.76.67-6.53,1.73-.96.35-1.93.79-2.89,1.3-.05.04-.1.06-.16.08-.46.25-.89.51-1.33.79-2.07,1.34-3.96,3.13-5.17,5.47-.18.36-.34.71-.49,1.08l-.09.28c-.16.41-.28.81-.39,1.24,0,.02-.01.06-.01.07-.1.42-.18.85-.25,1.28-.01.07-.03.15-.04.24-.54,4.44,1.86,5.67,5.06,4.74.43-.12.85-.27,1.29-.46,1.22-.51,2.49-1.28,3.74-2.26.4-.32.79-.65,1.19-1,1.13-1.03,2.22-2.22,3.19-3.53.28-.4.55-.8.81-1.19.2-.32.38-.62.56-.94.9-1.6,1.59-3.29,1.98-5.09.1-.44.18-.9.24-1.34Z"/>
    <path class="st0" d="M912.6,319.64c.06-.42.09-.86.12-1.29,0,.87-.07,1.73-.18,2.58-.09.68-.21,1.35-.36,2.03-.59,2.68-1.63,5.25-2.97,7.62-.28.49-.56.96-.85,1.41-.38.62-.79,1.21-1.21,1.8-1.45,1.98-3.08,3.76-4.78,5.3-.58.54-1.19,1.03-1.79,1.51-1.87,1.48-3.79,2.63-5.61,3.41-.65.28-1.31.52-1.93.68-4.84,1.39-8.44-.47-7.6-7.14.01-.11.02-.22.05-.35.09-.64.21-1.28.37-1.91.02-.04.01-.07.03-.13.16-.63.36-1.25.57-1.85.05-.13.11-.28.16-.41.22-.56.48-1.1.75-1.62,1.81-3.52,4.63-6.2,7.75-8.22.64-.42,1.31-.81,1.99-1.18.07-.04.14-.08.23-.12,1.44-.78,2.9-1.43,4.34-1.97,3.63-1.4,6.99-2.12,9.03-2.48.05,0,.13,0,.18-.03.07,0,.13,0,.18-.03.04.02.05,0,.07,0h.07s.02,0,.04-.02h.02s.04.01.04,0h.04s.09,0,.12-.03t.04,0h.02s.02,0,.04,0h.02c.07,0,.14-.03.22-.03h.04s.05,0,.05,0h.02c-1.24.18-3.76.67-6.53,1.73-.96.35-1.93.79-2.89,1.3-.05.04-.1.06-.16.08-.46.25-.89.51-1.33.79-2.07,1.34-3.96,3.13-5.17,5.47-.18.36-.34.71-.49,1.08l-.09.28c-.16.41-.28.81-.39,1.24,0,.02-.01.06-.01.07-.1.42-.18.85-.25,1.28-.01.07-.03.15-.04.24-.54,4.44,1.86,5.67,5.06,4.74.43-.12.85-.27,1.29-.46,1.22-.51,2.49-1.28,3.74-2.26.4-.32.79-.65,1.19-1,1.13-1.03,2.22-2.22,3.19-3.53.28-.4.55-.8.81-1.19.2-.32.38-.62.56-.94.9-1.6,1.59-3.29,1.98-5.09.1-.44.18-.9.24-1.34Z"/>
    <path class="st0" d="M912.6,319.64c.06-.42.09-.86.12-1.29,0,.87-.07,1.73-.18,2.58-.09.68-.21,1.35-.36,2.03-.59,2.68-1.63,5.25-2.97,7.62-.28.49-.56.96-.85,1.41-.38.62-.79,1.21-1.21,1.8-1.45,1.98-3.08,3.76-4.78,5.3-.58.54-1.19,1.03-1.79,1.51-1.87,1.48-3.79,2.63-5.61,3.41-.65.28-1.31.52-1.93.68-4.84,1.39-8.44-.47-7.6-7.14.01-.11.02-.22.05-.35.09-.64.21-1.28.37-1.91.02-.04.01-.07.03-.13.16-.63.36-1.25.57-1.85.05-.13.11-.28.16-.41.22-.56.48-1.1.75-1.62,1.81-3.52,4.63-6.2,7.75-8.22.64-.42,1.31-.81,1.99-1.18.07-.04.14-.08.23-.12,1.44-.78,2.9-1.43,4.34-1.97,3.63-1.4,6.99-2.12,9.03-2.48.05,0,.13,0,.18-.03.07,0,.13,0,.18-.03.04.02.05,0,.07,0h.07s.02,0,.04-.02h.02s.04.01.04,0h.04s.09,0,.12-.03t.04,0h.02s.02,0,.04,0h.02c.07,0,.14-.03.22-.03h.04s.05,0,.05,0h.02c-1.24.18-3.76.67-6.53,1.73-.96.35-1.93.79-2.89,1.3-.05.04-.1.06-.16.08-.46.25-.89.51-1.33.79-2.07,1.34-3.96,3.13-5.17,5.47-.18.36-.34.71-.49,1.08l-.09.28c-.16.41-.28.81-.39,1.24,0,.02-.01.06-.01.07-.1.42-.18.85-.25,1.28-.01.07-.03.15-.04.24-.54,4.44,1.86,5.67,5.06,4.74.43-.12.85-.27,1.29-.46,1.22-.51,2.49-1.28,3.74-2.26.4-.32.79-.65,1.19-1,1.13-1.03,2.22-2.22,3.19-3.53.28-.4.55-.8.81-1.19.2-.32.38-.62.56-.94.9-1.6,1.59-3.29,1.98-5.09.1-.44.18-.9.24-1.34Z"/>
  </g>
  <g>
    <path class="st0" d="M140.36,510.52c-.34,0-.62-.03-.83-.1-.21-.07-.32-.18-.32-.34,0-.32.44-.55,1.31-.71,1-.18,1.77-.49,2.3-.91.53-.42.79-1.1.79-2.02v-17.9c0-.92-.19-1.58-.57-1.98-.38-.4-1.08-.69-2.08-.87-.87-.16-1.31-.42-1.31-.79,0-.16.11-.27.32-.34.21-.07.49-.1.83-.1.71,0,1.3.01,1.76.04.46.03.9.05,1.33.06.42.01.94.02,1.54.02s1.06,0,1.43-.02c.37-.01.77-.03,1.19-.06.42-.03.99-.04,1.7-.04.34,0,.62.03.83.1.21.07.32.18.32.34,0,.18-.11.34-.32.48s-.54.24-.99.32c-.98.18-1.69.48-2.14.87-.45.4-.67,1.06-.67,1.98v17.9c0,.92.28,1.6.83,2.02.55.42,1.32.73,2.3.91.45.08.78.17.99.28s.32.25.32.44c0,.16-.11.27-.32.34-.21.07-.49.1-.83.1-.71,0-1.3-.02-1.76-.06s-.9-.07-1.33-.1c-.42-.03-.94-.04-1.54-.04-.66,0-1.23.01-1.72.04-.49.03-.99.06-1.51.1-.51.04-1.13.06-1.84.06Z"/>
    <path class="st0" d="M153.67,510.44c-.24,0-.43-.03-.57-.1-.15-.07-.22-.18-.22-.34,0-.21.08-.35.24-.42.16-.07.38-.14.67-.22.4-.11.78-.25,1.15-.44.37-.18.55-.54.55-1.07v-8.52c0-.71-.07-1.32-.22-1.82-.15-.5-.56-.84-1.25-1.03-.11-.05-.2-.11-.28-.18-.08-.07-.12-.18-.12-.34,0-.29.12-.45.36-.48.92-.24,1.68-.53,2.26-.87.58-.34,1.15-.73,1.7-1.15.08-.05.15-.1.22-.14.07-.04.14-.06.22-.06.05,0,.1.03.14.08.04.05.06.12.06.2,0,.18-.03.56-.1,1.13-.07.57-.1,1.04-.1,1.41,0,.11,0,.2.02.3s.03.15.06.18c.92-.87,1.91-1.53,2.95-1.98,1.04-.45,2.18-.67,3.43-.67s2.36.53,3.21,1.58c.84,1.06,1.27,2.36,1.27,3.92v8.44c0,.53.18.88.55,1.05.37.17.75.32,1.15.46.21.08.42.17.61.26.2.09.3.25.3.46,0,.16-.09.26-.28.3-.19.04-.36.06-.52.06-.53,0-.94-.02-1.23-.06-.29-.04-.57-.07-.83-.1-.26-.03-.63-.04-1.11-.04-.45,0-.82.01-1.11.04-.29.03-.59.06-.89.1-.3.04-.72.06-1.25.06-.13,0-.3-.02-.5-.06-.2-.04-.3-.14-.3-.3,0-.21.1-.36.3-.46.2-.09.4-.18.61-.26.4-.13.78-.28,1.15-.46.37-.17.55-.52.55-1.05v-8.32c0-1.16-.32-2.07-.97-2.71-.65-.65-1.51-.98-2.59-1.01-.95,0-1.78.15-2.5.46-.71.3-1.35.68-1.9,1.13-.11.11-.19.24-.24.42-.05.17-.08.34-.08.5v9.54c0,.53.18.89.55,1.07.37.19.75.33,1.15.44.61.16.91.37.91.63,0,.16-.07.27-.2.34-.13.07-.33.1-.59.1-.53,0-.94-.02-1.25-.06-.3-.04-.59-.07-.85-.1-.26-.03-.63-.04-1.11-.04-.45,0-.81.01-1.09.04-.28.03-.57.06-.87.1-.3.04-.72.06-1.25.06Z"/>
    <path class="st0" d="M186.98,511.08c-.05,0-.14-.05-.26-.16s-.18-.18-.18-.24c0-.26.03-.64.1-1.13.07-.49.1-.9.1-1.25v-.24c-.4.61-1.03,1.23-1.9,1.86-.87.63-1.97.95-3.29.95-1.5,0-2.81-.4-3.9-1.19-1.1-.79-1.94-1.81-2.54-3.05-.59-1.24-.89-2.52-.89-3.84,0-1.53.36-2.97,1.07-4.32s1.74-2.44,3.07-3.29c1.33-.84,2.92-1.27,4.77-1.27.53,0,1.06.05,1.6.14.54.09.96.19,1.25.3.24.08.41.12.52.12.18,0,.28-.32.28-.95v-5.62c0-1.08-.17-1.81-.52-2.18-.34-.37-.83-.61-1.47-.71-.24-.05-.36-.22-.36-.51,0-.24.1-.4.32-.47,1.16-.29,2.07-.57,2.73-.83.66-.26,1.17-.48,1.54-.63.11-.05.2-.09.3-.1.09-.01.16-.02.22-.02.16,0,.25.08.28.24,0,.16-.02.43-.06.81s-.09.94-.14,1.68c-.05.74-.08,1.7-.08,2.89v17.9c0,.9.07,1.55.2,1.96.13.41.34.61.63.61.13,0,.36-.01.69-.04.33-.03.67-.05,1.01-.08.48-.03.71.09.71.36,0,.19-.06.35-.18.5-.12.15-.24.22-.38.22-.74.11-1.47.26-2.18.46-.71.2-1.53.5-2.46.89-.21.11-.35.17-.42.2s-.14.04-.22.04ZM182.98,508.82c.69,0,1.36-.18,2.02-.54.66-.36,1.24-.82,1.74-1.41l.04-7.13c0-.71-.21-1.41-.61-2.1-.41-.69-.98-1.25-1.7-1.68-.73-.44-1.58-.65-2.55-.65-.61,0-1.29.18-2.06.55-.77.37-1.43,1.02-1.98,1.96-.55.94-.83,2.29-.83,4.06,0,1.5.22,2.71.67,3.62.45.91,1,1.6,1.64,2.08.65.47,1.31.8,1.98.97.67.17,1.22.26,1.64.26Z"/>
    <path class="st0" d="M194.62,510.44c-.24,0-.43-.03-.57-.1-.15-.07-.22-.18-.22-.34,0-.21.1-.36.3-.44.2-.08.4-.14.61-.2.55-.13.98-.3,1.27-.5.29-.2.44-.54.44-1.01v-8.59c0-.71-.13-1.35-.38-1.9-.25-.55-.72-.88-1.41-.99-.13-.03-.23-.08-.3-.16-.07-.08-.1-.2-.1-.36,0-.29.12-.45.36-.47,1.06-.24,1.93-.56,2.61-.97.69-.41,1.2-.75,1.54-1.01.24-.18.42-.28.55-.28.16,0,.24.07.24.2,0,.21-.03.63-.1,1.25-.07.62-.13,1.31-.18,2.06-.05.75-.08,1.43-.08,2.04v9.19c0,.45.15.78.46.99.3.21.72.38,1.25.52.21.05.42.12.61.2.2.08.3.22.3.44,0,.29-.26.44-.79.44s-.9-.02-1.21-.06c-.3-.04-.59-.07-.87-.1-.28-.03-.65-.04-1.13-.04-.45,0-.82.01-1.11.04-.29.03-.58.06-.87.1-.29.04-.7.06-1.23.06ZM197.79,489.89c-.55,0-1.02-.19-1.41-.57-.38-.38-.57-.85-.57-1.41s.19-1.06.57-1.45c.38-.38.85-.57,1.41-.57s1.06.19,1.45.57c.38.38.57.87.57,1.45s-.19,1.02-.57,1.41c-.38.38-.87.57-1.45.57Z"/>
    <path class="st0" d="M207.22,510.88c-.48,0-.96-.19-1.45-.55-.49-.37-.9-.82-1.23-1.35-.33-.53-.5-1.03-.5-1.5,0-.84.22-1.5.67-1.98.45-.48,1.16-.91,2.14-1.31l4.04-1.66c.53-.21.84-.4.93-.55.09-.16.15-.5.18-1.03l.08-2.54c.03-.69-.17-1.28-.57-1.78-.41-.5-1-.75-1.76-.75-.4,0-.79.07-1.19.2-.4.13-.73.3-.99.51-.16.11-.26.26-.32.48-.05.21-.08.44-.08.67,0,.11,0,.22.02.36.01.13.02.25.02.36,0,.13-.17.31-.5.53-.33.22-.7.42-1.11.59-.41.17-.75.26-1.01.26-.13,0-.24-.03-.32-.1-.08-.07-.12-.15-.12-.26,0-.42.14-.88.42-1.37.28-.49.67-.94,1.17-1.37.61-.55,1.27-1.04,1.98-1.47.71-.42,1.41-.75,2.1-.99.69-.24,1.29-.36,1.82-.36.95,0,1.74.34,2.36,1.01.62.67.92,1.51.89,2.52l-.2,9.51c-.03.55.1,1,.38,1.35.28.34.63.51,1.05.51.66,0,1.15-.14,1.47-.44.13-.13.24-.2.32-.2.13,0,.24.04.32.12.08.08.12.18.12.32,0,.29-.15.58-.44.87-.42.42-.88.76-1.37,1.01-.49.25-.94.38-1.37.38-1.21,0-2.18-.69-2.89-2.06h-.12c-.87.71-1.7,1.23-2.5,1.56-.79.33-1.61.5-2.46.5ZM209.08,508.98c.53,0,.98-.08,1.35-.26.37-.17.7-.4.99-.69.13-.13.24-.31.34-.54.09-.22.15-.59.18-1.09l.08-1.94c.03-.29.01-.5-.04-.63-.05-.13-.16-.2-.32-.2-.05,0-.15.01-.28.04-.13.03-.3.08-.52.16-1.4.5-2.37,1.02-2.91,1.57-.54.54-.81,1.04-.81,1.48,0,.69.2,1.21.61,1.56.41.36.85.54,1.33.54Z"/>
    <path class="st0" d="M220.13,510.44c-.24,0-.43-.03-.57-.1-.15-.07-.22-.18-.22-.34,0-.21.08-.35.24-.42.16-.07.38-.14.67-.22.4-.11.78-.25,1.15-.44.37-.18.55-.54.55-1.07v-8.52c0-.71-.07-1.32-.22-1.82-.15-.5-.56-.84-1.25-1.03-.11-.05-.2-.11-.28-.18-.08-.07-.12-.18-.12-.34,0-.29.12-.45.36-.48.92-.24,1.68-.53,2.26-.87.58-.34,1.15-.73,1.7-1.15.08-.05.15-.1.22-.14.07-.04.14-.06.22-.06.05,0,.1.03.14.08.04.05.06.12.06.2,0,.18-.03.56-.1,1.13-.07.57-.1,1.04-.1,1.41,0,.11,0,.2.02.3s.03.15.06.18c.92-.87,1.91-1.53,2.95-1.98,1.04-.45,2.18-.67,3.43-.67s2.36.53,3.21,1.58c.84,1.06,1.27,2.36,1.27,3.92v8.44c0,.53.18.88.55,1.05.37.17.75.32,1.15.46.21.08.42.17.61.26.2.09.3.25.3.46,0,.16-.09.26-.28.3-.19.04-.36.06-.52.06-.53,0-.94-.02-1.23-.06-.29-.04-.57-.07-.83-.1-.26-.03-.63-.04-1.11-.04-.45,0-.82.01-1.11.04-.29.03-.59.06-.89.1-.3.04-.72.06-1.25.06-.13,0-.3-.02-.5-.06-.2-.04-.3-.14-.3-.3,0-.21.1-.36.3-.46.2-.09.4-.18.61-.26.4-.13.78-.28,1.15-.46.37-.17.55-.52.55-1.05v-8.32c0-1.16-.32-2.07-.97-2.71-.65-.65-1.51-.98-2.59-1.01-.95,0-1.78.15-2.5.46-.71.3-1.35.68-1.9,1.13-.11.11-.19.24-.24.42-.05.17-.08.34-.08.5v9.54c0,.53.18.89.55,1.07.37.19.75.33,1.15.44.61.16.91.37.91.63,0,.16-.07.27-.2.34-.13.07-.33.1-.59.1-.53,0-.94-.02-1.25-.06-.3-.04-.59-.07-.85-.1-.26-.03-.63-.04-1.11-.04-.45,0-.81.01-1.09.04-.28.03-.57.06-.87.1-.3.04-.72.06-1.25.06Z"/>
    <path class="st0" d="M249.32,510.52c-.34,0-.62-.03-.83-.1-.21-.07-.32-.18-.32-.34,0-.32.44-.55,1.31-.71,1-.18,1.74-.49,2.2-.91.46-.42.69-1.12.69-2.1v-16.71c0-1.19-.15-2.1-.46-2.73-.3-.63-.96-1.04-1.96-1.23-.45-.08-.78-.18-.99-.32-.21-.13-.32-.29-.32-.48,0-.16.11-.27.32-.34.21-.07.49-.1.83-.1h1.6c.36,0,.69,0,1.01.02.32.01.74.02,1.27.02s1.06-.02,1.6-.06c.54-.04,1.05-.08,1.52-.12.48-.04.9-.06,1.27-.06,3.01,0,5.43.62,7.27,1.86,1.83,1.24,2.75,2.97,2.75,5.19,0,1.61-.32,3.1-.95,4.46-.63,1.36-1.6,2.45-2.91,3.27s-2.98,1.23-5.01,1.23c-.58,0-1.02-.08-1.33-.26-.3-.17-.46-.34-.46-.5,0-.11.07-.22.22-.36.15-.13.28-.2.42-.2s.34.01.61.04c.28.03.68.04,1.21.04,1.58,0,2.78-.66,3.58-1.98.81-1.32,1.21-3.14,1.21-5.47,0-2.11-.62-3.68-1.86-4.69-1.24-1.02-2.83-1.52-4.75-1.52-.74,0-1.35.12-1.82.38-.48.25-.71.68-.71,1.29v18.89c0,.95.2,1.72.59,2.3.4.58,1.08.96,2.06,1.15.45.08.78.17.99.28.21.11.32.25.32.44,0,.16-.11.27-.32.34-.21.07-.49.1-.83.1-.71,0-1.26-.03-1.64-.08-.38-.05-.73-.1-1.03-.14-.3-.04-.71-.06-1.21-.06-.66,0-1.25.02-1.76.06-.52.04-1.03.08-1.54.14-.51.05-1.13.08-1.84.08Z"/>
    <path class="st0" d="M270.63,510.44c-.13,0-.3-.02-.5-.06-.2-.04-.3-.14-.3-.3,0-.21.1-.36.3-.46.2-.09.4-.18.61-.26.4-.13.78-.28,1.15-.46.37-.17.55-.52.55-1.05v-19.96c0-.77-.14-1.41-.42-1.92s-.75-.84-1.41-.97c-.21-.05-.32-.22-.32-.51,0-.26.09-.42.28-.47.69-.16,1.28-.32,1.78-.5.5-.17.97-.35,1.41-.54.44-.18.86-.36,1.29-.51.11-.05.18-.08.24-.08s.1.03.14.1c.04.07.06.13.06.18,0,.24-.05.75-.14,1.52-.09.78-.14,2.07-.14,3.86v19.8c0,.53.18.88.55,1.05.37.17.75.32,1.15.46.21.08.42.17.61.26.2.09.3.25.3.46,0,.16-.1.26-.3.3-.2.04-.36.06-.5.06-.5,0-.9-.02-1.21-.06-.3-.04-.59-.07-.87-.1-.28-.03-.65-.04-1.13-.04-.45,0-.82.01-1.11.04-.29.03-.58.06-.87.1-.29.04-.7.06-1.23.06Z"/>
    <path class="st0" d="M283.22,510.88c-.48,0-.96-.19-1.45-.55-.49-.37-.9-.82-1.23-1.35-.33-.53-.5-1.03-.5-1.5,0-.84.22-1.5.67-1.98.45-.48,1.16-.91,2.14-1.31l4.04-1.66c.53-.21.84-.4.93-.55.09-.16.15-.5.18-1.03l.08-2.54c.03-.69-.17-1.28-.57-1.78-.41-.5-1-.75-1.76-.75-.4,0-.79.07-1.19.2-.4.13-.73.3-.99.51-.16.11-.26.26-.32.48-.05.21-.08.44-.08.67,0,.11,0,.22.02.36.01.13.02.25.02.36,0,.13-.17.31-.5.53-.33.22-.7.42-1.11.59-.41.17-.75.26-1.01.26-.13,0-.24-.03-.32-.1-.08-.07-.12-.15-.12-.26,0-.42.14-.88.42-1.37.28-.49.67-.94,1.17-1.37.61-.55,1.27-1.04,1.98-1.47.71-.42,1.41-.75,2.1-.99.69-.24,1.29-.36,1.82-.36.95,0,1.74.34,2.36,1.01.62.67.92,1.51.89,2.52l-.2,9.51c-.03.55.1,1,.38,1.35.28.34.63.51,1.05.51.66,0,1.15-.14,1.47-.44.13-.13.24-.2.32-.2.13,0,.24.04.32.12.08.08.12.18.12.32,0,.29-.15.58-.44.87-.42.42-.88.76-1.37,1.01-.49.25-.94.38-1.37.38-1.21,0-2.18-.69-2.89-2.06h-.12c-.87.71-1.7,1.23-2.5,1.56-.79.33-1.61.5-2.46.5ZM285.08,508.98c.53,0,.98-.08,1.35-.26.37-.17.7-.4.99-.69.13-.13.24-.31.34-.54.09-.22.15-.59.18-1.09l.08-1.94c.03-.29.01-.5-.04-.63-.05-.13-.16-.2-.32-.2-.05,0-.15.01-.28.04-.13.03-.3.08-.52.16-1.4.5-2.37,1.02-2.91,1.57-.54.54-.81,1.04-.81,1.48,0,.69.2,1.21.61,1.56.41.36.85.54,1.33.54Z"/>
    <path class="st0" d="M301.87,510.88c-1.29,0-2.3-.4-3.03-1.19-.73-.79-1.09-1.97-1.09-3.53v-9.19c0-.21-.08-.36-.24-.46-.16-.09-.5-.14-1.03-.14h-.24c-.13,0-.24-.09-.34-.26-.09-.17-.14-.35-.14-.54,0-.05.04-.13.12-.24.08-.11.13-.17.16-.2.53-.37,1.01-.74,1.45-1.11.44-.37.83-.73,1.19-1.09s.65-.68.89-.97l.34-.34c.09-.09.2-.14.34-.14s.26.03.38.08c.12.05.16.17.14.36l-.2,1.78c-.03.29.04.49.2.59.16.11.41.16.75.16h4.52c.11,0,.2.09.28.26.08.17.12.38.12.61s-.04.47-.12.69-.17.34-.28.34h-3.92c-.66,0-1.09.05-1.29.16-.2.11-.3.42-.3.95v7.8c0,1.06.22,1.89.67,2.5.45.61,1.1.91,1.94.91.77,0,1.36-.06,1.78-.18.42-.12.81-.3,1.15-.54.05-.05.11-.08.16-.08.1,0,.18.06.22.18.04.12.06.25.06.38s-.22.4-.65.79-1,.77-1.7,1.11c-.7.34-1.46.51-2.28.51Z"/>
    <path class="st0" d="M315.26,510.92c-1.45,0-2.72-.36-3.8-1.07-1.08-.71-1.93-1.72-2.54-3.03-.61-1.31-.91-2.82-.91-4.54,0-1.53.35-2.92,1.05-4.18.7-1.25,1.63-2.26,2.79-3.03,1.16-.77,2.43-1.15,3.8-1.15,1.06,0,1.99.21,2.81.63.82.42,1.46,1.01,1.92,1.76.46.75.69,1.62.69,2.59,0,.82-.4,1.23-1.19,1.23h-8.36c-.37,0-.63.1-.77.3-.15.2-.22.59-.22,1.17,0,1.27.28,2.42.83,3.47.55,1.04,1.29,1.88,2.22,2.5.92.62,1.94.93,3.05.93.79,0,1.51-.15,2.16-.46.65-.3,1.22-.75,1.72-1.33.11-.13.18-.22.24-.26.05-.04.12-.06.2-.06.21,0,.32.13.32.4,0,.5-.24,1.06-.71,1.66-.4.5-.87.94-1.43,1.31-.55.37-1.16.65-1.82.85-.66.2-1.35.3-2.06.3ZM311.62,498.92h3.6c.63,0,1.17-.01,1.62-.04.45-.03.88-.08,1.31-.16.13-.03.22-.11.26-.26.04-.14.06-.35.06-.61,0-.77-.34-1.42-1.01-1.96s-1.47-.81-2.4-.81c-.61,0-1.21.18-1.82.54-.61.36-1.11.8-1.51,1.33-.4.53-.59,1.06-.59,1.58,0,.26.16.4.48.4Z"/>
    <path class="st0" d="M327.98,510.88c-.82,0-1.58-.13-2.3-.38-.71-.25-1.32-.6-1.82-1.05-.13-.29-.23-.78-.3-1.47-.07-.69-.11-1.25-.14-1.7,0-.24.17-.36.52-.36.1,0,.2.02.3.06.09.04.15.11.18.22.34,1.29.89,2.22,1.64,2.77.75.55,1.51.83,2.28.83s1.42-.26,1.96-.77c.54-.51.81-1.16.81-1.92,0-.71-.24-1.33-.71-1.84-.48-.51-1.31-1.14-2.5-1.88-.9-.55-1.62-1.08-2.18-1.58-.55-.5-.96-1.02-1.21-1.54-.25-.53-.38-1.12-.38-1.78,0-.84.2-1.61.59-2.3s.99-1.23,1.78-1.64c.79-.41,1.78-.61,2.97-.61.79,0,1.45.08,1.98.24.53.16.92.33,1.19.52.21.29.39.75.53,1.37s.22,1.21.22,1.76c0,.18-.13.28-.4.28-.16,0-.31-.03-.46-.1-.15-.07-.24-.15-.3-.26-.34-.87-.77-1.54-1.29-2-.52-.46-1.16-.69-1.92-.69-.66,0-1.25.2-1.76.59-.51.4-.77.98-.77,1.74,0,.61.19,1.15.57,1.62.38.48,1.1,1.02,2.16,1.62,1.53.87,2.67,1.68,3.43,2.44.75.75,1.13,1.75,1.13,2.99,0,1.43-.54,2.59-1.62,3.49-1.08.9-2.48,1.35-4.2,1.35Z"/>
    <path class="st0" d="M351.38,510.92c-1.35,0-2.54-.24-3.58-.73-1.04-.49-1.86-1.15-2.44-2-.58-.84-.87-1.81-.87-2.89,0-2.11.63-3.84,1.88-5.19,1.25-1.35,2.83-2.46,4.73-3.33l.79-.36-.59-.63c-.24-.29-.56-.65-.97-1.07-.41-.42-.78-.93-1.11-1.52-.33-.59-.5-1.27-.5-2.04,0-.92.27-1.73.81-2.42.54-.69,1.23-1.21,2.08-1.58.84-.37,1.72-.55,2.61-.55,1.13,0,2.07.26,2.81.77.74.51,1.29,1.15,1.66,1.9.37.75.55,1.47.55,2.16.03,1-.33,1.88-1.07,2.61s-1.77,1.35-3.09,1.82l-.55.2.51.55c1,1.08,1.91,2.02,2.73,2.81.82.79,1.62,1.77,2.42,2.93l.48.71.71-.75c.63-.69,1.29-1.45,1.96-2.3.67-.84,1.24-1.62,1.7-2.32.46-.7.69-1.14.69-1.33,0-.16-.1-.37-.3-.63-.2-.26-.47-.42-.81-.48-.05-.03-.15-.09-.28-.2-.13-.11-.2-.18-.2-.24,0-.21.12-.34.38-.38.25-.04.42-.06.5-.06s.31.01.69.04c.38.03.79.06,1.21.1.42.04.73.06.91.06.4,0,.83-.05,1.31-.14.48-.09.93-.19,1.37-.3.44-.1.81-.16,1.13-.16.05,0,.14.04.28.12.13.08.2.16.2.24,0,.16-.12.32-.36.48-.24.16-.45.25-.63.28-.61.03-1.16.17-1.66.42-.5.25-.91.52-1.23.81-.11.08-.41.38-.91.91-.5.53-1.1,1.16-1.8,1.88-.7.73-1.38,1.45-2.04,2.16-.66.71-1.44,1.54-2.34,2.5l.67.95c.84,1.21,1.68,2.19,2.5,2.91.82.73,1.73,1.09,2.73,1.09.55,0,1.09-.05,1.6-.16.51-.1,1.01-.29,1.48-.55.11-.05.22-.1.34-.14.12-.04.23-.06.34-.06.18,0,.31.03.38.1.07.07.1.19.1.38,0,.21-.28.53-.83.95-.55.42-1.22.81-2,1.15-.78.34-1.54.51-2.28.51-.98,0-1.8-.17-2.46-.5-.66-.33-1.26-.83-1.8-1.5-.54-.67-1.16-1.54-1.84-2.59l-.51-.83-.24.24c-.82.9-1.6,1.74-2.36,2.54-.75.79-1.56,1.43-2.44,1.92-.87.49-1.93.73-3.17.73ZM352.41,508.34c1.32,0,2.46-.28,3.43-.83.96-.55,1.93-1.35,2.91-2.38l.36-.36-.48-.75c-.66-1-1.49-2.02-2.48-3.05-.99-1.03-2.05-2.15-3.19-3.37l-.48-.51-.83.32c-1.21.48-2.12,1.08-2.71,1.8-.59.73-.98,1.5-1.15,2.34-.17.83-.26,1.64-.26,2.44,0,1.21.45,2.24,1.35,3.09.9.85,2.07,1.27,3.53,1.27ZM354.04,495.43l.52-.24c.74-.34,1.29-.89,1.64-1.64.36-.75.53-1.53.53-2.32,0-.92-.22-1.76-.65-2.5s-1.12-1.11-2.04-1.11c-.79,0-1.49.25-2.1.73-.61.49-.91,1.09-.91,1.8,0,.53.05,1,.16,1.43.1.42.33.87.67,1.35.34.48.86,1.08,1.54,1.82l.63.67Z"/>
    <path class="st0" d="M396.97,510.92c-1.85,0-3.63-.32-5.35-.95-1.72-.63-3.25-1.54-4.59-2.71s-2.41-2.59-3.19-4.24c-.78-1.65-1.17-3.48-1.17-5.49s.41-3.71,1.23-5.35c.82-1.64,1.94-3.06,3.37-4.28,1.43-1.21,3.06-2.16,4.89-2.83,1.83-.67,3.77-1.01,5.8-1.01,1.03,0,1.9.04,2.61.12s1.41.19,2.08.34c.67.14,1.46.34,2.36.57.4.11.68.26.85.47.17.21.27.5.3.87.05.61.12,1.26.2,1.96.08.7.13,1.56.16,2.59.03.18-.06.34-.26.46-.2.12-.41.15-.63.1-.22-.05-.38-.22-.46-.52-.26-1-.57-1.87-.91-2.59s-.86-1.33-1.54-1.8c-.66-.45-1.46-.79-2.4-1.01-.94-.22-1.95-.34-3.03-.34-1.53,0-2.95.31-4.26.93s-2.43,1.46-3.37,2.53c-.94,1.07-1.67,2.28-2.2,3.62-.53,1.35-.79,2.75-.79,4.2,0,1.61.26,3.2.77,4.75.51,1.56,1.25,2.96,2.22,4.22s2.11,2.26,3.45,3.01c1.33.75,2.82,1.13,4.46,1.13,1.9,0,3.47-.44,4.71-1.31,1.24-.87,2.3-2.09,3.17-3.64.18-.34.46-.51.81-.51s.53.21.53.63c0,.21-.05.55-.16,1.01-.11.46-.24.95-.42,1.47-.17.51-.34.97-.5,1.37-.19.37-.34.61-.46.71-.12.11-.39.22-.81.36-.98.4-2.15.69-3.51.87-1.36.18-2.69.28-3.98.28Z"/>
    <path class="st0" d="M418.24,510.88c-1.48,0-2.81-.34-4-1.03-1.19-.69-2.13-1.63-2.83-2.83-.7-1.2-1.05-2.57-1.05-4.1,0-1.11.22-2.19.65-3.25.44-1.06,1.05-2.02,1.84-2.89.79-.87,1.72-1.56,2.77-2.08s2.19-.77,3.41-.77c1.53,0,2.91.37,4.14,1.11s2.2,1.71,2.93,2.91c.73,1.2,1.09,2.51,1.09,3.94,0,1.53-.34,2.98-1.01,4.36s-1.67,2.49-2.99,3.35c-1.32.86-2.97,1.29-4.95,1.29ZM419.07,509.69c.9,0,1.7-.17,2.42-.51.71-.34,1.27-.9,1.66-1.66.32-.61.53-1.35.63-2.22s.16-1.69.16-2.46c0-1.27-.23-2.49-.69-3.66-.46-1.17-1.11-2.14-1.94-2.89-.83-.75-1.82-1.13-2.95-1.13-.71,0-1.35.11-1.92.34-.57.22-1.09.64-1.56,1.25-.53.66-.87,1.46-1.03,2.42-.16.95-.24,1.9-.24,2.85,0,1.29.24,2.53.71,3.7.48,1.17,1.12,2.13,1.94,2.87.82.74,1.76,1.11,2.81,1.11Z"/>
    <path class="st0" d="M437.01,510.92c-1.32,0-2.52-.34-3.58-1.01-1.07-.67-1.92-1.6-2.54-2.77-.62-1.17-.93-2.49-.93-3.94,0-1.72.38-3.27,1.13-4.67s1.76-2.52,3.03-3.35c1.27-.83,2.67-1.25,4.2-1.25,1.72,0,3.22.46,4.52,1.39.32.24.48.49.48.75,0,.21-.09.45-.28.71-.19.26-.41.48-.67.65-.26.17-.51.26-.75.26-.13,0-.26-.05-.4-.14-.13-.09-.28-.19-.44-.3-.58-.45-1.23-.87-1.94-1.27s-1.31-.59-1.78-.59c-1.29,0-2.34.6-3.15,1.8-.81,1.2-1.21,2.78-1.21,4.73,0,1.24.27,2.36.81,3.37.54,1,1.27,1.8,2.18,2.38.91.58,1.92.87,3.03.87.77,0,1.43-.12,1.98-.38.55-.25,1.15-.69,1.78-1.33.05-.05.12-.1.2-.14s.15-.06.2-.06c.29,0,.44.19.44.55,0,.16-.05.34-.14.53-.09.2-.24.43-.46.69-.42.53-.92.98-1.5,1.37-.58.38-1.22.67-1.92.85-.7.18-1.46.28-2.28.28Z"/>
    <path class="st0" d="M446.36,510.44c-.61,0-.91-.15-.91-.44,0-.21.1-.35.3-.42.2-.07.4-.14.61-.22.4-.13.78-.3,1.15-.52.37-.21.55-.58.55-1.11v-19.84c0-.92-.13-1.6-.4-2.02-.26-.42-.73-.71-1.39-.87-.24-.05-.36-.22-.36-.51,0-.26.1-.42.32-.47.69-.16,1.28-.32,1.78-.5.5-.17.96-.34,1.37-.52.41-.17.81-.34,1.21-.5.16-.08.28-.12.36-.12s.14.03.18.08.06.15.06.28c0,.26-.06.79-.18,1.58s-.18,2.03-.18,3.72v12.99c0,.24.07.36.2.36.16,0,.36-.07.61-.2.25-.13.52-.33.81-.59,1.08-.92,1.99-1.76,2.71-2.51.73-.75,1.22-1.27,1.49-1.56.13-.16.22-.28.28-.38.05-.09.08-.17.08-.22,0-.13-.11-.25-.34-.36-.23-.1-.46-.18-.69-.24-.32-.08-.48-.21-.48-.4,0-.13.08-.24.24-.34.16-.09.37-.14.63-.14h1.94c.42,0,.86-.04,1.33-.12.46-.08.9-.16,1.31-.24.41-.08.73-.12.97-.12.37,0,.55.13.55.4,0,.16-.09.3-.28.42-.19.12-.42.22-.71.3-.5.13-.97.32-1.41.55-.44.24-.84.46-1.21.67-.16.11-.52.39-1.09.85-.57.46-1.21,1-1.94,1.6-.73.61-1.41,1.19-2.04,1.74-.16.16-.24.29-.24.4,0,.03.01.07.04.12.03.05.05.11.08.16.69.84,1.43,1.7,2.22,2.57.79.87,1.52,1.64,2.2,2.3.67.66,1.14,1.12,1.41,1.39.45.42.96.8,1.52,1.13s1.05.56,1.45.69c.29.11.56.2.81.28.25.08.38.22.38.44,0,.29-.26.44-.79.44-1.03,0-2.19-.02-3.47-.06-1.28-.04-2.59-.06-3.94-.06-.48,0-.71-.12-.71-.36,0-.16.07-.29.2-.4.13-.1.29-.18.48-.24.29-.11.54-.22.75-.36.21-.13.32-.32.32-.55,0-.08-.03-.16-.08-.26-.05-.09-.12-.19-.2-.3l-4.79-5.43c-.16-.18-.29-.28-.4-.28-.13,0-.2.09-.2.28-.03.37-.04.77-.04,1.21v2.71c0,.48.01.94.04,1.39,0,.53.13.9.4,1.11.26.21.59.38.99.52.21.08.42.15.61.22.2.07.3.2.3.42,0,.18-.13.3-.38.36-.25.05-.43.08-.53.08-.5,0-.87-.02-1.11-.06-.24-.04-.46-.07-.65-.1-.2-.03-.53-.04-1.01-.04-.45,0-.81.01-1.07.04-.26.03-.53.06-.81.1-.28.04-.68.06-1.21.06Z"/>
    <path class="st0" d="M470.76,510.88c-1.29,0-2.3-.4-3.03-1.19-.73-.79-1.09-1.97-1.09-3.53v-9.19c0-.21-.08-.36-.24-.46-.16-.09-.5-.14-1.03-.14h-.24c-.13,0-.24-.09-.34-.26-.09-.17-.14-.35-.14-.54,0-.05.04-.13.12-.24.08-.11.13-.17.16-.2.53-.37,1.01-.74,1.45-1.11.44-.37.83-.73,1.19-1.09s.65-.68.89-.97l.34-.34c.09-.09.2-.14.34-.14s.26.03.38.08c.12.05.16.17.14.36l-.2,1.78c-.03.29.04.49.2.59.16.11.41.16.75.16h4.52c.11,0,.2.09.28.26.08.17.12.38.12.61s-.04.47-.12.69-.17.34-.28.34h-3.92c-.66,0-1.09.05-1.29.16-.2.11-.3.42-.3.95v7.8c0,1.06.22,1.89.67,2.5.45.61,1.1.91,1.94.91.77,0,1.36-.06,1.78-.18.42-.12.81-.3,1.15-.54.05-.05.11-.08.16-.08.1,0,.18.06.22.18.04.12.06.25.06.38s-.22.4-.65.79-1,.77-1.7,1.11c-.7.34-1.46.51-2.28.51Z"/>
    <path class="st0" d="M480.34,510.88c-.48,0-.96-.19-1.45-.55-.49-.37-.9-.82-1.23-1.35-.33-.53-.5-1.03-.5-1.5,0-.84.22-1.5.67-1.98.45-.48,1.16-.91,2.14-1.31l4.04-1.66c.53-.21.84-.4.93-.55.09-.16.15-.5.18-1.03l.08-2.54c.03-.69-.17-1.28-.57-1.78-.41-.5-1-.75-1.76-.75-.4,0-.79.07-1.19.2-.4.13-.73.3-.99.51-.16.11-.26.26-.32.48-.05.21-.08.44-.08.67,0,.11,0,.22.02.36.01.13.02.25.02.36,0,.13-.17.31-.5.53-.33.22-.7.42-1.11.59-.41.17-.75.26-1.01.26-.13,0-.24-.03-.32-.1-.08-.07-.12-.15-.12-.26,0-.42.14-.88.42-1.37.28-.49.67-.94,1.17-1.37.61-.55,1.27-1.04,1.98-1.47.71-.42,1.41-.75,2.1-.99.69-.24,1.29-.36,1.82-.36.95,0,1.74.34,2.36,1.01.62.67.92,1.51.89,2.52l-.2,9.51c-.03.55.1,1,.38,1.35.28.34.63.51,1.05.51.66,0,1.15-.14,1.47-.44.13-.13.24-.2.32-.2.13,0,.24.04.32.12.08.08.12.18.12.32,0,.29-.15.58-.44.87-.42.42-.88.76-1.37,1.01-.49.25-.94.38-1.37.38-1.21,0-2.18-.69-2.89-2.06h-.12c-.87.71-1.7,1.23-2.5,1.56-.79.33-1.61.5-2.46.5ZM482.2,508.98c.53,0,.98-.08,1.35-.26.37-.17.7-.4.99-.69.13-.13.24-.31.34-.54.09-.22.15-.59.18-1.09l.08-1.94c.03-.29.01-.5-.04-.63-.05-.13-.16-.2-.32-.2-.05,0-.15.01-.28.04-.13.03-.3.08-.52.16-1.4.5-2.37,1.02-2.91,1.57-.54.54-.81,1.04-.81,1.48,0,.69.2,1.21.61,1.56.41.36.85.54,1.33.54Z"/>
    <path class="st0" d="M493.25,510.44c-.24,0-.43-.03-.57-.1-.15-.07-.22-.18-.22-.34,0-.21.1-.36.3-.44.2-.08.4-.14.61-.2.55-.13.98-.3,1.27-.5.29-.2.44-.54.44-1.01v-8.59c0-.71-.13-1.35-.38-1.9-.25-.55-.72-.88-1.41-.99-.13-.03-.23-.08-.3-.16-.07-.08-.1-.2-.1-.36,0-.29.12-.45.36-.47,1.06-.24,1.93-.56,2.61-.97.69-.41,1.2-.75,1.54-1.01.24-.18.42-.28.55-.28.16,0,.24.07.24.2,0,.21-.03.63-.1,1.25-.07.62-.13,1.31-.18,2.06-.05.75-.08,1.43-.08,2.04v9.19c0,.45.15.78.46.99.3.21.72.38,1.25.52.21.05.42.12.61.2.2.08.3.22.3.44,0,.29-.26.44-.79.44s-.9-.02-1.21-.06c-.3-.04-.59-.07-.87-.1-.28-.03-.65-.04-1.13-.04-.45,0-.82.01-1.11.04-.29.03-.58.06-.87.1-.29.04-.7.06-1.23.06ZM496.42,489.89c-.55,0-1.02-.19-1.41-.57-.38-.38-.57-.85-.57-1.41s.19-1.06.57-1.45c.38-.38.85-.57,1.41-.57s1.06.19,1.45.57c.38.38.57.87.57,1.45s-.19,1.02-.57,1.41c-.38.38-.87.57-1.45.57Z"/>
    <path class="st0" d="M502.76,510.44c-.13,0-.3-.02-.5-.06-.2-.04-.3-.14-.3-.3,0-.21.1-.36.3-.46.2-.09.4-.18.61-.26.4-.13.78-.28,1.15-.46.37-.17.55-.52.55-1.05v-19.96c0-.77-.14-1.41-.42-1.92s-.75-.84-1.41-.97c-.21-.05-.32-.22-.32-.51,0-.26.09-.42.28-.47.69-.16,1.28-.32,1.78-.5.5-.17.97-.35,1.41-.54.44-.18.86-.36,1.29-.51.11-.05.18-.08.24-.08s.1.03.14.1c.04.07.06.13.06.18,0,.24-.05.75-.14,1.52-.09.78-.14,2.07-.14,3.86v19.8c0,.53.18.88.55,1.05.37.17.75.32,1.15.46.21.08.42.17.61.26.2.09.3.25.3.46,0,.16-.1.26-.3.3-.2.04-.36.06-.5.06-.5,0-.9-.02-1.21-.06-.3-.04-.59-.07-.87-.1-.28-.03-.65-.04-1.13-.04-.45,0-.82.01-1.11.04-.29.03-.58.06-.87.1-.29.04-.7.06-1.23.06Z"/>
    <path class="st0" d="M516.42,510.88c-.82,0-1.58-.13-2.3-.38-.71-.25-1.32-.6-1.82-1.05-.13-.29-.23-.78-.3-1.47-.07-.69-.11-1.25-.14-1.7,0-.24.17-.36.52-.36.1,0,.2.02.3.06.09.04.15.11.18.22.34,1.29.89,2.22,1.64,2.77.75.55,1.51.83,2.28.83s1.42-.26,1.96-.77c.54-.51.81-1.16.81-1.92,0-.71-.24-1.33-.71-1.84-.48-.51-1.31-1.14-2.5-1.88-.9-.55-1.62-1.08-2.18-1.58-.55-.5-.96-1.02-1.21-1.54-.25-.53-.38-1.12-.38-1.78,0-.84.2-1.61.59-2.3s.99-1.23,1.78-1.64c.79-.41,1.78-.61,2.97-.61.79,0,1.45.08,1.98.24.53.16.92.33,1.19.52.21.29.39.75.53,1.37s.22,1.21.22,1.76c0,.18-.13.28-.4.28-.16,0-.31-.03-.46-.1-.15-.07-.24-.15-.3-.26-.34-.87-.77-1.54-1.29-2-.52-.46-1.16-.69-1.92-.69-.66,0-1.25.2-1.76.59-.51.4-.77.98-.77,1.74,0,.61.19,1.15.57,1.62.38.48,1.1,1.02,2.16,1.62,1.53.87,2.67,1.68,3.43,2.44.75.75,1.13,1.75,1.13,2.99,0,1.43-.54,2.59-1.62,3.49-1.08.9-2.48,1.35-4.2,1.35Z"/>
  </g>
  <line class="st1" x1="559.71" y1="500.96" x2="678.53" y2="500.96"/>
</svg>